<svg width="20" height="16" viewBox="0 0 20 16" fill="none" xmlns="http://www.w3.org/2000/svg">
<path d="M4.93924 0.00343357C4.80116 0.0190285 4.67377 0.0872165 4.58219 0.194558C4.4906 0.3019 4.44146 0.440608 4.44444 0.583343V1.43982H1.66667C0.752943 1.43982 0 2.21368 0 3.15279V14.287C0 15.2261 0.752943 16 1.66667 16H18.3333C19.2471 16 20 15.2261 20 14.287V3.15279C20 2.21368 19.2471 1.43982 18.3333 1.43982H15.5556V0.583343C15.5573 0.502059 15.5421 0.421339 15.511 0.346581C15.4799 0.271822 15.4336 0.20475 15.3753 0.149851C15.3169 0.0949508 15.2478 0.0534892 15.1726 0.0282388C15.0974 0.00298842 15.0179 -0.00546872 14.9392 0.00343357C14.8012 0.0190285 14.6738 0.0872165 14.5822 0.194558C14.4906 0.3019 14.4415 0.440608 14.4444 0.583343V1.43982H5.55556V0.583343C5.55726 0.502059 5.54206 0.421339 5.51096 0.346581C5.47987 0.271822 5.4336 0.20475 5.37525 0.149851C5.31691 0.0949508 5.24783 0.0534892 5.17263 0.0282388C5.09744 0.00298842 5.01787 -0.00546872 4.93924 0.00343357ZM1.66667 2.5818H4.44444V3.43828C4.4434 3.51394 4.457 3.58906 4.48446 3.65928C4.51191 3.72949 4.55266 3.79339 4.60436 3.84728C4.65605 3.90116 4.71764 3.94395 4.78556 3.97315C4.85348 4.00236 4.92638 4.0174 5 4.0174C5.07363 4.0174 5.14652 4.00236 5.21444 3.97315C5.28236 3.94395 5.34395 3.90116 5.39564 3.84728C5.44734 3.79339 5.48809 3.72949 5.51554 3.65928C5.543 3.58906 5.5566 3.51394 5.55556 3.43828V2.5818H14.4444V3.43828C14.4434 3.51394 14.457 3.58906 14.4845 3.65928C14.5119 3.72949 14.5527 3.79339 14.6044 3.84728C14.656 3.90116 14.7176 3.94395 14.7856 3.97315C14.8535 4.00236 14.9264 4.0174 15 4.0174C15.0736 4.0174 15.1465 4.00236 15.2144 3.97315C15.2824 3.94395 15.344 3.90116 15.3956 3.84728C15.4473 3.79339 15.4881 3.72949 15.5155 3.65928C15.543 3.58906 15.5566 3.51394 15.5556 3.43828V2.5818H18.3333C18.6507 2.5818 18.8889 2.82658 18.8889 3.15279V4.86575H1.11111V3.15279C1.11111 2.82658 1.34928 2.5818 1.66667 2.5818ZM1.11111 6.00772H18.8889V14.287C18.8889 14.6132 18.6507 14.858 18.3333 14.858H1.66667C1.34928 14.858 1.11111 14.6132 1.11111 14.287V6.00772ZM6.66667 7.72068C6.205 7.72068 5.83333 8.10267 5.83333 8.57716C5.83333 9.05165 6.205 9.43365 6.66667 9.43365C7.12833 9.43365 7.5 9.05165 7.5 8.57716C7.5 8.10267 7.12833 7.72068 6.66667 7.72068ZM10 7.72068C9.53833 7.72068 9.16667 8.10267 9.16667 8.57716C9.16667 9.05165 9.53833 9.43365 10 9.43365C10.4617 9.43365 10.8333 9.05165 10.8333 8.57716C10.8333 8.10267 10.4617 7.72068 10 7.72068ZM13.3333 7.72068C12.8717 7.72068 12.5 8.10267 12.5 8.57716C12.5 9.05165 12.8717 9.43365 13.3333 9.43365C13.795 9.43365 14.1667 9.05165 14.1667 8.57716C14.1667 8.10267 13.795 7.72068 13.3333 7.72068ZM16.6667 7.72068C16.205 7.72068 15.8333 8.10267 15.8333 8.57716C15.8333 9.05165 16.205 9.43365 16.6667 9.43365C17.1283 9.43365 17.5 9.05165 17.5 8.57716C17.5 8.10267 17.1283 7.72068 16.6667 7.72068ZM3.33333 11.4321C2.87167 11.4321 2.5 11.8141 2.5 12.2886C2.5 12.7631 2.87167 13.1451 3.33333 13.1451C3.795 13.1451 4.16667 12.7631 4.16667 12.2886C4.16667 11.8141 3.795 11.4321 3.33333 11.4321ZM6.66667 11.4321C6.205 11.4321 5.83333 11.8141 5.83333 12.2886C5.83333 12.7631 6.205 13.1451 6.66667 13.1451C7.12833 13.1451 7.5 12.7631 7.5 12.2886C7.5 11.8141 7.12833 11.4321 6.66667 11.4321ZM10 11.4321C9.53833 11.4321 9.16667 11.8141 9.16667 12.2886C9.16667 12.7631 9.53833 13.1451 10 13.1451C10.4617 13.1451 10.8333 12.7631 10.8333 12.2886C10.8333 11.8141 10.4617 11.4321 10 11.4321ZM13.3333 11.4321C12.8717 11.4321 12.5 11.8141 12.5 12.2886C12.5 12.7631 12.8717 13.1451 13.3333 13.1451C13.795 13.1451 14.1667 12.7631 14.1667 12.2886C14.1667 11.8141 13.795 11.4321 13.3333 11.4321Z" fill="#2FBEAD"/>
</svg>
