<svg width="360" height="148" viewBox="0 0 360 148" fill="none" xmlns="http://www.w3.org/2000/svg">
<path d="M180 72.5003C293.82 70.5326 360 54.0002 360 54.0002V147.5H0V69.0002C0 69.0002 66.1804 74.4679 180 72.5003Z" fill="white"/>
<path d="M-218.485 33.8843C-202.538 38.1173 -186.414 41.5783 -170.209 44.6666C-56.8395 65.468 58.9261 72.8603 174.053 69.843C275.779 66.8612 377.55 54.4816 476.117 28.7371C488.23 25.498 502.784 21.4691 514.765 17.8129C530.57 13.145 545.869 6.91518 560.947 0.268311C546.198 7.705 531.085 14.5116 515.421 19.8184C470.562 35.4373 424.309 47.2845 377.674 56.3008C245.562 81.3175 109.669 84.0952 -23.898 70.5175C-89.5148 63.3115 -155.318 53.4965 -218.485 33.8843Z" fill="url(#paint0_linear_185_1160)"/>
<path d="M68.3683 77.2176C68.3683 77.2176 32.9066 75.9397 -23.898 70.5264C-89.6124 64.2522 -155.318 53.4965 -218.485 33.8843C-202.538 38.1173 -186.414 41.5783 -170.209 44.6666C-167.751 45.1192 -165.293 45.5629 -162.834 45.9977C-162.834 45.9977 -63.3089 63.9594 68.3683 77.2176Z" fill="url(#paint1_linear_185_1160)"/>
<path d="M67.0993 77.1554C-51.8611 65.4768 -129.645 52.9196 -169.224 44.844L-162.373 46.1042C-111.559 54.2863 -41.2474 65.9294 77.5532 77.5814L67.0993 77.1554Z" fill="url(#paint2_linear_185_1160)"/>
<path d="M459.513 37.2208C459.513 37.2208 421.709 48.154 377.674 56.3006C306.538 69.4612 234.425 76.7825 162.108 78.2823C162.108 78.2823 346.303 67.4024 459.513 37.2119V37.2208Z" fill="url(#paint3_linear_185_1160)"/>
<path d="M162.924 78.2734L153.109 78.4509C153.571 78.4243 208.813 75.1319 268.316 68.7158C323.23 62.7966 409.586 50.4169 468.041 34.8247L458.856 37.416C400.348 53.0171 323.328 63.5243 268.387 69.4523C208.867 75.8685 163.386 78.2557 162.924 78.2823V78.2734Z" fill="url(#paint4_linear_185_1160)"/>
<path d="M36.4385 81.1314C183.797 87.3345 332.415 75.8245 475.096 37.2212C457.596 43.167 439.848 48.394 421.984 53.1772C404.421 57.854 385.803 62.1492 367.93 65.7876C259.086 87.6096 146.835 92.242 36.4385 81.1402V81.1314Z" fill="url(#paint5_linear_185_1160)"/>
<path d="M59.5562 83.1277C59.5562 83.1277 166.66 95.7736 311.099 75.5757C311.099 75.5757 167.912 89.5084 59.5562 83.1277Z" fill="url(#paint6_linear_185_1160)"/>
<path d="M69.1759 83.9175C87.2973 84.8671 105.685 85.2664 124.498 85.2664C156.428 85.2664 187.861 84.166 213.703 82.8792C268.316 80.1548 308.978 75.8774 309.395 75.833L312.368 75.3893C310.806 75.2029 268.254 79.4182 213.659 82.1426C170.414 84.2991 106.546 86.0917 55.8467 82.9058L69.1759 83.9175Z" fill="url(#paint7_linear_185_1160)"/>
<defs>
<linearGradient id="paint0_linear_185_1160" x1="-113.777" y1="-147.471" x2="456.238" y2="181.624" gradientUnits="userSpaceOnUse">
<stop stop-color="#EDE7DA"/>
<stop offset="0.11" stop-color="#EBE4D6"/>
<stop offset="0.23" stop-color="#F0DE9A"/>
<stop offset="0.29" stop-color="#F2DE96"/>
<stop offset="0.3" stop-color="#CCB77F"/>
<stop offset="0.32" stop-color="#E1D3A8"/>
<stop offset="0.42" stop-color="#E3D5AA"/>
<stop offset="0.65" stop-color="#F7F3E7"/>
<stop offset="0.75" stop-color="#D9C9A9"/>
<stop offset="0.88" stop-color="#F0E3C0"/>
<stop offset="1" stop-color="white"/>
</linearGradient>
<linearGradient id="paint1_linear_185_1160" x1="68.537" y1="82.6309" x2="-190.478" y2="41.0725" gradientUnits="userSpaceOnUse">
<stop stop-color="#C6B994"/>
<stop offset="0.24" stop-color="#C5B68E"/>
<stop offset="0.33" stop-color="#BDAA75"/>
<stop offset="0.41" stop-color="#DAC887"/>
<stop offset="0.62" stop-color="#E0D3A7"/>
<stop offset="1" stop-color="#EAE3D6"/>
</linearGradient>
<linearGradient id="paint2_linear_185_1160" x1="76.9409" y1="81.3885" x2="-168.763" y2="41.9687" gradientUnits="userSpaceOnUse">
<stop offset="0.02" stop-color="#DDD3B3"/>
<stop offset="0.06" stop-color="#E3DABE"/>
<stop offset="0.15" stop-color="#EDE7D1"/>
<stop offset="0.25" stop-color="#F3EEDC"/>
<stop offset="0.35" stop-color="#F5F1E0"/>
<stop offset="0.65" stop-color="#F4EFDD"/>
<stop offset="0.86" stop-color="#F1EAD3"/>
<stop offset="0.99" stop-color="#EEE6CA"/>
</linearGradient>
<linearGradient id="paint3_linear_185_1160" x1="162.108" y1="57.756" x2="459.513" y2="57.756" gradientUnits="userSpaceOnUse">
<stop stop-color="#E6E0D0"/>
<stop offset="0.25" stop-color="#E6E2D7"/>
<stop offset="0.41" stop-color="#D7CDB7"/>
<stop offset="0.5" stop-color="#CFC1A3"/>
<stop offset="0.75" stop-color="#D6C8A9"/>
<stop offset="0.76" stop-color="#D6C8A9"/>
<stop offset="1" stop-color="#DDD0B0"/>
</linearGradient>
<linearGradient id="paint4_linear_185_1160" x1="153.109" y1="56.6289" x2="468.041" y2="56.6289" gradientUnits="userSpaceOnUse">
<stop offset="0.01" stop-color="#FAF4E3"/>
<stop offset="0.13" stop-color="#F7F2E1"/>
<stop offset="0.65" stop-color="#F5F1E0"/>
<stop offset="0.82" stop-color="#F4EEDC"/>
<stop offset="0.98" stop-color="#F2E8D1"/>
</linearGradient>
<linearGradient id="paint5_linear_185_1160" x1="36.4385" y1="62.0871" x2="475.096" y2="62.0871" gradientUnits="userSpaceOnUse">
<stop stop-color="white"/>
<stop offset="0.12" stop-color="#FFF6E7"/>
<stop offset="0.26" stop-color="#DECE8D"/>
<stop offset="0.36" stop-color="#F3E1BA"/>
<stop offset="0.47" stop-color="#FFFBEE"/>
<stop offset="0.57" stop-color="#E9D8BF"/>
<stop offset="0.65" stop-color="#E9DBAE"/>
<stop offset="0.74" stop-color="#F9E9C7"/>
<stop offset="0.89" stop-color="#F0E5D2"/>
<stop offset="0.99" stop-color="#F4E3D7"/>
</linearGradient>
<linearGradient id="paint6_linear_185_1160" x1="61.8546" y1="81.3085" x2="313.397" y2="81.3085" gradientUnits="userSpaceOnUse">
<stop stop-color="#F0E6CC"/>
<stop offset="0.51" stop-color="#D1C392"/>
<stop offset="0.58" stop-color="#E0D4B2"/>
<stop offset="0.64" stop-color="#EAE1C9"/>
<stop offset="0.7" stop-color="#F0E9D7"/>
<stop offset="0.75" stop-color="#F3ECDC"/>
<stop offset="1" stop-color="#F4ECDA"/>
</linearGradient>
<linearGradient id="paint7_linear_185_1160" x1="55.8467" y1="80.3323" x2="312.377" y2="80.3323" gradientUnits="userSpaceOnUse">
<stop offset="0.01" stop-color="#FAF4E3"/>
<stop offset="0.13" stop-color="#F7F2E1"/>
<stop offset="0.65" stop-color="#F5F1E0"/>
<stop offset="0.82" stop-color="#F4EEDC"/>
<stop offset="0.98" stop-color="#F2E8D1"/>
</linearGradient>
</defs>
</svg>
