<svg width="341" height="73" viewBox="0 0 341 73" fill="none" xmlns="http://www.w3.org/2000/svg">
<path d="M130.757 38.4202L128.346 31.5366L130.352 30.0817L126.972 27.6363L117.84 1.56303L113.676 3.94111C113.676 3.94111 106.366 24.7936 105.601 26.7621C104.835 28.7306 104.158 28.9813 102.544 29.9655C102.926 30.0468 103.268 30.2505 103.515 30.5435C103.762 30.8365 103.9 31.2016 103.905 31.5794C103.138 34.1755 102.143 36.7034 100.93 39.1355C98.8861 43.2375 94.3864 44.2218 94.3864 44.2218V45.3711H108.233V44.0567H106.284C102.266 44.0567 101.987 40.2481 102.455 39.215C102.455 39.215 104.987 32.7287 105.259 32.1541C105.531 31.5794 106.79 31.2554 106.79 31.2554H118.53L121.403 39.1477C122.764 44.234 117.682 44.1423 117.682 44.1423V45.365H136.548V44.1423C132.542 44.1667 130.757 38.4202 130.757 38.4202ZM102.671 44.0812H97.6456C99.1306 43.4383 100.376 42.3716 101.215 41.0245C101.21 41.606 101.339 42.1813 101.59 42.7095C101.842 43.2378 102.211 43.7061 102.671 44.0812ZM129.251 30.0817L128.118 30.907L124.074 33.8352L122.011 32.3375L119.416 30.4546L118.897 30.0817L119.214 29.8555L120.789 28.7062L124.074 26.3281L127.339 28.6939L129.251 30.0817ZM113.872 8.13485L120.581 28.0704L118.992 29.2197L112.784 11.0387L113.872 8.13485ZM108.151 29.8004C105.62 29.8004 106.885 27.5813 106.885 27.5813L111.898 13.4657L112.404 13.0561L117.758 29.8004H108.151ZM120.935 44.3318C123.669 42.8524 122.523 39.5267 122.523 39.5267L119.796 31.5061L122.384 33.3829L124.34 39.2088C125.871 43.5371 127.504 44.0995 128.612 44.3318H120.935ZM249.766 38.2185L247.355 31.341L249.361 29.8799L245.988 27.4346L236.875 1.38574L232.711 3.76994C232.711 3.76994 225.401 24.6164 224.642 26.591C223.882 28.5656 223.193 28.804 221.579 29.7882C221.966 29.8717 222.311 30.0802 222.559 30.3793C222.806 30.6783 222.94 31.0499 222.939 31.4327C222.174 34.027 221.178 36.5529 219.965 38.9827C217.927 43.0908 213.421 44.0751 213.421 44.0751V45.2243H227.275V43.91H225.294C221.275 43.91 220.997 40.1014 221.497 39.0682C221.497 39.0682 224.028 32.582 224.3 32.0074C224.572 31.4327 225.825 31.1026 225.825 31.1026H237.508L240.381 39.001C241.742 44.0873 236.654 43.9895 236.654 43.9895V45.2121H255.544V43.9895C251.551 43.9895 249.766 38.2429 249.766 38.2429V38.2185ZM221.686 43.91H216.624C218.108 43.2671 219.354 42.2004 220.193 40.8533C220.195 41.4374 220.33 42.014 220.588 42.5422C220.846 43.0704 221.221 43.5373 221.686 43.91ZM248.267 29.9044L247.127 30.7297L243.09 33.658L241.033 32.1908L238.432 30.3079L237.919 29.9349L238.229 29.7087L239.812 28.5656L243.096 26.1875L246.368 28.5228L248.267 29.9044ZM232.888 7.95756L239.596 27.9114L238.014 29.0546L231.812 10.8675L232.888 7.95756ZM227.154 29.6293C224.623 29.6293 225.889 27.4101 225.889 27.4101L230.901 13.2884L231.413 12.8788L236.767 29.6293H227.154ZM239.944 44.1606C242.678 42.6812 241.527 39.3494 241.527 39.3494L238.774 31.3349L241.362 33.2117L243.324 39.0316C244.855 43.3659 246.488 43.9222 247.589 44.1606H239.944ZM177.26 33.8352C173.943 45.958 165.659 45.7623 163.811 45.689C158.47 45.689 148.445 41.2568 147.445 27.5507L149.793 25.8451L147.37 24.0967C147.705 7.73748 154.78 4.68082 161.723 4.68082C171.956 4.68082 174.969 12.7198 175.696 15.4158C175.899 16.1861 177.032 15.8009 177.019 15.2691C176.849 11.8107 176.317 8.37785 175.431 5.02317C172.159 4.02058 161.957 3.64156 161.957 3.64156C145.37 3.64156 138.674 17.0909 138.674 24.812L137.256 25.839L138.744 26.9211C139.851 44.1178 154.565 46.6977 163.387 46.6977C167.928 46.6081 172.421 45.7814 176.677 44.2523L178.354 34.0859C178.462 32.9121 177.5 32.9916 177.266 33.8352H177.26ZM138.351 25.8451L138.693 25.6006L139.959 24.6836L142.186 23.0697L143.534 22.0977L147.37 24.8548L148.705 25.8207L147.401 26.7682L143.528 29.5743L142.357 28.7306L140.047 27.0678L138.706 26.0774L138.351 25.8451ZM148.907 8.80731C146.091 11.5889 142.971 15.2263 142.275 22.2566L140.016 23.895C140.509 14.4621 147.572 9.32694 148.907 8.80731ZM140.123 27.9114L142.515 29.6415C143.781 36.4151 148.129 41.5502 155.255 44.992C150.755 43.6532 141.49 39.4595 140.123 27.9114ZM211.206 3.45816H180.683V4.44851C186.328 4.44851 186.379 8.07983 186.379 8.07983V23.5098L184.348 25.0015L186.404 26.4931V39.8874C186.404 44.5152 180.709 44.02 180.709 44.02V45.3405H200.372V44.1851C194.562 44.1851 194.904 40.3826 194.904 40.3826V26.4626L196.923 25.0015L194.904 23.5404V4.87033L198.663 4.70527C202.852 4.79086 206.029 5.96462 208.156 7.57853C210.594 9.42881 212.326 12.0094 213.079 14.9145L214.193 14.7128L211.206 3.45816ZM185.746 4.52799L188.911 4.61357V21.7309L187.341 22.8679V8.01258C187.322 5.69563 186.689 5.36551 185.746 4.54021V4.52799ZM194.878 25.6556L190.626 28.7123L188.892 27.4529L187.322 26.3159L186.411 25.6556L185.449 24.9587L186.411 24.2557L187.322 23.6321L188.892 22.4889L190.626 21.2357L194.878 24.2923L195.802 24.9648L194.878 25.6556ZM188.892 44.2523H184.98C185.61 44.0022 186.16 43.5956 186.575 43.0738C186.989 42.552 187.254 41.9336 187.341 41.2813V27.1473L188.911 28.2905L188.892 44.2523ZM292.814 14.6211C292.814 14.6211 293.541 10.0544 287.694 5.65895C284.03 2.90796 275.79 3.45816 275.79 3.45816H257.184V4.44851C262.822 4.44851 262.911 8.07983 262.911 8.07983V24.3168L260.683 25.9307L262.911 27.5507V39.8874C262.911 44.5152 257.184 44.02 257.184 44.02V45.3405H276.847V44.1851C271.031 44.1851 271.372 40.3826 271.372 40.3826V27.3001L272.417 26.5482C275.688 26.7316 283.498 26.8294 287.801 23.9317C289.385 22.9171 290.676 21.5304 291.553 19.9018C292.429 18.2732 292.863 16.4561 292.814 14.6211ZM271.372 26.4748L266.942 29.6843L265.385 28.5533L263.81 27.4101L262.905 26.756L261.765 25.9307L262.905 25.1054L263.81 24.4513L265.385 23.3081L266.942 22.1771L272.119 25.9307L271.41 26.4442L271.372 26.4748ZM262.246 4.54021L265.411 4.6258V22.5195L263.816 23.6321V8.01258C263.816 5.69563 263.189 5.36551 262.246 4.54021ZM265.411 44.2768H261.474C262.105 44.0277 262.656 43.6214 263.07 43.0994C263.485 42.5774 263.749 41.9585 263.835 41.3057V28.2049L265.411 29.3481V44.2768ZM272.454 25.3744L271.391 24.6041V5.16989C271.391 5.16989 271.334 5.38385 275.094 5.21879C279.283 5.30438 283.03 9.00294 283.39 14.8534C283.536 17.262 282.846 21.5352 280.334 23.5465C278.517 24.9893 276.467 25.4661 272.436 25.3622L272.454 25.3744ZM279.372 25.1849C281.606 23.6566 284.251 22.1282 284.251 15.3058C284.251 8.4833 279.821 6.13579 278.91 5.57336C278.91 5.57336 286.643 6.11745 286.643 15.0123C286.624 21.9754 281.998 24.5308 279.353 25.1727L279.372 25.1849ZM337.5 44.6375C337.5 44.6375 331.361 46.0435 331.361 38.7137V27.7953L333.671 26.1202L331.361 24.4513V8.99071C331.328 8.41931 331.421 7.84759 331.636 7.31408C331.85 6.78057 332.181 6.29767 332.605 5.89793C333.029 5.49819 333.536 5.1909 334.094 4.99676C334.651 4.80263 335.245 4.72616 335.836 4.77252V3.54986L298.199 3.64767V5.48167H301.731C301.731 5.48167 305.268 4.98037 305.37 9.59593C305.42 11.8151 305.825 17.9712 305.427 24.6591L303.414 26.0774L305.186 27.3612C304.553 33.8047 303.098 40.3031 299.731 43.9222C299.63 44.124 295.054 43.9222 295.054 43.9222L292.453 54.0642H293.598C293.598 54.0642 296.51 46.0313 306.8 46.0313H328.317C328.317 46.0313 336.323 44.9248 339.443 54.2659C339.961 54.315 340.482 54.315 341 54.2659L337.5 44.6375ZM331.361 27.0005L327.374 29.8738L325.476 28.5228L324.273 27.6486L322.856 26.6215L322.178 26.1325L322.856 25.6434L324.273 24.6164L325.476 23.7421L327.374 22.385L331.336 25.2583L332.551 26.1325L331.361 27.0005ZM324.292 5.57336H327.134C325.476 5.67118 325.476 7.73748 325.476 8.23877V22.9413L324.273 23.8094L324.292 5.57336ZM319.698 44.1362H302.743L302.642 43.8366C305.237 39.4534 306.483 33.444 307.04 27.6302L309.16 26.0774L307.262 24.7081C307.755 16.6874 307.123 9.51646 307.123 7.98813C307.123 5.176 308.787 5.67729 308.787 5.67729H322.944C322.944 5.67729 322.881 15.6848 322.875 24.8548L321.103 26.1386L322.875 27.4224C322.875 33.0527 322.875 37.9678 322.919 39.435C323.02 43.4331 319.698 44.1362 319.698 44.1362ZM322.324 44.1729C324.292 43.4331 324.292 39.9486 324.292 39.9486V28.4311L325.495 29.3053V39.7346C325.495 43.1153 327.899 44.1729 327.899 44.1729C327.899 44.1729 322.432 44.0689 322.311 44.1729H322.324Z" fill="white"/>
<path d="M123.752 67.941H122.062V60.226L119.619 65.2328H118.353L115.935 60.226V67.941H114.334V58.123H116.398L119.075 63.57L121.657 58.123H123.758L123.752 67.941Z" fill="white"/>
<path d="M132.878 68.1674C132.185 68.2106 131.49 68.1156 130.837 67.8884C130.184 67.6613 129.586 67.3068 129.081 66.8469C128.609 66.3381 128.247 65.7434 128.017 65.0978C127.787 64.4522 127.692 63.7686 127.739 63.0872C127.653 61.7077 128.105 60.347 129.005 59.2725C129.434 58.8041 129.967 58.4346 130.564 58.1913C131.161 57.948 131.807 57.837 132.454 57.8665C133.025 57.8575 133.594 57.9486 134.131 58.1355C134.614 58.3105 135.048 58.5932 135.397 58.9607C135.778 59.3471 136.07 59.8077 136.251 60.3118C136.462 60.9538 136.561 61.6253 136.543 62.2986V63.1973H129.498C129.432 64.1483 129.753 65.0867 130.391 65.8138C130.713 66.1246 131.099 66.3663 131.524 66.5233C131.95 66.6802 132.404 66.7488 132.859 66.7247C133.232 66.7249 133.604 66.6818 133.967 66.5963C134.302 66.5245 134.628 66.4201 134.941 66.2845C135.21 66.1681 135.472 66.0375 135.726 65.8933C135.91 65.785 136.085 65.6645 136.251 65.5326H136.353V67.336L135.619 67.6478C135.321 67.7639 135.055 67.8495 134.821 67.9168C134.486 68.0023 134.188 68.0696 133.916 68.1185C133.572 68.1615 133.225 68.1779 132.878 68.1674ZM134.878 61.9379C134.876 61.5495 134.821 61.163 134.713 60.7886C134.633 60.4912 134.491 60.2126 134.296 59.9694C134.093 59.7231 133.83 59.5298 133.53 59.407C133.159 59.2679 132.763 59.2014 132.365 59.2114C131.969 59.2007 131.575 59.2694 131.207 59.4131C130.882 59.5484 130.588 59.7436 130.34 59.9878C130.091 60.234 129.893 60.5247 129.758 60.8436C129.615 61.1937 129.527 61.5626 129.498 61.9379H134.878Z" fill="white"/>
<path d="M149.225 70.2947H147.643V67.9166H140.934V70.2947H139.345V66.535H140.048C140.706 65.4174 141.184 64.2094 141.466 62.9526C141.846 61.3693 142.03 59.7482 142.016 58.123H148.25V66.535H149.257L149.225 70.2947ZM146.504 66.535V59.5108H143.592C143.529 60.8654 143.317 62.2098 142.959 63.5211C142.691 64.5799 142.265 65.5952 141.693 66.535H146.504Z" fill="white"/>
<path d="M161.173 67.941H159.477V60.6051L154.692 67.941H153.141V58.123H154.838V65.3307L159.572 58.123H161.173V67.941Z" fill="white"/>
<path d="M174.856 70.2947H173.261V67.941H165.881V58.123H167.59V66.5166H172.134V58.123H173.843V66.5166H174.856V70.2947Z" fill="white"/>
<path d="M186.798 67.941H185.108V60.6051L180.317 67.941H178.772V58.123H180.462V65.3307L185.197 58.123H186.798V67.941Z" fill="white"/>
<path d="M199.537 67.941H197.822V63.5211H193.208V67.941H191.493V58.123H193.208V62.0967H197.809V58.123H199.537V67.941Z" fill="white"/>
<path d="M208.277 68.1613C207.63 68.1662 206.987 68.0606 206.378 67.8495C205.807 67.6493 205.292 67.3251 204.871 66.9019C204.432 66.4436 204.1 65.8995 203.897 65.3064C203.655 64.5757 203.539 63.8114 203.555 63.0444C203.538 62.2859 203.66 61.5305 203.916 60.8131C204.124 60.2301 204.449 59.6922 204.871 59.2297C205.286 58.7932 205.8 58.4544 206.371 58.2394C206.977 58.0122 207.621 57.8961 208.27 57.897C208.817 57.8945 209.361 57.9708 209.884 58.1232C210.361 58.2608 210.824 58.4367 211.27 58.649V60.483H211.175C211.049 60.379 210.897 60.269 210.707 60.1406C210.485 59.9922 210.252 59.8594 210.011 59.7433C209.74 59.6155 209.459 59.5112 209.169 59.4315C208.868 59.3486 208.557 59.3055 208.245 59.3031C207.833 59.2956 207.425 59.3832 207.055 59.5587C206.685 59.7341 206.364 59.9923 206.118 60.3118C205.531 61.1102 205.245 62.0791 205.308 63.0567C205.248 64.0199 205.522 64.9749 206.087 65.771C206.34 66.0893 206.669 66.3438 207.046 66.5131C207.423 66.6823 207.836 66.7612 208.251 66.743C208.8 66.743 209.342 66.6283 209.84 66.4068C210.334 66.1934 210.787 65.9021 211.182 65.5448H211.277V67.3788C211.112 67.4582 210.897 67.5499 210.644 67.66C210.418 67.7571 210.186 67.8368 209.947 67.8984C209.692 67.9752 209.432 68.0384 209.169 68.0879C208.874 68.1386 208.576 68.1632 208.277 68.1613Z" fill="white"/>
<path d="M223.251 67.941H221.124L217.637 63.4172H216.782V67.941H215.073V58.123H216.782V62.4024C217.168 62.4061 217.548 62.3179 217.89 62.1456C218.261 61.9007 218.54 61.5471 218.687 61.1369L218.909 60.6295C218.991 60.4339 219.055 60.2627 219.105 60.116C219.292 59.5035 219.681 58.9668 220.213 58.5877C220.77 58.2675 221.413 58.1124 222.061 58.1414H222.523V59.5658H222.137C221.752 59.5361 221.369 59.6378 221.055 59.8531C220.747 60.1353 220.527 60.4954 220.422 60.8924C220.294 61.3299 220.091 61.7433 219.82 62.115C219.61 62.3779 219.35 62.5998 219.055 62.7692L223.251 67.941Z" fill="white"/>
<path d="M234.617 67.941H232.92V60.6051L228.136 67.941H226.585V58.123H228.281V65.3307L233.015 58.123H234.617V67.941Z" fill="white"/>
<path d="M247.35 67.9415H245.66V60.6055L240.869 67.9415H239.324V58.1235H241.014V65.3311L245.736 58.1235H247.337L247.35 67.9415ZM246.584 53.5874C246.589 54.0523 246.525 54.5154 246.394 54.9629C246.283 55.3398 246.098 55.6926 245.85 56.0022C245.598 56.299 245.28 56.5372 244.919 56.6991C244.5 56.8722 244.046 56.9536 243.59 56.9375C243.143 56.9445 242.699 56.8612 242.286 56.693C241.92 56.5379 241.597 56.3012 241.343 56.0022C241.085 55.6911 240.894 55.3337 240.78 54.9507C240.649 54.5075 240.585 54.0483 240.59 53.5874H242.065C242.017 54.1795 242.149 54.7722 242.445 55.293C242.582 55.4554 242.754 55.5862 242.95 55.6761C243.146 55.7659 243.361 55.8126 243.577 55.8126C243.794 55.8126 244.009 55.7659 244.205 55.6761C244.4 55.5862 244.573 55.4554 244.71 55.293C245.017 54.7762 245.154 54.1812 245.103 53.5874H246.584Z" fill="white"/>
<path d="M269.095 70.2947H267.5V67.941H260.12V58.123H261.829V66.5166H266.373V58.123H268.082V66.5166H269.095V70.2947Z" fill="white"/>
<path d="M277.423 68.1679C276.73 68.2111 276.035 68.1161 275.382 67.889C274.728 67.6618 274.13 67.3073 273.625 66.8474C273.155 66.3378 272.794 65.7431 272.564 65.0976C272.333 64.4522 272.238 63.769 272.283 63.0877C272.209 61.7035 272.674 60.3425 273.587 59.273C274.01 58.8067 274.535 58.4369 275.124 58.1906C275.713 57.9442 276.351 57.8274 276.992 57.8486C277.561 57.8401 278.127 57.9313 278.663 58.1176C279.148 58.2888 279.583 58.5721 279.929 58.9429C280.308 59.3378 280.595 59.8069 280.771 60.3184C280.978 60.9611 281.077 61.6321 281.062 62.3052V63.2039H274.049C273.983 64.1549 274.303 65.0934 274.942 65.8204C275.26 66.1273 275.641 66.3668 276.061 66.5236C276.48 66.6804 276.929 66.7511 277.378 66.7313C277.751 66.7319 278.123 66.6888 278.486 66.6029C278.823 66.5313 279.152 66.4269 279.467 66.2911C279.734 66.1761 279.994 66.0455 280.245 65.8999C280.432 65.7931 280.61 65.6725 280.777 65.5392H280.878V67.3426L280.131 67.6299C279.868 67.7329 279.6 67.8227 279.328 67.8989C278.992 67.9845 278.695 68.0518 278.423 68.1007C278.091 68.1479 277.757 68.1704 277.423 68.1679ZM279.429 61.9385C279.424 61.5502 279.369 61.1641 279.264 60.7891C279.178 60.4936 279.037 60.2159 278.847 59.97C278.642 59.7234 278.376 59.5301 278.074 59.4075C277.324 59.1425 276.502 59.1425 275.752 59.4075C275.427 59.5428 275.132 59.738 274.885 59.9822C274.637 60.23 274.44 60.5203 274.302 60.8381C274.162 61.1885 274.076 61.5574 274.049 61.9323L279.429 61.9385Z" fill="white"/>
<path d="M293.08 67.941H291.372V63.5211H286.77V67.941H285.055V58.123H286.77V62.0967H291.372V58.123H293.08V67.941Z" fill="white"/>
<path d="M305.225 59.5719H301.763V67.941H300.054V59.5719H296.598V58.123H305.225V59.5719Z" fill="white"/>
<path d="M317.25 62.7573C317.325 64.1561 316.896 65.5368 316.035 66.6637C315.676 67.1212 315.212 67.4911 314.679 67.7438C314.146 67.9965 313.559 68.1249 312.965 68.1187C312.514 68.1233 312.064 68.0657 311.63 67.9475C311.21 67.8239 310.808 67.6493 310.433 67.4279V71.5421H308.725V58.0928H310.433V59.1199C310.861 58.7516 311.337 58.4411 311.851 58.1968C312.378 57.9431 312.959 57.8132 313.547 57.8177C314.082 57.7999 314.613 57.9134 315.09 58.1475C315.567 58.3817 315.975 58.7288 316.275 59.1566C316.98 60.2298 317.32 61.4884 317.25 62.7573ZM315.484 62.9407C315.533 62.0395 315.343 61.1411 314.933 60.3303C314.755 60.0265 314.49 59.7782 314.171 59.6147C313.851 59.4512 313.49 59.3792 313.13 59.4072C312.643 59.4071 312.162 59.5137 311.725 59.719C311.271 59.9361 310.846 60.2049 310.459 60.5198V66.0829C310.827 66.2643 311.213 66.4097 311.611 66.517C311.972 66.5969 312.341 66.6359 312.712 66.6331C313.109 66.6497 313.504 66.5727 313.864 66.4087C314.223 66.2446 314.536 65.9986 314.775 65.6917C315.306 64.8767 315.552 63.919 315.478 62.959L315.484 62.9407Z" fill="white"/>
<g opacity="0.95">
<path d="M39.0829 23.9499C38.687 23.7094 38.6104 23.397 38.1336 23.2676C38.0655 23.3149 37.991 23.3683 37.9016 23.4278C37.7782 23.7238 38.2911 23.9561 39.0829 23.9499Z" stroke="white" stroke-opacity="0.77" stroke-miterlimit="10"/>
<path d="M46.7751 12.8838C46.3494 12.9742 45.7109 13.12 45.0596 13.307C44.8596 13.9971 43.6613 17.8258 40.8859 20.9068L41.6309 20.8021C42.2247 20.7117 42.8462 21.3854 43.3335 21.8579C45.2874 19.9127 46.3133 17.5095 46.8155 15.8642L46.7751 12.8838Z" stroke="white" stroke-opacity="0.77" stroke-miterlimit="10"/>
<path d="M37.9018 23.4273C37.9912 23.3678 38.0657 23.3143 38.1338 23.267C38.0482 23.2433 37.9606 23.2274 37.872 23.2197C37.1824 23.1499 35.8117 23.4766 34.9391 24.1302C35.3775 24.1207 35.8151 24.0898 36.2502 24.0377C36.8457 23.9739 37.4143 23.7638 37.9018 23.4273Z" stroke="white" stroke-opacity="0.77" stroke-miterlimit="10"/>
<path d="M37.227 21.3193C38.4849 21.2145 39.9471 21.0358 40.8857 20.9085C43.6526 17.8274 44.8593 14.0008 45.0594 13.3086C44.7018 13.4133 44.3443 13.5304 44.0293 13.6578C43.5517 13.8237 43.0469 13.9044 42.5394 13.896C40.941 17.1003 35.8735 20.8017 33.0916 22.7098C32.8867 22.8503 32.6735 22.9792 32.4532 23.096C32.3935 23.1646 32.3551 23.248 32.3424 23.3366C32.3296 23.4252 32.3429 23.5156 32.3808 23.5972C33.4429 21.952 35.9458 21.4241 37.227 21.3193Z" stroke="white" stroke-opacity="0.77" stroke-miterlimit="10"/>
<path d="M42.5458 13.8942C41.6668 13.8942 40.6494 13.7032 39.8811 13.1445C39.532 13.5553 38.7637 14.4406 37.4824 15.7264C35.6499 17.5751 30.2461 21.3134 26.8257 22.4452C26.5874 22.704 26.613 22.784 27.2132 22.9607C27.9049 23.1661 29.9097 24.4396 32.4553 23.0942C32.6756 22.9774 32.8888 22.8485 33.0938 22.708C35.8798 20.7999 40.9474 17.0985 42.5458 13.8942Z" stroke="white" stroke-opacity="0.77" stroke-miterlimit="10"/>
<path d="M37.4825 15.7267C38.7595 14.4409 39.5321 13.5597 39.8811 13.1449C39.3871 12.7857 39.0277 12.2809 38.8574 11.707C38.585 11.9782 38.1167 12.1363 36.8482 12.9107C32.0488 15.8706 26.2725 19.0193 22.5883 20.716C22.0293 20.9783 21.4378 21.1702 20.8281 21.287C20.6919 21.476 20.6791 21.6875 21.075 21.8395C21.8242 22.1292 23.3971 23.5772 26.8088 22.4557L26.8344 22.4455C30.2397 21.3137 35.65 17.5671 37.4825 15.7267Z" stroke="white" stroke-opacity="0.77" stroke-miterlimit="10"/>
<path d="M36.8478 12.9101C38.1248 12.1358 38.5845 11.9776 38.857 11.7064C38.7659 11.4052 38.7158 11.0938 38.708 10.7801C38.7015 10.4669 38.7271 10.1539 38.7847 9.84549C37.3395 9.12868 31.5844 13.1505 28.4132 14.7053C25.3313 16.2171 19.1208 19.2037 16.5093 19.8301C16.3496 20.0931 15.9814 20.3519 16.8498 20.6907C17.6842 21.0153 18.9781 21.6274 20.8192 21.2864C21.4288 21.1696 22.0204 20.9777 22.5793 20.7154C26.272 19.0188 32.0484 15.87 36.8478 12.9101Z" stroke="white" stroke-opacity="0.77" stroke-miterlimit="10"/>
<path d="M38.7848 9.84568C38.9742 8.80422 39.4829 7.95389 39.8916 7.17542L39.7532 7.12201C38.2932 6.56331 34.7686 8.21472 30.9908 10.3057C27.2129 12.3968 15.0047 17.5277 11.6526 17.9652C11.2601 18.0157 10.8651 18.0445 10.4692 18.0515C10.2563 18.2569 10.1904 18.5095 10.6011 18.7232C11.2737 19.0724 13.8065 20.3438 16.2115 19.896L16.5095 19.8303C19.121 19.2038 25.3315 16.2172 28.4133 14.7055C31.5846 13.1506 37.3397 9.12879 38.7848 9.84568Z" stroke="white" stroke-opacity="0.77" stroke-miterlimit="10"/>
<path d="M30.9909 10.3111C34.7688 8.2201 38.2933 6.56868 39.7533 7.12737L39.8917 7.18078C40.1006 6.81027 40.2676 6.41912 40.3897 6.01409C39.3468 3.75466 35.1752 6.01409 24.7186 10.3933C17.0566 13.6058 8.41971 15.323 6.79576 15.6043C6.21958 15.7057 5.63205 15.7334 5.04838 15.6865C4.92707 15.9083 4.82065 16.0973 5.61027 16.5307C6.4914 17.0216 7.89186 18.0856 10.4693 18.0527C10.8651 18.0458 11.2602 18.0169 11.6527 17.9665C15.0048 17.529 27.213 12.4001 30.9909 10.3111Z" stroke="white" stroke-opacity="0.77" stroke-miterlimit="10"/>
<path d="M6.79644 15.6039C8.42034 15.3164 17.053 13.6054 24.7193 10.3929C35.1759 6.00963 39.3475 3.75635 40.3904 6.01373C40.4825 5.69263 40.4898 5.35438 40.4116 5.02985C40.4116 5.02985 39.2517 0.490455 32.4304 4.2596C19.192 11.5719 4.76174 13.7225 1.46918 14.1354C1.65009 14.5297 3.05267 15.5239 5.04907 15.6861C5.63274 15.733 6.22027 15.7054 6.79644 15.6039Z" stroke="white" stroke-opacity="0.77" stroke-miterlimit="10"/>
<path d="M40.411 5.02893C40.4892 5.35346 40.4819 5.69171 40.3898 6.01281C40.2676 6.41784 40.1007 6.809 39.8917 7.1795C39.483 7.95386 38.9744 8.80426 38.7849 9.84969C38.7275 10.1581 38.7018 10.4711 38.7084 10.7843C38.7162 11.0981 38.7663 11.4094 38.8573 11.7106C39.0276 12.2846 39.3869 12.7893 39.881 13.1485C40.6494 13.7072 41.6667 13.9024 42.5457 13.8982C43.0532 13.9066 43.558 13.8259 44.0356 13.66C44.3506 13.5326 44.7082 13.4155 45.0657 13.3108C45.7042 13.1238 46.3534 12.978 46.7812 12.8877V12.409C46.1427 12.5035 44.8912 12.7911 43.4652 13.167C42.0583 13.397 41.2964 13.1567 40.9112 12.7274C40.0599 11.7826 40.411 10.7288 40.8921 10.1106C41.1581 9.76964 42.3648 8.04425 42.4968 6.33324C42.5474 5.70857 42.4622 5.08059 42.2467 4.48953C42.0312 3.89848 41.6901 3.3574 41.2454 2.90096C39.7427 1.3132 36.7396 0.657967 33.6003 2.50659C23.0267 8.1552 16.0414 10.1578 6.4191 12.4707C4.64831 12.8958 2.19006 13.4977 1.12376 14.005C0.97903 14.0749 0.910924 14.194 1.20676 14.1611L1.46855 14.1283C4.76324 13.7175 19.1914 11.5648 32.4297 4.25251C39.251 0.489537 40.411 5.02893 40.411 5.02893Z" stroke="white" stroke-opacity="0.77" stroke-miterlimit="10"/>
<path d="M52.019 21.591C52.4447 21.1699 52.9258 20.7304 53.4025 20.8043C53.6791 20.8474 54.19 20.9214 54.8093 21.0097C51.9743 17.9102 50.7527 14.0261 50.5526 13.3194C49.8438 13.1141 49.1308 12.9559 48.7116 12.8696L48.6776 15.429C49.1032 17.0044 50.0652 19.5124 52.019 21.591Z" stroke="white" stroke-opacity="0.77" stroke-miterlimit="10"/>
<path d="M57.7087 23.4277C57.5831 23.3434 57.483 23.2673 57.3979 23.2221C57.2931 23.2137 57.1877 23.2137 57.0829 23.2221C56.404 23.29 56.355 23.6332 55.9655 23.9127C57.0595 24.0586 57.8662 23.7873 57.7087 23.4277Z" stroke="white" stroke-opacity="0.77" stroke-miterlimit="10"/>
<path d="M59.3594 24.04C59.5297 24.0605 59.7106 24.079 59.8958 24.0934C59.1606 23.5875 58.297 23.2842 57.3971 23.2158C57.4822 23.2693 57.5822 23.3453 57.7078 23.4214C58.1946 23.7604 58.7632 23.9733 59.3594 24.04Z" stroke="white" stroke-opacity="0.77" stroke-miterlimit="10"/>
<path d="M53.0639 13.896C52.5564 13.9044 52.0516 13.8237 51.574 13.6578C51.259 13.5304 50.9015 13.4133 50.5439 13.3086C50.7461 14.007 51.9678 17.8994 54.8006 20.9988C55.652 21.1118 56.7332 21.2392 57.6888 21.3193C59.0254 21.4323 61.7326 22.0259 62.6245 23.9587C63.165 23.8026 63.4353 23.5315 63.1459 23.096C62.9259 22.9787 62.7127 22.8498 62.5074 22.7098C59.7299 20.8016 54.6623 17.1003 53.0639 13.896Z" stroke="white" stroke-opacity="0.77" stroke-miterlimit="10"/>
<path d="M58.1278 15.7264C56.8508 14.4406 56.0782 13.5594 55.7292 13.1445C54.9608 13.7032 53.9435 13.8983 53.0645 13.8942C54.6628 17.0985 59.7305 20.7999 62.5122 22.7081C62.7175 22.848 62.9307 22.977 63.1507 23.0942C65.7048 24.4396 67.7012 23.162 68.3928 22.9607C69.0037 22.7841 69.0186 22.704 68.7802 22.4452C65.3706 21.3134 59.9603 17.5668 58.1278 15.7264Z" stroke="white" stroke-opacity="0.77" stroke-miterlimit="10"/>
<path d="M58.7617 12.9107C57.4847 12.1363 57.025 11.9782 56.7525 11.707C56.5823 12.2809 56.2229 12.7857 55.7288 13.1449C56.0779 13.5557 56.8461 14.4409 58.1275 15.7267C59.96 17.5754 65.3638 21.3137 68.7841 22.4455L68.8096 22.4557C72.215 23.5772 73.7943 22.1292 74.5456 21.8395C74.9393 21.6875 74.9265 21.476 74.7903 21.287C74.1807 21.1702 73.5891 20.9783 73.0302 20.716C69.3397 19.0193 63.5612 15.8706 58.7617 12.9107Z" stroke="white" stroke-opacity="0.77" stroke-miterlimit="10"/>
<path d="M56.8247 9.84549C56.8822 10.1539 56.9078 10.4669 56.9013 10.7801C56.8935 11.0938 56.8434 11.4052 56.7523 11.7064C57.0248 11.9776 57.493 12.1358 58.7615 12.9101C63.561 15.87 69.3394 19.0188 73.0215 20.7154C73.5804 20.9777 74.172 21.1696 74.7816 21.2864C76.6269 21.6274 77.9166 21.0153 78.751 20.6907C79.6194 20.3519 79.2532 20.0931 79.0915 19.8301C76.4822 19.2037 70.2716 16.2171 67.1876 14.7053C64.0249 13.1505 58.2699 9.12868 56.8247 9.84549Z" stroke="white" stroke-opacity="0.77" stroke-miterlimit="10"/>
<path d="M64.6192 10.3097C60.8414 8.21865 57.3168 6.56722 55.8567 7.12592L55.7184 7.17932C56.127 7.95368 56.6357 8.80403 56.8252 9.84954C58.2703 9.13273 64.0254 13.1545 67.1966 14.7094C70.2806 16.2211 76.4911 19.2077 79.1005 19.8342L79.3985 19.8999C81.8038 20.3477 84.3364 19.0783 85.0087 18.727C85.4198 18.5217 85.3473 18.2628 85.141 18.0554C84.745 18.0484 84.3499 18.0196 83.9572 17.9691C80.6096 17.5275 68.397 12.3986 64.6192 10.3097Z" stroke="white" stroke-opacity="0.77" stroke-miterlimit="10"/>
<path d="M88.8142 15.6041C87.1898 15.3165 78.5574 13.6055 70.8932 10.3931C60.4345 6.00975 56.2629 3.75648 55.22 6.01386C55.3422 6.41889 55.5091 6.81004 55.718 7.18055L55.8564 7.12714C57.3164 6.56844 60.841 8.21986 64.6188 10.3109C68.3967 12.4019 80.6095 17.5287 83.957 17.9662C84.3498 18.0167 84.7449 18.0455 85.1401 18.0525C87.718 18.0854 89.1201 17.0255 90.0012 16.5305C90.7891 16.093 90.6823 15.9142 90.5612 15.6863C89.9773 15.7331 89.3902 15.7055 88.8142 15.6041Z" stroke="white" stroke-opacity="0.77" stroke-miterlimit="10"/>
<path d="M55.1988 5.02985C55.1206 5.35438 55.128 5.69263 55.2201 6.01373C56.263 3.7543 60.4345 6.01373 70.8932 10.3929C78.5553 13.6054 87.1904 15.3226 88.814 15.6039C89.39 15.7053 89.9779 15.733 90.561 15.6861C92.5574 15.5239 93.9667 14.5297 94.1412 14.1354C90.8462 13.7246 76.4185 11.5719 63.1801 4.2596C56.3587 0.490455 55.1988 5.02985 55.1988 5.02985Z" stroke="white" stroke-opacity="0.77" stroke-miterlimit="10"/>
<path d="M94.4862 14.0099C93.4219 13.4964 90.9618 12.9007 89.1909 12.4755C79.5684 10.1627 72.5895 8.16212 62.0095 2.51147C58.8701 0.662852 55.867 1.31808 54.3645 2.90585C53.9234 3.36223 53.5853 3.90206 53.3718 4.49112C53.1581 5.08018 53.0737 5.70563 53.1236 6.32785C53.2555 8.03885 54.4624 9.76425 54.7284 10.1052C55.2094 10.7214 55.5606 11.7772 54.7093 12.722C54.324 13.1513 53.5621 13.3917 52.1552 13.1616C51.0235 12.8432 49.8746 12.5847 48.7137 12.3872V12.8555C49.1393 12.9418 49.846 13.1 50.5547 13.3054C50.9123 13.4102 51.2698 13.5272 51.5848 13.6545C52.0624 13.8204 52.5671 13.9012 53.0747 13.8928C53.9536 13.8928 54.971 13.7018 55.7393 13.1431C56.2335 12.7839 56.5928 12.2792 56.7631 11.7053C56.8541 11.404 56.9043 11.0927 56.9121 10.7789C56.9186 10.4657 56.8929 10.1527 56.8354 9.84431C56.6461 8.80293 56.1373 7.95258 55.7287 7.17411C55.5198 6.8036 55.3528 6.41246 55.2307 6.00743C55.1386 5.68633 55.1312 5.34807 55.2094 5.02354C55.2094 5.02354 56.3693 0.484151 63.1907 4.25328C76.4291 11.5656 90.8591 13.7161 94.1516 14.129L94.4137 14.1619C94.6886 14.1968 94.6304 14.0797 94.4862 14.0099Z" stroke="white" stroke-opacity="0.77" stroke-miterlimit="10"/>
<path d="M48.0112 66.9485C48.026 66.926 48.043 66.9013 48.0664 66.8705L48.0877 64.9147C47.9835 64.7544 47.8751 64.5942 47.7411 64.438C47.6156 64.6003 47.4986 64.7667 47.3966 64.929L47.4179 66.8315C47.4497 66.8808 47.4774 66.9198 47.4986 66.9485C47.4877 67.0086 47.4613 67.0651 47.4221 67.1129L47.4327 67.9881C47.5338 67.9709 47.6363 67.962 47.7389 67.9614C47.8439 67.9617 47.9484 67.9713 48.0515 67.9902L48.0622 67.0821C48.0375 67.0407 48.0202 66.9956 48.0112 66.9485Z" stroke="white" stroke-opacity="0.77" stroke-miterlimit="10"/>
<path d="M47.6702 36.0127C47.4604 36.0123 47.2514 35.9853 47.0488 35.9326L47.0722 37.8311L47.649 37.9338C47.915 37.8886 48.1661 37.8434 48.411 37.7982L48.4344 35.8936C48.1878 35.9722 47.9299 36.0124 47.6702 36.0127Z" stroke="white" stroke-opacity="0.77" stroke-miterlimit="10"/>
<path d="M47.6704 46.5525C47.5047 46.5518 47.3394 46.5353 47.1771 46.5031L47.1919 47.9023L47.6853 48.1344L48.2913 47.8406L48.3084 46.4683C48.1005 46.5235 47.8859 46.5518 47.6704 46.5525Z" stroke="white" stroke-opacity="0.77" stroke-miterlimit="10"/>
<path d="M47.6706 51.5535C47.7504 51.5541 47.83 51.559 47.9092 51.5679L47.6962 51.4668L47.5024 51.5617C47.5684 51.5576 47.6153 51.5535 47.6706 51.5535Z" stroke="white" stroke-opacity="0.77" stroke-miterlimit="10"/>
<path d="M47.3303 59.4065L47.3473 60.892C47.4537 60.8713 47.562 60.861 47.6705 60.8612C47.8281 60.8614 47.9848 60.8828 48.1362 60.9249L48.1533 59.4558C48.0205 59.3013 47.8785 59.1545 47.728 59.0161C47.5873 59.1383 47.4545 59.2687 47.3303 59.4065Z" stroke="white" stroke-opacity="0.77" stroke-miterlimit="10"/>
<path d="M47.6708 55.5223C47.541 55.5223 47.4114 55.5106 47.2838 55.4875L47.2966 56.5905C47.4369 56.6932 47.5773 56.7958 47.7218 56.9108C47.8771 56.7877 48.0345 56.6726 48.1939 56.5576L48.2067 55.4546C48.0319 55.4998 47.8517 55.5226 47.6708 55.5223Z" stroke="white" stroke-opacity="0.77" stroke-miterlimit="10"/>
<path d="M47.1218 41.9624C47.3016 41.9204 47.486 41.899 47.6709 41.8988C47.9053 41.8988 48.1383 41.9321 48.3627 41.9974L48.3755 40.9026C48.1477 40.8369 47.9115 40.7711 47.6604 40.7095C47.4688 40.7547 47.2858 40.804 47.1091 40.8512L47.1218 41.9624Z" stroke="white" stroke-opacity="0.77" stroke-miterlimit="10"/>
<path d="M47.6707 25.535C47.4177 25.5349 47.1662 25.496 46.9257 25.4199L46.9769 29.7898L47.6153 29.913L48.5007 29.7384L48.5539 25.3706C48.2727 25.4781 47.9732 25.5339 47.6707 25.535Z" stroke="white" stroke-opacity="0.77" stroke-miterlimit="10"/>
<path d="M46.811 15.8621L46.8727 21.0116C47.1291 20.9242 47.399 20.879 47.6709 20.8781C47.9942 20.8777 48.3142 20.9406 48.6116 21.063L48.6776 15.439L48.7095 12.8571V12.3888L48.7223 11.4234C49.4055 11.2468 49.8652 10.916 49.8652 10.5361C49.8535 10.4153 49.811 10.2993 49.7416 10.1982C49.6721 10.0972 49.5779 10.0143 49.4672 9.95686C48.8989 9.64292 48.2507 9.48923 47.5964 9.51317C46.9727 9.4939 46.3544 9.63122 45.8022 9.91167C45.5042 10.0842 45.3254 10.2999 45.3254 10.5279C45.3254 10.9592 45.9171 11.3269 46.7557 11.4768L46.7664 12.3971V12.8756L46.811 15.8621Z" stroke="white" stroke-opacity="0.77" stroke-miterlimit="10"/>
<path d="M57.6973 21.3192C56.7417 21.2391 55.669 21.1137 54.8091 20.9987C54.1898 20.9186 53.679 20.8447 53.4023 20.7934C52.9255 20.7194 52.436 21.1589 52.0188 21.58C51.8528 21.7464 51.6975 21.9107 51.5612 22.0381C50.6886 22.2106 50.2012 22.4489 50.3076 22.7631C50.4141 23.0774 50.3481 23.3506 50.4183 23.5231L50.5588 23.5581V23.9031C51.6081 24.2811 53.5981 24.3879 55.0283 24.2133C55.3625 24.1905 55.6847 24.0836 55.9627 23.9031C56.3522 23.6299 56.4011 23.2869 57.0801 23.213C57.1849 23.2045 57.2903 23.2045 57.3951 23.213C58.295 23.2813 59.1586 23.5844 59.8938 24.0901C60.3514 24.4269 60.6855 24.8521 60.726 25.3595C60.8408 26.8117 58.0208 27.8818 49.5159 29.5414L48.5049 29.7365L47.6195 29.9112C51.0419 30.5664 53.2618 31.0244 54.7282 31.5914C59.8363 30.2234 62.816 28.6356 62.9245 25.4991C62.9514 24.9699 62.8509 24.4419 62.6308 23.9565C61.7391 22.0257 59.0339 21.4321 57.6973 21.3192Z" stroke="white" stroke-opacity="0.77" stroke-miterlimit="10"/>
<path d="M47.6493 37.93L47.0726 37.8272C41.0663 36.7284 41.0429 35.7384 41.0429 35.7219C40.9003 35.1365 41.1068 34.6538 42.6371 34.0663C43.0329 33.939 44.0226 33.7172 45.2698 33.4502C45.3011 33.1415 45.3959 32.8419 45.5486 32.569C42.9797 32.0821 40.6981 31.6652 40.5619 31.6426C39.1189 32.2465 38.4676 32.9798 38.1015 34.1978C38.1015 34.6538 37.2693 38.0594 42.371 39.6348C43.19 39.8807 44.0286 40.0614 44.8782 40.175C45.8146 40.3024 46.7432 40.4786 47.6599 40.7029C47.9111 40.7645 48.1473 40.8303 48.3751 40.896C52.6616 42.149 52.5147 43.94 52.5147 43.94C52.5254 45.7537 50.6311 46.7089 48.2921 47.8427L47.6855 48.1364C48.8335 48.6527 49.9436 49.2443 51.0078 49.907C55.6732 47.5326 55.5923 45.0451 55.5881 44.3262C55.5881 43.4184 55.3752 41.3007 52.8936 39.6923C51.7953 38.9796 50.248 38.3654 48.075 38.0039C47.9302 37.9792 47.7813 37.9567 47.6493 37.93Z" stroke="white" stroke-opacity="0.77" stroke-miterlimit="10"/>
<path d="M47.7158 56.9218C47.5774 56.811 47.437 56.7041 47.2902 56.6014C45.8003 55.5025 44.2593 54.7528 44.1657 54.114C44.0934 53.7032 44.3381 53.2698 46.0472 52.3229C46.2221 52.1075 46.4414 51.9295 46.6913 51.8C46.9411 51.6707 47.2161 51.5927 47.4987 51.5711L47.6924 51.4766C46.9816 51.1377 46.1345 50.7557 45.1384 50.314C44.8744 50.199 44.6233 50.0819 44.385 49.9648C43.9506 50.2533 43.5342 50.5661 43.1377 50.9015C40.2602 53.4916 42.4396 55.8763 43.9465 56.6363C44.8166 57.067 45.6595 57.5471 46.4707 58.0742C46.9135 58.3608 47.3326 58.6801 47.7244 59.0293C47.875 59.1677 48.0171 59.3144 48.15 59.4689C48.4969 59.8797 48.714 60.2904 48.7162 60.6828C48.7153 60.8522 48.6989 61.0214 48.6672 61.188C48.8846 61.3404 49.0616 61.5402 49.1836 61.7712C49.3057 62.0022 49.3694 62.2577 49.3695 62.517C49.3695 62.5601 49.3695 62.6013 49.3695 62.6423C49.6122 62.2644 50.1272 61.8494 50.1208 60.9231C50.0916 59.8794 49.6816 58.8793 48.9631 58.0988C48.5874 57.6687 48.1698 57.2745 47.7158 56.9218Z" stroke="white" stroke-opacity="0.77" stroke-miterlimit="10"/>
<path d="M47.4981 66.9487C47.4769 66.92 47.4491 66.881 47.4173 66.8317C47.3492 66.731 47.2533 66.5831 47.1193 66.3674C46.883 65.9914 47.0575 65.4675 47.3959 64.9292C47.4981 64.767 47.6088 64.6005 47.7407 64.4382C47.6599 64.3355 47.5726 64.2328 47.4875 64.1342C47.3014 64.1155 47.12 64.0661 46.9512 63.9883C46.8235 64.163 46.7 64.3437 46.5829 64.5348C45.8934 65.6647 46.5617 66.5399 47.0086 66.9878C47.2215 67.1932 47.3449 67.1932 47.413 67.1152C47.4523 67.0674 47.4786 67.0109 47.4896 66.9508L47.4981 66.9487Z" stroke="white" stroke-opacity="0.77" stroke-miterlimit="10"/>
<path d="M46.9771 29.7891L45.6746 29.5426C36.9484 27.8829 34.041 26.8128 34.1474 25.3606C34.1836 24.8738 34.4986 24.461 34.9391 24.1282C35.8118 23.475 37.1824 23.1484 37.8721 23.2183C37.9607 23.2259 38.0483 23.2418 38.1339 23.2655C38.6106 23.3949 38.6872 23.7071 39.0831 23.9475C39.3579 24.1026 39.6658 24.1954 39.9834 24.2186C41.4519 24.3932 43.4909 24.2864 44.5658 23.9084V23.5654L44.7084 23.5305C44.7807 23.3579 44.7084 23.0807 44.8169 22.7705C44.9254 22.4603 44.4232 22.2097 43.5249 22.0454C43.4611 21.9879 43.3952 21.9242 43.3271 21.8565C42.8439 21.384 42.2224 20.7103 41.6244 20.8007L40.8794 20.9055C39.9408 21.0348 38.4787 21.2135 37.2207 21.3162C35.9629 21.419 33.4366 21.9489 32.3766 23.5942C32.0149 24.1653 31.8439 24.8301 31.8871 25.4982C32.0297 28.6758 35.1797 30.2656 40.5495 31.646C40.6858 31.6685 42.9674 32.0855 45.5362 32.5723C45.7818 32.1331 46.1671 31.7817 46.6354 31.5699C47.1036 31.3582 47.63 31.2972 48.1368 31.3963C48.6436 31.4953 49.1041 31.7488 49.4502 32.1196C49.7963 32.4904 50.0097 32.9588 50.059 33.4555C51.336 33.7164 52.3427 33.9382 52.7492 34.0717C54.3242 34.6592 54.5392 35.1419 54.3966 35.7273C54.3966 35.7499 54.3604 36.7194 48.3989 37.7998C48.1541 37.845 47.903 37.8902 47.6369 37.9354C47.7753 37.9621 47.9179 37.9847 48.0626 38.0093C50.2357 38.3708 51.783 38.9849 52.8812 39.6977C58.3063 38.149 57.404 34.6695 57.404 34.2094C57.008 32.9523 56.3036 32.2108 54.718 31.5967C53.2515 31.0297 51.0317 30.5697 47.6093 29.9165L46.9771 29.7891Z" stroke="white" stroke-opacity="0.77" stroke-miterlimit="10"/>
<path d="M47.192 47.9069C44.7253 46.7525 42.7033 45.7953 42.7033 43.9488C42.7033 43.9488 42.5331 42.1002 47.109 40.8534C47.2857 40.8061 47.4687 40.7568 47.6603 40.7116C46.7436 40.4874 45.815 40.3111 44.8785 40.1837C44.0289 40.0701 43.1903 39.8894 42.3713 39.6436C39.7641 41.2559 39.5534 43.4106 39.5534 44.3288C39.5534 45.0538 39.4874 47.568 44.3847 49.9568C44.6231 50.0739 44.8743 50.191 45.1382 50.306C46.1406 50.7476 46.9877 51.1276 47.6922 51.4686L47.905 51.5692C48.402 51.6256 48.8605 51.8549 49.1948 52.2142C51.1253 53.2412 51.3976 53.6849 51.3231 54.106C51.2295 54.7324 49.6865 55.478 48.1796 56.5708C48.02 56.6858 47.8625 56.8009 47.7071 56.924C48.1594 57.2757 48.5756 57.6685 48.9501 58.0969C49.7925 57.5609 50.6674 57.0739 51.57 56.6385C53.1088 55.8786 55.3288 53.4938 52.3576 50.9038C51.9256 50.5491 51.4714 50.2205 50.9976 49.9199C49.9333 49.2571 48.8233 48.6656 47.6752 48.1493L47.192 47.9069Z" stroke="white" stroke-opacity="0.77" stroke-miterlimit="10"/>
<path d="M46.7555 61.1187C46.7282 60.9701 46.714 60.8196 46.713 60.6688C46.713 60.2579 46.9513 59.8223 47.3302 59.4052C47.4531 59.2676 47.5846 59.1372 47.7239 59.0149C47.3323 58.6657 46.9131 58.3463 46.4703 58.0596C45.7701 58.8567 45.2806 59.7915 45.2806 60.9091C45.2806 61.7309 45.7062 62.1418 45.968 62.4993C45.969 62.2239 46.0415 61.9532 46.1792 61.7119C46.3168 61.4707 46.515 61.2667 46.7555 61.1187Z" stroke="white" stroke-opacity="0.77" stroke-miterlimit="10"/>
<path d="M47.4879 64.1341C47.573 64.2348 47.6602 64.3396 47.7411 64.4382C47.8667 64.5944 47.9838 64.7546 48.088 64.9149C48.4456 65.4572 48.635 65.9873 48.3945 66.3674C48.2392 66.6098 48.1349 66.7783 48.0668 66.8707C48.0434 66.9015 48.0263 66.9262 48.0114 66.9487C48.0206 66.9958 48.0379 67.0409 48.0625 67.0823C48.1264 67.1789 48.2519 67.2261 48.5031 66.9858C48.9671 66.5378 49.646 65.6627 48.9288 64.5327C48.7947 64.3273 48.6499 64.1218 48.5031 63.9287C48.2475 64.0661 47.9592 64.1369 47.6666 64.1341C47.6071 64.1371 47.5474 64.1371 47.4879 64.1341Z" stroke="white" stroke-opacity="0.77" stroke-miterlimit="10"/>
<path d="M45.26 23.2053C45.2586 23.7013 45.4209 24.1849 45.7234 24.5859C46.0259 24.9869 46.4528 25.2845 46.9423 25.4358C47.4318 25.5869 47.9585 25.5837 48.446 25.4267C48.9335 25.2697 49.3566 24.9669 49.6539 24.5623C49.9512 24.1577 50.1072 23.6722 50.0995 23.1762C50.0918 22.6803 49.9206 22.1996 49.6108 21.8038C49.301 21.408 48.8687 21.1177 48.3765 20.9749C47.8843 20.832 47.3578 20.8442 46.8732 21.0096C46.4016 21.1688 45.9929 21.4658 45.7038 21.8592C45.4148 22.2526 45.2596 22.723 45.26 23.2053ZM47.6713 21.903C47.9383 21.9026 48.1994 21.9787 48.4216 22.1215C48.6438 22.2644 48.8171 22.4676 48.9195 22.7055C49.022 22.9435 49.049 23.2053 48.9972 23.4581C48.9453 23.7108 48.817 23.943 48.6283 24.1254C48.4398 24.3077 48.1993 24.432 47.9375 24.4824C47.6757 24.5328 47.4043 24.5071 47.1576 24.4086C46.9109 24.3101 46.7 24.1432 46.5516 23.929C46.4033 23.7148 46.3241 23.4629 46.3241 23.2053C46.3238 23.0344 46.3585 22.8651 46.426 22.7071C46.4936 22.5491 46.5928 22.4055 46.718 22.2846C46.8431 22.1637 46.9917 22.0677 47.1553 22.0022C47.3189 21.9367 47.4942 21.903 47.6713 21.903Z" stroke="white" stroke-opacity="0.77" stroke-miterlimit="10"/>
<path d="M45.2591 33.6823C45.2608 34.299 45.5155 34.8901 45.9673 35.3261C46.4192 35.7622 47.0316 36.0079 47.6705 36.0095C47.9302 36.0092 48.1881 35.969 48.4346 35.8904C48.9145 35.7357 49.3319 35.4392 49.6275 35.0429C49.9232 34.6466 50.0822 34.1707 50.082 33.6823C50.082 33.6063 50.082 33.5324 50.0713 33.4584C50.015 32.8816 49.7377 32.3458 49.2937 31.9558C48.8497 31.5658 48.2709 31.3496 47.6705 31.3496C47.0702 31.3496 46.4914 31.5658 46.0474 31.9558C45.6034 32.3458 45.3261 32.8816 45.2698 33.4584C45.2634 33.5303 45.2591 33.6063 45.2591 33.6823ZM47.6705 32.3821C47.937 32.3821 48.1975 32.4584 48.4191 32.6013C48.6406 32.7442 48.8133 32.9472 48.9152 33.1848C49.0172 33.4224 49.0439 33.6838 48.9919 33.936C48.9399 34.1882 48.8116 34.4198 48.6232 34.6017C48.4348 34.7836 48.1947 34.9074 47.9334 34.9575C47.6721 35.0077 47.4011 34.982 47.155 34.8836C46.9088 34.7852 46.6984 34.6185 46.5504 34.4047C46.4023 34.1908 46.3233 33.9395 46.3233 33.6823C46.323 33.5115 46.3577 33.3423 46.4253 33.1844C46.4929 33.0266 46.5921 32.8832 46.7173 32.7624C46.8424 32.6415 46.9911 32.5458 47.1546 32.4805C47.3183 32.4153 47.4935 32.3819 47.6705 32.3821Z" stroke="white" stroke-opacity="0.77" stroke-miterlimit="10"/>
<path d="M47.6703 24.5057C47.9374 24.5061 48.1986 24.43 48.4209 24.2871C48.643 24.144 48.8163 23.9407 48.9188 23.7025C49.0211 23.4644 49.0481 23.2023 48.996 22.9494C48.944 22.6966 48.8155 22.4642 48.6266 22.282C48.4378 22.0996 48.1972 21.9755 47.9352 21.9253C47.6733 21.8751 47.4018 21.9011 47.1551 22C46.9085 22.0988 46.6978 22.266 46.5496 22.4806C46.4015 22.6951 46.3227 22.9473 46.3231 23.2051C46.3228 23.376 46.3575 23.5452 46.4251 23.7032C46.4927 23.861 46.5919 24.0045 46.7171 24.1254C46.8422 24.2462 46.9909 24.342 47.1544 24.4073C47.3181 24.4725 47.4934 24.506 47.6703 24.5057Z" stroke="white" stroke-opacity="0.77" stroke-miterlimit="10"/>
<path d="M47.6703 34.9826C48.4144 34.9826 49.0176 34.4003 49.0176 33.682C49.0176 32.9637 48.4144 32.3813 47.6703 32.3813C46.9263 32.3813 46.3231 32.9637 46.3231 33.682C46.3231 34.4003 46.9263 34.9826 47.6703 34.9826Z" stroke="white" stroke-opacity="0.77" stroke-miterlimit="10"/>
<path d="M45.2591 44.2222C45.2589 44.7567 45.4492 45.2749 45.7979 45.69C46.1467 46.1052 46.6328 46.3919 47.1746 46.5022C47.3372 46.5344 47.5025 46.5509 47.6684 46.5515C48.2482 46.5525 48.8089 46.3519 49.2479 45.9864C49.6869 45.621 49.9748 45.1151 50.0587 44.5615C50.1428 44.0079 50.0173 43.4436 49.7053 42.972C49.3934 42.5004 48.9159 42.1531 48.3601 41.9937C48.1358 41.9283 47.9028 41.8951 47.6684 41.895C47.4834 41.8952 47.2991 41.9166 47.1193 41.9587C46.5901 42.0782 46.1184 42.3669 45.7807 42.7778C45.443 43.1887 45.2593 43.6978 45.2591 44.2222ZM47.6705 42.922C47.9376 42.9216 48.1988 42.9977 48.421 43.1406C48.6433 43.2836 48.8165 43.487 48.9189 43.725C49.0213 43.963 49.0482 44.225 48.9963 44.4778C48.9442 44.7307 48.8157 44.9629 48.6268 45.1451C48.438 45.3274 48.1974 45.4515 47.9354 45.5016C47.6735 45.5518 47.402 45.5259 47.1553 45.427C46.9086 45.3282 46.6979 45.161 46.5498 44.9465C46.4017 44.7321 46.3229 44.48 46.3233 44.2222C46.3233 43.8774 46.4652 43.5467 46.7179 43.3029C46.9705 43.059 47.3133 42.922 47.6705 42.922Z" stroke="white" stroke-opacity="0.77" stroke-miterlimit="10"/>
<path d="M47.6703 45.5301C47.9373 45.5305 48.1984 45.4544 48.4206 45.3116C48.6428 45.1687 48.8161 44.9654 48.9185 44.7274C49.021 44.4894 49.048 44.2274 48.9962 43.9745C48.9443 43.7218 48.816 43.4894 48.6273 43.3071C48.4388 43.1247 48.1984 43.0004 47.9365 42.95C47.6747 42.8996 47.4033 42.9253 47.1566 43.0238C46.9099 43.1223 46.6991 43.2892 46.5506 43.5036C46.4023 43.7178 46.3231 43.9697 46.3231 44.2275C46.3228 44.3984 46.3575 44.5678 46.4251 44.7258C46.4926 44.8839 46.5918 45.0274 46.717 45.1484C46.8421 45.2694 46.9907 45.3654 47.1543 45.4309C47.3179 45.4964 47.4932 45.5301 47.6703 45.5301Z" stroke="white" stroke-opacity="0.77" stroke-miterlimit="10"/>
<path d="M47.5048 51.559C47.0088 51.5983 46.5445 51.81 46.1979 52.1547C45.8513 52.4993 45.646 52.9537 45.62 53.4333C45.594 53.913 45.7491 54.3855 46.0566 54.7632C46.364 55.1409 46.8029 55.3981 47.2919 55.4871C47.4196 55.5102 47.5493 55.5219 47.6792 55.5221C48.2056 55.5245 48.7128 55.332 49.0965 54.9842C49.4801 54.6364 49.711 54.1599 49.7416 53.6527C49.7721 53.1455 49.6 52.6464 49.2607 52.258C48.9214 51.8696 48.4407 51.6217 47.9177 51.5652C47.8385 51.5562 47.7589 51.5515 47.6792 51.5508C47.6154 51.5508 47.5686 51.5549 47.5048 51.559ZM48.82 53.5375C48.8196 53.7568 48.7519 53.9711 48.6253 54.1533C48.4988 54.3354 48.3191 54.4774 48.1091 54.5609C47.899 54.6446 47.668 54.6663 47.4453 54.6233C47.2224 54.5802 47.0179 54.4744 46.8573 54.3192C46.6968 54.164 46.5875 53.9663 46.5434 53.7511C46.4992 53.5359 46.5221 53.313 46.6091 53.1104C46.6962 52.9078 46.8435 52.7346 47.0324 52.6129C47.2214 52.4911 47.4435 52.426 47.6707 52.426C47.8218 52.426 47.9715 52.4548 48.111 52.5106C48.2507 52.5665 48.3774 52.6484 48.4842 52.7517C48.5909 52.8549 48.6755 52.9774 48.7332 53.1123C48.7908 53.2472 48.8204 53.3916 48.82 53.5375Z" stroke="white" stroke-opacity="0.77" stroke-miterlimit="10"/>
<path d="M46.5211 53.5398C46.5216 53.7591 46.5893 53.9734 46.7159 54.1556C46.8424 54.3379 47.0221 54.4798 47.2321 54.5634C47.4421 54.647 47.6732 54.6687 47.896 54.6257C48.1188 54.5826 48.3234 54.4768 48.4839 54.3216C48.6444 54.1663 48.7536 53.9686 48.7979 53.7535C48.842 53.5382 48.8191 53.3153 48.7321 53.1127C48.645 52.9101 48.4977 52.7369 48.3087 52.6151C48.1198 52.4932 47.8977 52.4282 47.6704 52.4282C47.5193 52.4282 47.3697 52.457 47.2301 52.5129C47.0906 52.5687 46.9637 52.6506 46.857 52.7539C46.7502 52.8571 46.6656 52.9797 46.608 53.1146C46.5504 53.2494 46.5209 53.3939 46.5211 53.5398Z" stroke="white" stroke-opacity="0.77" stroke-miterlimit="10"/>
<path d="M48.6706 61.1732C48.5088 61.0606 48.3281 60.9757 48.1364 60.9226C47.9849 60.8805 47.8279 60.859 47.6703 60.8589C47.5616 60.8587 47.4533 60.869 47.3467 60.8897C47.1363 60.9285 46.9354 61.006 46.7551 61.1178C46.5145 61.2657 46.3163 61.4697 46.1787 61.711C46.0411 61.9522 45.9685 62.2229 45.9676 62.4983C45.9681 62.8109 46.0608 63.1168 46.2349 63.3802C46.4091 63.6437 46.6574 63.8537 46.9509 63.9858C47.1197 64.0636 47.3011 64.1129 47.4872 64.1316C47.548 64.1382 47.6091 64.1416 47.6703 64.1419C48.1002 64.1431 48.5147 63.9872 48.8306 63.7056C49.1464 63.424 49.3402 63.0375 49.3729 62.6236C49.3729 62.5826 49.3729 62.5414 49.3729 62.4983C49.3721 62.2397 49.3081 61.9848 49.1861 61.7546C49.0641 61.5244 48.8875 61.3252 48.6706 61.1732ZM47.6703 63.4208C47.4821 63.4208 47.2982 63.3669 47.1417 63.266C46.9852 63.1651 46.8633 63.0217 46.7913 62.8538C46.7193 62.6861 46.7005 62.5014 46.7372 62.3233C46.7739 62.1451 46.8645 61.9815 46.9976 61.8531C47.1306 61.7247 47.3001 61.6372 47.4846 61.6017C47.6692 61.5663 47.8605 61.5845 48.0343 61.654C48.2082 61.7235 48.3567 61.8412 48.4613 61.9923C48.5659 62.1432 48.6216 62.3208 48.6216 62.5024C48.6216 62.746 48.5214 62.9796 48.343 63.1518C48.1646 63.324 47.9226 63.4208 47.6703 63.4208Z" stroke="white" stroke-opacity="0.77" stroke-miterlimit="10"/>
<path d="M47.6705 63.4216C48.1959 63.4216 48.6218 63.0105 48.6218 62.5033C48.6218 61.9961 48.1959 61.585 47.6705 61.585C47.145 61.585 46.7191 61.9961 46.7191 62.5033C46.7191 63.0105 47.145 63.4216 47.6705 63.4216Z" stroke="white" stroke-opacity="0.77" stroke-miterlimit="10"/>
<path d="M47.4328 67.9901C47.0389 68.061 46.6835 68.2639 46.4292 68.5629C46.1749 68.8618 46.038 69.2378 46.0426 69.6246C46.0471 70.0114 46.1929 70.3842 46.4542 70.6775C46.7155 70.9708 47.0756 71.1657 47.4711 71.228C47.5599 71.2417 47.6495 71.2493 47.7393 71.2505C47.8314 71.2496 47.9232 71.2414 48.0139 71.2259C48.4321 71.1553 48.8078 70.9365 49.0675 70.6124C49.3273 70.2883 49.4521 69.8822 49.4178 69.4738C49.3834 69.0654 49.1922 68.6841 48.8817 68.4046C48.5712 68.1253 48.1638 67.9679 47.7393 67.9634C47.6365 67.964 47.534 67.9729 47.4328 67.9901ZM48.6907 69.607C48.6907 69.7886 48.6349 69.9661 48.5304 70.1172C48.4258 70.2682 48.2773 70.3859 48.1034 70.4554C47.9295 70.5249 47.7383 70.5431 47.5538 70.5077C47.3692 70.4723 47.1996 70.3848 47.0666 70.2564C46.9336 70.1279 46.8429 69.9643 46.8063 69.7861C46.7695 69.608 46.7883 69.4233 46.8604 69.2555C46.9324 69.0877 47.0543 68.9443 47.2108 68.8434C47.3672 68.7425 47.5511 68.6886 47.7393 68.6886C47.9917 68.6886 48.2336 68.7854 48.4121 68.9576C48.5904 69.1299 48.6907 69.3634 48.6907 69.607Z" stroke="white" stroke-opacity="0.77" stroke-miterlimit="10"/>
<path d="M46.788 69.6083C46.788 69.7899 46.8437 69.9674 46.9483 70.1184C47.0528 70.2695 47.2014 70.3872 47.3753 70.4567C47.5491 70.5262 47.7404 70.5444 47.9249 70.5089C48.1094 70.4735 48.279 70.386 48.412 70.2576C48.5451 70.1291 48.6357 69.9656 48.6724 69.7874C48.7092 69.6093 48.6903 69.4246 48.6183 69.2568C48.5462 69.089 48.4244 68.9456 48.2679 68.8447C48.1114 68.7438 47.9275 68.6899 47.7393 68.6899C47.6144 68.6899 47.4907 68.7136 47.3753 68.7598C47.2598 68.806 47.155 68.8736 47.0666 68.9589C46.9783 69.0442 46.9082 69.1454 46.8604 69.2568C46.8126 69.3682 46.788 69.4877 46.788 69.6083Z" stroke="white" stroke-opacity="0.77" stroke-miterlimit="10"/>
<path d="M49.4716 9.95631C50.0383 9.58663 50.4678 9.05195 50.6976 8.43018C50.9276 7.80845 50.9457 7.13213 50.7496 6.49972C50.5534 5.86732 50.1531 5.31187 49.6071 4.91429C49.0611 4.5167 48.3978 4.29775 47.7138 4.28932C47.0298 4.28088 46.3609 4.48341 45.8045 4.8674C45.2482 5.25139 44.8334 5.79679 44.6205 6.42416C44.4076 7.05152 44.4079 7.72807 44.6213 8.35525C44.8346 8.98245 45.2498 9.5276 45.8065 9.91112C46.3588 9.63075 46.9771 9.49342 47.6008 9.51269C48.2551 9.48868 48.9033 9.64244 49.4716 9.95631ZM45.6533 7.37237C45.6533 6.98766 45.7715 6.61158 45.993 6.2917C46.2145 5.97182 46.5293 5.72251 46.8975 5.57528C47.2658 5.42805 47.6711 5.38953 48.0621 5.46459C48.4531 5.53964 48.8122 5.7249 49.0941 5.99693C49.3759 6.26897 49.5679 6.61557 49.6457 6.99289C49.7235 7.37022 49.6836 7.76132 49.531 8.11677C49.3785 8.47215 49.1201 8.776 48.7886 8.98971C48.4572 9.20349 48.0675 9.31757 47.6689 9.31757C47.1343 9.31757 46.6217 9.11258 46.2437 8.74779C45.8657 8.383 45.6533 7.88826 45.6533 7.37237Z" stroke="white" stroke-opacity="0.77" stroke-miterlimit="10"/>
<path d="M49.6974 7.37087C49.6974 6.98607 49.5792 6.60991 49.3577 6.28996C49.1362 5.97002 48.8214 5.72064 48.4531 5.57339C48.0848 5.42614 47.6795 5.38761 47.2886 5.46268C46.8976 5.53775 46.5384 5.72305 46.2566 5.99514C45.9747 6.26723 45.7827 6.61391 45.705 6.99131C45.6272 7.36872 45.6671 7.75991 45.8197 8.11543C45.9723 8.47089 46.2305 8.77481 46.562 8.98856C46.8935 9.20231 47.2831 9.31641 47.6818 9.31641C48.2163 9.31641 48.729 9.11146 49.107 8.74659C49.485 8.38172 49.6974 7.88687 49.6974 7.37087Z" stroke="white" stroke-opacity="0.77" stroke-miterlimit="10"/>
<path d="M47.4706 71.2262V71.5429H48.0051V71.2241C47.9144 71.2397 47.8226 71.2479 47.7304 71.2488C47.6434 71.2472 47.5565 71.2397 47.4706 71.2262Z" stroke="white" stroke-opacity="0.77" stroke-miterlimit="10"/>
</g>
</svg>
