<svg width="40" height="40" viewBox="0 0 40 40" fill="none" xmlns="http://www.w3.org/2000/svg">
<path d="M0 26.876C0.244195 26.2029 0.642839 25.6832 1.39108 25.5517C2.50144 25.3576 3.41665 26.1434 3.42186 27.306C3.4323 29.414 3.42499 31.523 3.42499 33.6311C3.42499 33.7699 3.42499 33.9097 3.42499 34.1278C3.58362 33.9817 3.68693 33.894 3.78294 33.797C7.7318 29.8492 11.6817 25.9045 15.6233 21.9504C16.1565 21.415 16.7555 21.1677 17.4923 21.3931C18.6434 21.7458 19.0639 23.1442 18.3094 24.0834C18.1873 24.2348 18.0454 24.3704 17.9076 24.5082C14.0151 28.4017 10.1226 32.2942 6.22906 36.1857C6.12888 36.2859 6.00678 36.3652 5.89512 36.455C5.90869 36.4936 5.9233 36.5332 5.93687 36.5718C6.06836 36.5718 6.20089 36.5718 6.33238 36.5718C8.42787 36.5718 10.5234 36.5739 12.6188 36.5708C13.1479 36.5708 13.6217 36.6992 14.0047 37.0842C14.8521 37.9358 14.5818 39.3665 13.4808 39.8507C13.3629 39.9029 13.2429 39.9499 13.1239 40H1.87425C1.1761 39.7975 0.557266 39.4834 0.247326 38.7717C0.1461 38.5379 0.0813984 38.2885 0 38.0464C0 34.3229 0 30.5995 0 26.876Z" fill="#444F5D"/>
<path d="M36.454 5.9087C36.3622 6.01932 36.2787 6.13724 36.1775 6.23847C32.238 10.18 28.2954 14.1174 24.3601 18.0621C23.8268 18.5975 23.2216 18.8354 22.4869 18.6037C21.339 18.2426 20.9309 16.8359 21.6959 15.905C21.8034 15.7746 21.9265 15.6577 22.0465 15.5377C25.9588 11.6243 29.8712 7.71199 33.7835 3.79964C33.8816 3.70155 33.9735 3.59824 34.13 3.43127C33.9129 3.43127 33.7762 3.43127 33.6406 3.43127C31.544 3.43127 29.4485 3.43544 27.352 3.42918C26.2615 3.42605 25.5018 2.69033 25.5216 1.67703C25.5393 0.771207 26.2427 0.0156633 27.1516 0.0125326C30.6925 -0.00103385 34.2344 -0.0093824 37.7752 0.018794C39.0932 0.0292297 39.9813 0.948614 39.9875 2.26038C40.0042 5.77512 40.0001 9.29091 39.9907 12.8056C39.9886 13.7699 39.2049 14.5254 38.2698 14.514C37.316 14.5025 36.5772 13.7438 36.573 12.7368C36.5636 10.6152 36.5699 8.49258 36.5699 6.36996C36.5699 6.2322 36.5699 6.09445 36.5699 5.95566C36.5312 5.94001 36.4926 5.92435 36.4551 5.9087H36.454Z" fill="#444F5D"/>
</svg>
