<svg width="15" height="15" viewBox="0 0 15 15" fill="none" xmlns="http://www.w3.org/2000/svg">
<path d="M14.3617 0.649385C14.0752 0.357396 13.7118 0.152451 13.3136 0.0582478C12.9154 -0.0359556 12.4987 -0.0155694 12.1116 0.117049L1.49848 3.66346C1.07044 3.80351 0.696445 4.07294 0.428128 4.43455C0.159812 4.79615 0.0104016 5.2321 0.000523455 5.68221C-0.00935466 6.13233 0.120786 6.5744 0.372981 6.94742C0.625176 7.32044 0.986988 7.60601 1.40847 7.76469L5.3387 9.26423C5.42819 9.29844 5.50968 9.35072 5.57807 9.41779C5.64646 9.48487 5.7003 9.56532 5.73622 9.65411L7.23631 13.5904C7.389 14.0058 7.66609 14.364 8.02983 14.6162C8.39356 14.8684 8.82624 15.0025 9.26892 15H9.32143C9.77222 14.9918 10.2091 14.8428 10.571 14.5739C10.9328 14.3049 11.2014 13.9296 11.339 13.5004L14.8867 2.8762C15.0158 2.49302 15.035 2.0814 14.9422 1.68788C14.8494 1.29436 14.6483 0.934636 14.3617 0.649385ZM13.4992 2.40384L9.91396 13.0356C9.87233 13.1701 9.78872 13.2878 9.67535 13.3715C9.56199 13.4551 9.42482 13.5003 9.28392 13.5004C9.14386 13.5027 9.0064 13.4623 8.88985 13.3847C8.77329 13.307 8.68314 13.1957 8.63139 13.0656L7.1313 9.12927C7.02255 8.84326 6.85483 8.5833 6.63903 8.36629C6.42324 8.14929 6.1642 7.98008 5.87873 7.86966L1.941 6.37012C1.80816 6.32146 1.69398 6.23232 1.61457 6.11527C1.53516 5.99822 1.49455 5.85919 1.49848 5.71782C1.49859 5.57698 1.54379 5.43986 1.62746 5.32654C1.71114 5.21322 1.82889 5.12963 1.9635 5.08802L12.5991 1.54161C12.7212 1.49186 12.8551 1.47853 12.9847 1.50324C13.1142 1.52795 13.2338 1.58963 13.329 1.68083C13.4242 1.77203 13.4909 1.88885 13.5211 2.01716C13.5513 2.14547 13.5437 2.27978 13.4992 2.40384Z" fill="#31B9B8"/>
</svg>
