<svg width="17" height="21" viewBox="0 0 17 21" fill="none" xmlns="http://www.w3.org/2000/svg">
<path d="M8.50007 4.00566H8.50001C7.70473 4.00566 6.92734 4.24324 6.26615 4.68831C5.60496 5.13337 5.08968 5.76592 4.78542 6.50592C4.48116 7.24591 4.40155 8.06016 4.55666 8.84571C4.71177 9.63127 5.09463 10.3529 5.65689 10.9193C6.21916 11.4857 6.93557 11.8715 7.71556 12.0278C8.49555 12.1841 9.30403 12.1039 10.0387 11.7973C10.7735 11.4908 11.4014 10.9716 11.8431 10.3056C12.2848 9.63958 12.5206 8.8566 12.5206 8.05567V8.05561C12.5194 6.98199 12.0955 5.95261 11.3418 5.19333C10.5881 4.43404 9.56613 4.00687 8.50007 4.00566ZM8.49995 11.1168C7.89915 11.1168 7.31181 10.9373 6.8122 10.601C6.31257 10.2647 5.9231 9.78661 5.6931 9.22722C5.46309 8.66783 5.40291 8.05227 5.52017 7.4584C5.63743 6.86454 5.92685 6.31908 6.35178 5.891C6.77671 5.46293 7.31806 5.17144 7.90735 5.05336C8.49664 4.93527 9.10745 4.99588 9.66257 5.22752C10.2177 5.45916 10.6922 5.85146 11.0261 6.35486C11.36 6.85825 11.5382 7.45012 11.5382 8.05561C11.5373 8.86732 11.2169 9.64545 10.6472 10.2193C10.0776 10.7932 9.30536 11.1159 8.49995 11.1168Z" fill="#2FBEAD" stroke="#2FBEAD" stroke-width="0.1"/>
<path d="M0.95 8.0555V8.05556C0.95 10.9166 2.6865 13.9431 4.45167 16.2823C6.21847 18.6237 8.0219 20.2866 8.16997 20.4218L8.20369 20.3849L8.16998 20.4218C8.26032 20.5043 8.37795 20.55 8.5 20.55C8.62205 20.55 8.73968 20.5043 8.83002 20.4218L8.79631 20.3849L8.83003 20.4218C8.9781 20.2866 10.7815 18.6237 12.5483 16.2823C14.3135 13.9431 16.05 10.9166 16.05 8.05556V8.0555C16.0477 6.03921 15.2517 4.10608 13.8363 2.68024C12.4209 1.25438 10.5019 0.45227 8.50006 0.45L8.49994 0.45C6.49815 0.452288 4.57907 1.2544 3.16371 2.68026C1.74835 4.1061 0.952271 6.03922 0.95 8.0555ZM8.49988 19.3741C7.8177 18.7079 6.19686 17.0497 4.73585 14.9855C3.24796 12.8832 1.93235 10.3687 1.93235 8.05556C1.93235 6.30059 2.62439 4.61757 3.8561 3.37674C5.0878 2.13591 6.75827 1.43889 8.5 1.43889C10.2417 1.43889 11.9122 2.13591 13.1439 3.37674C14.3756 4.61757 15.0676 6.30059 15.0676 8.05556C15.0676 10.3667 13.752 12.881 12.264 14.9837C10.803 17.0484 9.18206 18.7075 8.49988 19.3741Z" fill="#2FBEAD" stroke="#2FBEAD" stroke-width="0.1"/>
</svg>
