<svg width="346" height="76" viewBox="0 0 346 76" fill="none" xmlns="http://www.w3.org/2000/svg">
<path d="M132.665 40.0634L130.218 32.8027L132.254 31.268L128.825 28.6887L119.559 1.187L115.333 3.69536C115.333 3.69536 107.916 25.6903 107.139 27.7666C106.362 29.843 105.675 30.1073 104.037 31.1455C104.425 31.2313 104.772 31.4462 105.023 31.7552C105.274 32.0643 105.413 32.4493 105.418 32.8478C104.64 35.5862 103.631 38.2526 102.4 40.8179C100.326 45.1446 95.7598 46.1828 95.7598 46.1828V47.3951H109.81V46.0087H107.833C103.755 46.0087 103.472 41.9915 103.947 40.9017C103.947 40.9017 106.516 34.0601 106.792 33.454C107.068 32.8479 108.346 32.5061 108.346 32.5061H120.258L123.174 40.8308C124.555 46.1957 119.398 46.099 119.398 46.099V47.3886H138.541V46.099C134.476 46.1248 132.665 40.0634 132.665 40.0634ZM104.166 46.0345H99.0669C100.574 45.3564 101.838 44.2313 102.689 42.8104C102.684 43.4237 102.814 44.0305 103.069 44.5877C103.325 45.1449 103.699 45.6389 104.166 46.0345ZM131.137 31.268L129.987 32.1385L125.884 35.2273L123.79 33.6474L121.158 31.6614L120.631 31.268L120.952 31.0294L122.551 29.8172L125.884 27.3088L129.197 29.8043L131.137 31.268ZM115.532 8.11886L122.339 29.1466L120.727 30.3588L114.428 11.1818L115.532 8.11886ZM109.727 30.9714C107.158 30.9714 108.443 28.6307 108.443 28.6307L113.529 13.7417L114.042 13.3097L119.475 30.9714H109.727ZM122.699 46.2989C125.473 44.7384 124.311 41.2306 124.311 41.2306L121.543 32.7705L124.169 34.7501L126.154 40.8953C127.708 45.4606 129.364 46.0538 130.488 46.2989H122.699ZM253.425 39.8506L250.978 32.5964L253.014 31.0552L249.591 28.4759L240.344 1L236.118 3.51481C236.118 3.51481 228.701 25.5033 227.931 27.5861C227.16 29.6689 226.46 29.9203 224.823 30.9585C225.215 31.0466 225.566 31.2665 225.817 31.5819C226.068 31.8973 226.204 32.2893 226.203 32.6931C225.426 35.4295 224.416 38.0938 223.185 40.6567C221.117 44.9899 216.545 46.028 216.545 46.028V47.2403H230.602V45.8539H228.592C224.514 45.8539 224.232 41.8367 224.739 40.7469C224.739 40.7469 227.308 33.9054 227.584 33.2992C227.86 32.6931 229.132 32.3449 229.132 32.3449H240.986L243.901 40.676C245.282 46.0409 240.119 45.9378 240.119 45.9378V47.2274H259.288V45.9378C255.236 45.9378 253.425 39.8764 253.425 39.8764V39.8506ZM224.932 45.8539H219.794C221.301 45.1758 222.565 44.0507 223.416 42.6298C223.418 43.2459 223.555 43.854 223.817 44.4112C224.079 44.9683 224.459 45.4609 224.932 45.8539ZM251.903 31.081L250.747 31.9515L246.65 35.0403L244.563 33.4927L241.924 31.5066L241.403 31.1133L241.718 30.8747L243.324 29.6689L246.656 27.1605L249.976 29.6237L251.903 31.081ZM236.298 7.93186L243.105 28.9789L241.5 30.1847L235.207 11.0012L236.298 7.93186ZM230.48 30.7909C227.912 30.7909 229.196 28.4502 229.196 28.4502L234.282 13.5547L234.802 13.1227L240.235 30.7909H230.48ZM243.458 46.1183C246.233 44.5578 245.064 41.0436 245.064 41.0436L242.27 32.5899L244.897 34.5695L246.888 40.7083C248.442 45.2801 250.098 45.8668 251.216 46.1183H243.458ZM179.852 35.2273C176.487 48.0141 168.081 47.8078 166.206 47.7304C160.786 47.7304 150.614 43.0554 149.599 28.5985L151.982 26.7994L149.522 24.9552C149.862 7.69972 157.042 4.4756 164.086 4.4756C174.47 4.4756 177.527 12.955 178.266 15.7987C178.471 16.6112 179.62 16.2049 179.608 15.6439C179.435 11.9961 178.895 8.37517 177.996 4.8367C174.676 3.77919 164.324 3.3794 164.324 3.3794C147.493 3.3794 140.699 17.5655 140.699 25.7097L139.26 26.793L140.769 27.9343C141.893 46.0732 156.824 48.7943 165.775 48.7943C170.383 48.6998 174.941 47.8279 179.261 46.215L180.963 35.4916C181.072 34.2536 180.096 34.3374 179.858 35.2273H179.852ZM140.371 26.7994L140.718 26.5415L142.002 25.5742L144.263 23.8719L145.631 22.8466L149.522 25.7548L150.877 26.7736L149.554 27.7731L145.624 30.7328L144.436 29.843L142.092 28.0891L140.731 27.0444L140.371 26.7994ZM151.083 8.82816C148.225 11.7621 145.059 15.5988 144.353 23.0143L142.06 24.7424C142.561 14.7928 149.728 9.37626 151.083 8.82816ZM142.169 28.9789L144.597 30.8038C145.881 37.9484 150.293 43.3649 157.523 46.9953C152.958 45.5831 143.556 41.1596 142.169 28.9789ZM214.298 3.18595H183.326V4.23057C189.054 4.23057 189.105 8.06082 189.105 8.06082V24.3362L187.044 25.9095L189.131 27.4829V41.611C189.131 46.4923 183.351 45.97 183.351 45.97V47.3628H203.304V46.1441C197.409 46.1441 197.755 42.1333 197.755 42.1333V27.4507L199.804 25.9095L197.755 24.3684V4.6755L201.57 4.50139C205.821 4.59167 209.045 5.82973 211.202 7.53207C213.676 9.48371 215.434 12.2057 216.198 15.2699L217.329 15.0572L214.298 3.18595ZM188.463 4.31439L191.674 4.40467V22.4597L190.081 23.6591V7.98989C190.062 5.54601 189.42 5.1978 188.463 4.32729V4.31439ZM197.73 26.5995L193.414 29.8236L191.655 28.4953L190.062 27.2959L189.137 26.5995L188.161 25.8644L189.137 25.1229L190.062 24.4651L191.655 23.2593L193.414 21.9374L197.73 25.1616L198.667 25.8709L197.73 26.5995ZM191.655 46.215H187.686C188.325 45.9512 188.883 45.5224 189.304 44.972C189.725 44.4216 189.993 43.7693 190.081 43.0812V28.1729L191.674 29.3787L191.655 46.215ZM297.105 14.9604C297.105 14.9604 297.844 10.1436 291.91 5.50732C288.192 2.60561 279.831 3.18595 279.831 3.18595H260.951V4.23057C266.673 4.23057 266.763 8.06082 266.763 8.06082V25.1873L264.502 26.8897L266.763 28.5985V41.611C266.763 46.4923 260.951 45.97 260.951 45.97V47.3628H280.903V46.1441C275.002 46.1441 275.348 42.1333 275.348 42.1333V28.3341L276.408 27.5409C279.728 27.7344 287.652 27.8376 292.019 24.7811C293.626 23.7109 294.936 22.2483 295.825 20.5305C296.715 18.8126 297.155 16.896 297.105 14.9604ZM275.348 27.4636L270.853 30.8489L269.274 29.656L267.675 28.4502L266.756 27.7602L265.6 26.8897L266.756 26.0192L267.675 25.3292L269.274 24.1234L270.853 22.9305L276.106 26.8897L275.387 27.4313L275.348 27.4636ZM266.088 4.32729L269.299 4.41757V23.2916L267.681 24.4651V7.98989C267.681 5.54601 267.045 5.1978 266.088 4.32729ZM269.299 46.2408H265.305C265.945 45.9781 266.504 45.5496 266.924 44.999C267.345 44.4484 267.613 43.7955 267.7 43.107V29.2884L269.299 30.4942V46.2408ZM276.447 26.3029L275.368 25.4904V4.99146C275.368 4.99146 275.31 5.21715 279.124 5.04305C283.376 5.13332 287.177 9.0345 287.543 15.2055C287.691 17.7461 286.991 22.2534 284.442 24.3749C282.599 25.8966 280.518 26.3996 276.427 26.29L276.447 26.3029ZM283.465 26.103C285.732 24.4909 288.417 22.8789 288.417 15.6826C288.417 8.4864 283.921 6.01028 282.997 5.41704C282.997 5.41704 290.844 5.99094 290.844 15.3731C290.825 22.7177 286.13 25.413 283.446 26.0901L283.465 26.103ZM342.449 46.6213C342.449 46.6213 336.22 48.1044 336.22 40.3729V28.8564L338.563 27.0896L336.22 25.3292V9.02161C336.185 8.4189 336.28 7.81586 336.498 7.25312C336.716 6.69038 337.051 6.18103 337.481 5.75939C337.911 5.33775 338.427 5.01362 338.992 4.80885C339.558 4.60408 340.16 4.52343 340.76 4.57232V3.28268L302.57 3.38585V5.32032H306.153C306.153 5.32032 309.743 4.79156 309.846 9.65998C309.897 12.0007 310.308 18.4941 309.904 25.5484L307.861 27.0444L309.659 28.3986C309.017 35.195 307.54 42.0495 304.124 45.8668C304.021 46.0796 299.378 45.8668 299.378 45.8668L296.739 56.5645H297.901C297.901 56.5645 300.855 48.0915 311.297 48.0915H333.131C333.131 48.0915 341.254 46.9244 344.42 56.7773C344.945 56.829 345.474 56.829 346 56.7773L342.449 46.6213ZM336.22 28.0181L332.174 31.0488L330.247 29.6237L329.027 28.7016L327.589 27.6183L326.902 27.1025L327.589 26.5866L329.027 25.5033L330.247 24.5812L332.174 23.1497L336.194 26.1804L337.427 27.1025L336.22 28.0181ZM329.047 5.41704H331.93C330.247 5.52021 330.247 7.69972 330.247 8.22847V23.7365L329.027 24.6521L329.047 5.41704ZM324.384 46.0925H307.181L307.078 45.7766C309.711 41.1532 310.976 34.8146 311.541 28.6823L313.692 27.0444L311.766 25.6C312.267 17.1399 311.625 9.57616 311.625 7.9641C311.625 4.99791 313.313 5.52666 313.313 5.52666H327.679C327.679 5.52666 327.615 16.0824 327.608 25.7548L325.81 27.1089L327.608 28.463C327.608 34.4019 327.608 39.5863 327.653 41.1338C327.756 45.351 324.384 46.0925 324.384 46.0925ZM327.049 46.1312C329.047 45.351 329.047 41.6755 329.047 41.6755V29.527L330.267 30.4491V41.4498C330.267 45.0157 332.707 46.1312 332.707 46.1312C332.707 46.1312 327.159 46.0216 327.037 46.1312H327.049Z" fill="#33BCAC"/>
<path d="M125.557 71.2016H123.842V63.0639L121.363 68.345H120.079L117.626 63.0639V71.2016H116.001V60.8457H118.095L120.811 66.5911L123.431 60.8457H125.564L125.557 71.2016Z" fill="#231F20"/>
<path d="M134.817 71.4405C134.114 71.486 133.409 71.3859 132.747 71.1462C132.084 70.9066 131.477 70.5327 130.964 70.0477C130.486 69.511 130.119 68.8837 129.885 68.2027C129.651 67.5217 129.555 66.8007 129.603 66.082C129.516 64.6268 129.974 63.1917 130.887 62.0583C131.323 61.5642 131.864 61.1745 132.469 60.9179C133.075 60.6612 133.73 60.5441 134.387 60.5752C134.967 60.5658 135.543 60.6619 136.089 60.8589C136.579 61.0435 137.02 61.3418 137.373 61.7294C137.76 62.1369 138.056 62.6228 138.24 63.1545C138.454 63.8317 138.554 64.54 138.536 65.2502V66.1981H131.388C131.321 67.2012 131.646 68.191 132.293 68.9579C132.62 69.2857 133.012 69.5407 133.444 69.7063C133.875 69.8718 134.337 69.9442 134.798 69.9187C135.177 69.919 135.554 69.8735 135.922 69.7833C136.262 69.7076 136.593 69.5974 136.911 69.4544C137.184 69.3317 137.45 69.1939 137.707 69.0418C137.894 68.9276 138.072 68.8005 138.24 68.6613H138.343V70.5635L137.598 70.8924C137.296 71.0149 137.027 71.1052 136.789 71.1761C136.449 71.2664 136.147 71.3373 135.871 71.3889C135.521 71.4343 135.169 71.4515 134.817 71.4405ZM136.847 64.8697C136.845 64.46 136.789 64.0523 136.68 63.6575C136.598 63.3438 136.454 63.0499 136.256 62.7934C136.05 62.5336 135.783 62.3296 135.479 62.2002C135.103 62.0534 134.701 61.9832 134.297 61.9938C133.895 61.9826 133.495 62.055 133.122 62.2066C132.792 62.3493 132.493 62.5552 132.242 62.8128C131.989 63.0725 131.788 63.3791 131.651 63.7155C131.506 64.0848 131.417 64.4739 131.388 64.8697H136.847Z" fill="#231F20"/>
<path d="M151.405 73.6841H149.799V71.1758H142.992V73.6841H141.38V69.7185H142.093C142.761 68.5397 143.246 67.2655 143.531 65.9398C143.917 64.2698 144.104 62.5599 144.09 60.8457H150.416V69.7185H151.437L151.405 73.6841ZM148.643 69.7185V62.3095H145.689C145.625 63.7383 145.41 65.1563 145.047 66.5395C144.775 67.6563 144.343 68.7273 143.763 69.7185H148.643Z" fill="#231F20"/>
<path d="M163.529 71.2016H161.808V63.4637L156.952 71.2016H155.379V60.8457H157.1V68.4482L161.904 60.8457H163.529V71.2016Z" fill="#231F20"/>
<path d="M177.412 73.6841H175.794V71.2016H168.306V60.8457H170.04V69.6991H174.651V60.8457H176.385V69.6991H177.412V73.6841Z" fill="#231F20"/>
<path d="M189.53 71.2016H187.815V63.4637L182.954 71.2016H181.387V60.8457H183.102V68.4482L187.905 60.8457H189.53V71.2016Z" fill="#231F20"/>
<path d="M202.457 71.2016H200.716V66.5395H196.034V71.2016H194.294V60.8457H196.034V65.0371H200.703V60.8457H202.457V71.2016Z" fill="#231F20"/>
<path d="M211.325 71.434C210.668 71.4392 210.016 71.3279 209.398 71.1052C208.819 70.894 208.296 70.5521 207.87 70.1057C207.424 69.6222 207.087 69.0483 206.881 68.4227C206.635 67.652 206.518 66.8459 206.534 66.0369C206.517 65.2368 206.641 64.44 206.9 63.6833C207.111 63.0684 207.441 62.501 207.87 62.0132C208.291 61.5527 208.811 61.1954 209.392 60.9686C210.006 60.729 210.659 60.6065 211.318 60.6075C211.873 60.6049 212.425 60.6853 212.956 60.8461C213.439 60.9912 213.91 61.1767 214.362 61.4006V63.3351H214.266C214.138 63.2255 213.984 63.1094 213.791 62.974C213.566 62.8174 213.33 62.6774 213.084 62.5549C212.81 62.4201 212.524 62.31 212.23 62.226C211.925 62.1386 211.61 62.0931 211.293 62.0906C210.875 62.0827 210.461 62.1751 210.085 62.3601C209.71 62.5452 209.384 62.8175 209.135 63.1545C208.539 63.9967 208.249 65.0187 208.313 66.0498C208.252 67.0658 208.53 68.0731 209.103 68.9128C209.36 69.2485 209.693 69.517 210.076 69.6955C210.458 69.874 210.878 69.9572 211.299 69.9381C211.856 69.9381 212.406 69.8171 212.911 69.5834C213.412 69.3584 213.872 69.0511 214.273 68.6742H214.369V70.6087C214.202 70.6925 213.984 70.7892 213.727 70.9053C213.498 71.0077 213.262 71.0918 213.02 71.1568C212.761 71.2378 212.497 71.3045 212.23 71.3567C211.931 71.4101 211.628 71.436 211.325 71.434Z" fill="#231F20"/>
<path d="M226.519 71.2016H224.361L220.823 66.4299H219.956V71.2016H218.222V60.8457H219.956V65.3595C220.347 65.3634 220.733 65.2704 221.08 65.0886C221.456 64.8303 221.74 64.4573 221.889 64.0247L222.114 63.4895C222.197 63.2831 222.261 63.1026 222.313 62.9478C222.502 62.3018 222.897 61.7357 223.437 61.3358C224.002 60.9981 224.654 60.8344 225.312 60.865H225.781V62.3675H225.389C224.999 62.3362 224.61 62.4434 224.291 62.6706C223.978 62.9682 223.756 63.3481 223.648 63.7668C223.519 64.2282 223.313 64.6643 223.038 65.0564C222.825 65.3336 222.561 65.5677 222.261 65.7464L226.519 71.2016Z" fill="#231F20"/>
<path d="M238.052 71.2016H236.331V63.4637L231.476 71.2016H229.902V60.8457H231.624V68.4482L236.427 60.8457H238.052V71.2016Z" fill="#231F20"/>
<path d="M250.973 71.202H249.258V63.4641L244.396 71.202H242.829V60.8461H244.544V68.4486L249.335 60.8461H250.96L250.973 71.202ZM250.195 56.0615C250.2 56.5519 250.135 57.0404 250.003 57.5124C249.89 57.9099 249.703 58.2821 249.45 58.6086C249.195 58.9217 248.872 59.173 248.506 59.3437C248.081 59.5263 247.62 59.6121 247.158 59.5952C246.704 59.6026 246.253 59.5147 245.835 59.3372C245.463 59.1737 245.135 58.924 244.878 58.6086C244.616 58.2805 244.422 57.9035 244.306 57.4995C244.173 57.032 244.108 56.5477 244.114 56.0615H245.61C245.562 56.6861 245.696 57.3112 245.995 57.8606C246.134 58.0318 246.31 58.1699 246.509 58.2646C246.707 58.3594 246.925 58.4086 247.145 58.4086C247.365 58.4086 247.582 58.3594 247.781 58.2646C247.98 58.1699 248.155 58.0318 248.294 57.8606C248.606 57.3154 248.745 56.6879 248.693 56.0615H250.195Z" fill="#231F20"/>
<path d="M273.037 73.6841H271.419V71.2016H263.931V60.8457H265.665V69.6991H270.276V60.8457H272.01V69.6991H273.037V73.6841Z" fill="#231F20"/>
<path d="M281.488 71.4409C280.785 71.4864 280.08 71.3863 279.417 71.1467C278.754 70.9071 278.147 70.5331 277.634 70.0481C277.157 69.5106 276.791 68.8832 276.557 68.2024C276.324 67.5217 276.227 66.801 276.273 66.0824C276.197 64.6223 276.669 63.1868 277.596 62.0587C278.025 61.5668 278.557 61.1768 279.155 60.917C279.753 60.6571 280.4 60.5339 281.051 60.5563C281.629 60.5473 282.203 60.6435 282.746 60.84C283.239 61.0206 283.68 61.3194 284.031 61.7105C284.416 62.127 284.707 62.6218 284.885 63.1614C285.096 63.8393 285.196 64.547 285.18 65.2571V66.2049H278.065C277.998 67.2081 278.323 68.1979 278.97 68.9648C279.293 69.2885 279.68 69.5411 280.106 69.7065C280.531 69.8719 280.987 69.9465 281.443 69.9256C281.821 69.9263 282.199 69.8808 282.567 69.7902C282.909 69.7147 283.242 69.6045 283.562 69.4613C283.833 69.34 284.097 69.2022 284.352 69.0486C284.541 68.936 284.722 68.8088 284.891 68.6682H284.994V70.5704L284.236 70.8735C283.97 70.9821 283.697 71.0768 283.421 71.1572C283.08 71.2475 282.779 71.3184 282.502 71.37C282.166 71.4198 281.827 71.4435 281.488 71.4409ZM283.523 64.8702C283.518 64.4607 283.462 64.0534 283.357 63.6579C283.269 63.3462 283.126 63.0533 282.933 62.7938C282.725 62.5337 282.455 62.3298 282.149 62.2006C281.388 61.921 280.553 61.921 279.792 62.2006C279.462 62.3433 279.164 62.5492 278.912 62.8067C278.661 63.0682 278.461 63.3743 278.322 63.7095C278.179 64.0791 278.092 64.4682 278.065 64.8637L283.523 64.8702Z" fill="#231F20"/>
<path d="M297.376 71.2016H295.642V66.5395H290.973V71.2016H289.233V60.8457H290.973V65.0371H295.642V60.8457H297.376V71.2016Z" fill="#231F20"/>
<path d="M309.699 62.3739H306.186V71.2016H304.452V62.3739H300.945V60.8457H309.699V62.3739Z" fill="#231F20"/>
<path d="M321.901 65.7336C321.977 67.209 321.542 68.6654 320.668 69.854C320.304 70.3365 319.833 70.7267 319.292 70.9932C318.751 71.2598 318.155 71.3952 317.553 71.3887C317.095 71.3936 316.639 71.3328 316.198 71.2081C315.772 71.0778 315.364 70.8936 314.984 70.66V74.9997H313.25V60.8136H314.984V61.8969C315.417 61.5085 315.901 61.1809 316.423 60.9232C316.957 60.6556 317.547 60.5186 318.144 60.5234C318.686 60.5046 319.225 60.6243 319.709 60.8713C320.193 61.1182 320.607 61.4844 320.912 61.9356C321.626 63.0676 321.972 64.3951 321.901 65.7336ZM320.109 65.927C320.159 64.9765 319.966 64.0289 319.55 63.1736C319.369 62.8532 319.101 62.5913 318.776 62.4188C318.452 62.2463 318.086 62.1704 317.72 62.1999C317.226 62.1998 316.738 62.3122 316.294 62.5288C315.834 62.7578 315.403 63.0414 315.01 63.3735V69.2414C315.383 69.4327 315.775 69.5861 316.179 69.6992C316.545 69.7835 316.92 69.8247 317.296 69.8218C317.699 69.8393 318.1 69.758 318.465 69.585C318.83 69.412 319.147 69.1524 319.39 68.8287C319.928 67.9691 320.178 66.9589 320.102 65.9464L320.109 65.927Z" fill="#231F20"/>
<path d="M39.552 24.7984C39.1513 24.5449 39.0737 24.2156 38.5911 24.0791C38.5221 24.1289 38.4467 24.1853 38.3562 24.2481C38.2313 24.5601 38.7505 24.8049 39.552 24.7984Z" fill="#DFB677" stroke="white" stroke-width="0.225767" stroke-miterlimit="10"/>
<path d="M47.3386 13.127C46.9077 13.2223 46.2614 13.3761 45.6021 13.5732C45.3995 14.3012 44.1865 18.3395 41.377 21.5893L42.1311 21.4788C42.7322 21.3834 43.3613 22.0941 43.8547 22.5924C45.8326 20.5407 46.8711 18.0059 47.3796 16.2705L47.3386 13.127Z" fill="#DFB677" stroke="white" stroke-width="0.225767" stroke-miterlimit="10"/>
<path d="M38.3566 24.2481C38.4471 24.1853 38.5225 24.129 38.5914 24.0791C38.5049 24.0541 38.4161 24.0374 38.3264 24.0293C37.6283 23.9557 36.2408 24.3001 35.3574 24.9891C35.8012 24.9791 36.2442 24.9466 36.6846 24.8916C37.2875 24.8244 37.8632 24.6028 38.3566 24.2481Z" fill="#DFB677" stroke="white" stroke-width="0.225767" stroke-miterlimit="10"/>
<path d="M37.6733 22.0225C38.9466 21.9121 40.4268 21.7236 41.377 21.5892C44.1779 18.3395 45.3996 14.3033 45.6021 13.5732C45.2401 13.6837 44.8782 13.8072 44.5593 13.9415C44.0759 14.1165 43.5648 14.2017 43.0511 14.1929C41.433 17.5726 36.303 21.4766 33.487 23.4893C33.2794 23.6374 33.0636 23.7734 32.8406 23.8966C32.7802 23.9689 32.7414 24.0568 32.7284 24.1503C32.7155 24.2438 32.7289 24.339 32.7673 24.4252C33.8425 22.6898 36.3762 22.133 37.6733 22.0225Z" fill="#DFB677" stroke="white" stroke-width="0.225767" stroke-miterlimit="10"/>
<path d="M43.0578 14.1931C42.168 14.1931 41.1381 13.9916 40.3603 13.4023C40.0069 13.8356 39.2291 14.7694 37.9321 16.1256C36.077 18.0755 30.6065 22.0185 27.1442 23.2122C26.9028 23.4852 26.9287 23.5697 27.5363 23.756C28.2365 23.9726 30.2661 25.3159 32.843 23.8968C33.066 23.7736 33.2818 23.6376 33.4894 23.4895C36.3097 21.4768 41.4397 17.5728 43.0578 14.1931Z" fill="#DFB677" stroke="white" stroke-width="0.225767" stroke-miterlimit="10"/>
<path d="M37.9321 16.1256C39.2248 14.7693 40.0069 13.8399 40.3603 13.4023C39.8601 13.0235 39.4963 12.4911 39.3239 11.8857C39.0481 12.1717 38.5741 12.3385 37.29 13.1553C32.4315 16.2772 26.584 19.5984 22.8544 21.388C22.2886 21.6646 21.6897 21.867 21.0726 21.9902C20.9347 22.1896 20.9218 22.4127 21.3225 22.573C22.0809 22.8785 23.6731 24.4059 27.1269 23.223L27.1528 23.2121C30.6001 22.0184 36.077 18.0667 37.9321 16.1256Z" fill="#DFB677" stroke="white" stroke-width="0.225767" stroke-miterlimit="10"/>
<path d="M37.2896 13.1548C38.5823 12.338 39.0477 12.1712 39.3235 11.8852C39.2313 11.5675 39.1806 11.2391 39.1727 10.9082C39.1661 10.5778 39.192 10.2476 39.2503 9.92241C37.7873 9.1663 31.9614 13.4083 28.7511 15.0483C25.6312 16.6429 19.3442 19.7929 16.7006 20.4537C16.539 20.731 16.1662 21.004 17.0453 21.3615C17.8899 21.7038 19.1999 22.3494 21.0636 21.9898C21.6807 21.8666 22.2795 21.6641 22.8454 21.3875C26.5836 19.5979 32.4311 16.2767 37.2896 13.1548Z" fill="#DFB677" stroke="white" stroke-width="0.225767" stroke-miterlimit="10"/>
<path d="M39.25 9.92315C39.4418 8.82474 39.9567 7.92781 40.3704 7.10671L40.2303 7.05038C38.7523 6.4611 35.1843 8.20296 31.36 10.4084C27.5356 12.6139 15.177 18.0258 11.7836 18.4873C11.3863 18.5405 10.9864 18.5709 10.5856 18.5783C10.3702 18.7949 10.3034 19.0614 10.7192 19.2867C11.4001 19.655 13.964 20.9961 16.3987 20.5238L16.7003 20.4545C19.344 19.7937 25.631 16.6436 28.7508 15.0491C31.9611 13.409 37.7871 9.16704 39.25 9.92315Z" fill="#DFB677" stroke="white" stroke-width="0.225767" stroke-miterlimit="10"/>
<path d="M31.3609 10.4124C35.1852 8.20696 38.7532 6.46511 40.2312 7.05439L40.3713 7.11072C40.5828 6.71993 40.7518 6.30736 40.8755 5.88015C39.8197 3.49702 35.5968 5.88016 25.0114 10.4991C17.2549 13.8875 8.51169 15.6987 6.86776 15.9955C6.28448 16.1025 5.68971 16.1316 5.09886 16.0821C4.97605 16.3161 4.86832 16.5154 5.66766 16.9726C6.55965 17.4904 7.97736 18.6126 10.5865 18.5779C10.9873 18.5706 11.3872 18.5402 11.7845 18.4869C15.1779 18.0255 27.5365 12.6158 31.3609 10.4124Z" fill="#DFB677" stroke="white" stroke-width="0.225767" stroke-miterlimit="10"/>
<path d="M6.86749 15.996C8.51143 15.6927 17.2503 13.888 25.0111 10.4996C35.5965 5.87634 39.8194 3.4997 40.8752 5.88067C40.9685 5.54199 40.9759 5.18522 40.8967 4.84292C40.8967 4.84292 39.7225 0.0549822 32.8171 4.03049C19.4157 11.7432 4.80772 14.0115 1.47461 14.447C1.65775 14.8629 3.07761 15.9115 5.09859 16.0827C5.68945 16.1321 6.28421 16.103 6.86749 15.996Z" fill="#DFB677" stroke="white" stroke-width="0.225767" stroke-miterlimit="10"/>
<path d="M40.8964 4.84267C40.9756 5.18496 40.9682 5.54174 40.8749 5.88041C40.7513 6.30762 40.5822 6.72019 40.3707 7.11098C39.957 7.92775 39.4421 8.82467 39.2503 9.92742C39.1921 10.2526 39.1661 10.5828 39.1728 10.9132C39.1807 11.2441 39.2314 11.5725 39.3236 11.8903C39.4959 12.4956 39.8598 13.028 40.3599 13.4068C41.1377 13.9961 42.1676 14.2019 43.0575 14.1976C43.5712 14.2064 44.0822 14.1213 44.5657 13.9463C44.8845 13.8119 45.2465 13.6884 45.6085 13.5779C46.2548 13.3808 46.912 13.227 47.345 13.1317V12.6269C46.6987 12.7265 45.4318 13.0298 43.9882 13.4263C42.5641 13.6689 41.7927 13.4155 41.4028 12.9627C40.5409 11.9661 40.8964 10.8547 41.3834 10.2026C41.6527 9.84292 42.8743 8.02307 43.0079 6.21839C43.0591 5.55951 42.9729 4.89715 42.7547 4.27373C42.5366 3.65032 42.1913 3.07961 41.741 2.59818C40.2199 0.923487 37.1798 0.232377 34.0018 2.18222C23.2979 8.14006 16.2266 10.2524 6.48585 12.6919C4.69325 13.1403 2.20472 13.7751 1.12528 14.3102C0.978772 14.3839 0.909825 14.5095 1.20931 14.4749L1.47432 14.4402C4.80959 14.0069 19.4154 11.7364 32.8168 4.02373C39.7222 0.0547253 40.8964 4.84267 40.8964 4.84267Z" fill="#DFB677" stroke="white" stroke-width="0.225767" stroke-miterlimit="10"/>
<path d="M52.6474 22.3132C53.0783 21.869 53.5652 21.4054 54.0479 21.4834C54.3279 21.5289 54.845 21.6069 55.472 21.7001C52.6021 18.4308 51.3654 14.334 51.1629 13.5887C50.4454 13.3721 49.7236 13.2053 49.2992 13.1143L49.2647 15.8137C49.6956 17.4754 50.6695 20.1207 52.6474 22.3132Z" fill="#DFB677" stroke="white" stroke-width="0.225767" stroke-miterlimit="10"/>
<path d="M58.4072 24.2477C58.2801 24.1589 58.1788 24.0788 58.0926 24.0311C57.9865 24.0222 57.8798 24.0222 57.7737 24.0311C57.0864 24.1026 57.0369 24.4644 56.6426 24.759C57.75 24.9129 58.5666 24.6269 58.4072 24.2477Z" fill="#DFB677" stroke="white" stroke-width="0.225767" stroke-miterlimit="10"/>
<path d="M60.0785 24.8912C60.2509 24.9129 60.434 24.9324 60.6214 24.9476C59.8773 24.4143 59.003 24.0945 58.092 24.0225C58.1782 24.0788 58.2794 24.159 58.4066 24.2391C58.8993 24.5965 59.4749 24.821 60.0785 24.8912Z" fill="#DFB677" stroke="white" stroke-width="0.225767" stroke-miterlimit="10"/>
<path d="M53.7052 14.1929C53.1915 14.2017 52.6805 14.1165 52.197 13.9415C51.8782 13.8072 51.5162 13.6837 51.1542 13.5732C51.3589 14.3098 52.5956 18.4153 55.4634 21.6846C56.3252 21.8037 57.4197 21.938 58.3871 22.0225C59.7402 22.1417 62.4808 22.7678 63.3836 24.8065C63.9308 24.6418 64.2045 24.3558 63.9114 23.8965C63.6887 23.7729 63.4729 23.6369 63.2651 23.4892C60.4534 21.4766 55.3233 17.5726 53.7052 14.1929Z" fill="#DFB677" stroke="white" stroke-width="0.225767" stroke-miterlimit="10"/>
<path d="M58.8308 16.1256C57.538 14.7694 56.7559 13.84 56.4026 13.4023C55.6248 13.9916 54.5949 14.1974 53.7051 14.1931C55.3232 17.5728 60.4532 21.4769 63.2692 23.4895C63.477 23.6372 63.6928 23.7732 63.9156 23.8968C66.501 25.3159 68.522 23.9683 69.2223 23.756C69.8406 23.5697 69.8557 23.4852 69.6144 23.2122C66.1628 22.0185 60.6859 18.0668 58.8308 16.1256Z" fill="#DFB677" stroke="white" stroke-width="0.225767" stroke-miterlimit="10"/>
<path d="M59.4726 13.1553C58.1799 12.3385 57.7145 12.1717 57.4387 11.8857C57.2663 12.4911 56.9025 13.0235 56.4023 13.4023C56.7557 13.8356 57.5335 14.7693 58.8305 16.1256C60.6856 18.0754 66.1561 22.0184 69.6185 23.2121L69.6443 23.223C73.0916 24.4059 74.6903 22.8785 75.4509 22.573C75.8495 22.4127 75.8365 22.1896 75.6987 21.9902C75.0815 21.867 74.4827 21.6646 73.9168 21.388C70.1808 19.5984 64.3312 16.2772 59.4726 13.1553Z" fill="#DFB677" stroke="white" stroke-width="0.225767" stroke-miterlimit="10"/>
<path d="M57.5127 9.92241C57.5709 10.2476 57.5969 10.5778 57.5903 10.9082C57.5823 11.2391 57.5316 11.5675 57.4395 11.8852C57.7152 12.1712 58.1892 12.338 59.4734 13.1548C64.3319 16.2767 70.1816 19.5979 73.909 21.3875C74.4748 21.6641 75.0736 21.8666 75.6908 21.9898C77.5588 22.3494 78.8645 21.7038 79.7091 21.3615C80.5881 21.004 80.2175 20.731 80.0538 20.4537C77.4123 19.7929 71.1253 16.6429 68.0033 15.0483C64.8016 13.4083 58.9757 9.1663 57.5127 9.92241Z" fill="#DFB677" stroke="white" stroke-width="0.225767" stroke-miterlimit="10"/>
<path d="M65.403 10.4123C61.5786 8.20686 58.0107 6.46501 56.5326 7.05429L56.3926 7.11062C56.8063 7.92738 57.3212 8.82431 57.5129 9.92705C58.9759 9.17095 64.8019 13.4129 68.0122 15.053C71.1341 16.6475 77.4212 19.7976 80.0627 20.4583L80.3643 20.5277C82.799 21 85.3629 19.6611 86.0437 19.2906C86.4596 19.074 86.3863 18.801 86.1773 18.5822C85.7766 18.5748 85.3767 18.5444 84.9794 18.4912C81.5903 18.0254 69.2273 12.6157 65.403 10.4123Z" fill="#DFB677" stroke="white" stroke-width="0.225767" stroke-miterlimit="10"/>
<path d="M89.8956 15.9962C88.2517 15.6929 79.5127 13.8882 71.7541 10.4998C61.1666 5.87655 56.9436 3.49991 55.8879 5.88088C56.0115 6.30809 56.1805 6.72066 56.392 7.11145L56.5321 7.05512C58.0101 6.46584 61.5781 8.2077 65.4024 10.4132C69.2268 12.6187 81.5897 18.0262 84.9789 18.4877C85.3761 18.5409 85.7761 18.5713 86.1768 18.5787C88.786 18.6133 90.2058 17.4954 91.0978 16.9733C91.895 16.5119 91.7873 16.3234 91.6645 16.0829C91.0736 16.1323 90.4789 16.1031 89.8956 15.9962Z" fill="#DFB677" stroke="white" stroke-width="0.225767" stroke-miterlimit="10"/>
<path d="M55.8659 4.84292C55.7867 5.18522 55.7941 5.54199 55.8874 5.88067C56.9431 3.49753 61.1661 5.88067 71.7536 10.4996C79.5101 13.888 88.2512 15.6992 89.8951 15.996C90.4784 16.1029 91.0731 16.1321 91.664 16.0827C93.685 15.9115 95.1113 14.8629 95.288 14.447C91.9527 14.0137 77.3469 11.7432 63.9455 4.03049C57.0401 0.0549822 55.8659 4.84292 55.8659 4.84292Z" fill="#DFB677" stroke="white" stroke-width="0.225767" stroke-miterlimit="10"/>
<path d="M95.6379 14.317C94.5606 13.7754 92.0699 13.1471 90.2773 12.6987C80.5365 10.2592 73.4717 8.14906 62.7613 2.18905C59.5834 0.239214 56.5433 0.930323 55.0221 2.60502C54.5756 3.08639 54.2334 3.65577 54.0172 4.27708C53.801 4.8984 53.7154 5.5581 53.766 6.21439C53.8996 8.01907 55.1212 9.83892 55.3906 10.1986C55.8775 10.8485 56.233 11.9621 55.3712 12.9587C54.9812 13.4115 54.2099 13.6649 52.7857 13.4223C51.64 13.0865 50.477 12.8138 49.3018 12.6055V13.0995C49.7327 13.1905 50.448 13.3573 51.1655 13.5739C51.5274 13.6844 51.8894 13.8079 52.2083 13.9422C52.6917 14.1173 53.2027 14.2024 53.7165 14.1936C54.6063 14.1936 55.6362 13.9921 56.414 13.4028C56.9142 13.024 57.278 12.4916 57.4503 11.8862C57.5425 11.5685 57.5932 11.2401 57.6011 10.9092C57.6078 10.5788 57.5818 10.2486 57.5236 9.92341C57.3318 8.825 56.8169 7.92808 56.4032 7.10698C56.1917 6.71619 56.0227 6.30362 55.899 5.87642C55.8058 5.53774 55.7984 5.18096 55.8775 4.83867C55.8775 4.83867 57.0517 0.0507284 63.9571 4.02623C77.3585 11.7389 91.9665 14.0072 95.2996 14.4427L95.5646 14.4774C95.8426 14.5142 95.7844 14.3907 95.6379 14.317Z" fill="#DFB677" stroke="white" stroke-width="0.225767" stroke-miterlimit="10"/>
<path d="M48.5905 70.1533C48.6056 70.1295 48.6228 70.1035 48.6465 70.071L48.6681 68.0085C48.5625 67.8395 48.4526 67.6705 48.3169 67.5059C48.1898 67.677 48.0713 67.8525 47.9678 68.0237L47.9894 70.0298C48.0217 70.0818 48.0497 70.123 48.0713 70.1533C48.0601 70.2167 48.0334 70.2762 47.9937 70.3266L48.0045 71.2496C48.1069 71.2314 48.2107 71.222 48.3147 71.2214C48.421 71.2217 48.527 71.2318 48.6314 71.2517L48.6422 70.2941C48.6172 70.2505 48.5997 70.2029 48.5905 70.1533Z" fill="#DFB677" stroke="white" stroke-width="0.225767" stroke-miterlimit="10"/>
<path d="M48.2453 37.5202C48.0329 37.5198 47.8214 37.4913 47.6162 37.4357L47.6399 39.4375L48.2238 39.5459C48.4931 39.4982 48.7474 39.4505 48.9951 39.4029L49.0188 37.3945C48.7693 37.4774 48.5082 37.5199 48.2453 37.5202Z" fill="#DFB677" stroke="white" stroke-width="0.225767" stroke-miterlimit="10"/>
<path d="M48.246 48.6425C48.078 48.6419 47.9106 48.6245 47.7461 48.5905L47.7612 50.0659L48.261 50.3108L48.8751 50.0009L48.8923 48.5537C48.6817 48.612 48.4644 48.6419 48.246 48.6425Z" fill="#DFB677" stroke="white" stroke-width="0.225767" stroke-miterlimit="10"/>
<path d="M48.2457 53.9128C48.3264 53.9134 48.4071 53.9185 48.4873 53.9279L48.2715 53.8223L48.0752 53.9214C48.1421 53.9171 48.1896 53.9128 48.2457 53.9128Z" fill="#DFB677" stroke="white" stroke-width="0.225767" stroke-miterlimit="10"/>
<path d="M47.9004 62.1958L47.9176 63.7622C48.0254 63.7403 48.1352 63.7294 48.2451 63.7297C48.4048 63.7298 48.5636 63.7524 48.717 63.7968L48.7342 62.2478C48.5997 62.0849 48.4558 61.9301 48.3033 61.7842C48.1608 61.913 48.0263 62.0505 47.9004 62.1958Z" fill="#DFB677" stroke="white" stroke-width="0.225767" stroke-miterlimit="10"/>
<path d="M48.2456 58.1018C48.1141 58.1016 47.9828 58.0893 47.8535 58.0649L47.8664 59.2283C48.0086 59.3367 48.1508 59.445 48.2974 59.5663C48.4546 59.4363 48.6141 59.315 48.7757 59.1937L48.7886 58.0303C48.6115 58.0779 48.429 58.102 48.2456 58.1018Z" fill="#DFB677" stroke="white" stroke-width="0.225767" stroke-miterlimit="10"/>
<path d="M47.6898 43.7981C47.8718 43.7537 48.0584 43.7312 48.2457 43.731C48.4829 43.731 48.7188 43.766 48.9459 43.8349L48.9589 42.6802C48.7283 42.6109 48.4892 42.5416 48.2349 42.4766C48.041 42.5242 47.8557 42.5762 47.6769 42.6261L47.6898 43.7981Z" fill="#DFB677" stroke="white" stroke-width="0.225767" stroke-miterlimit="10"/>
<path d="M48.2453 26.4702C47.9891 26.4701 47.7346 26.4291 47.4912 26.3489L47.5429 30.957L48.1893 31.087L49.0856 30.9028L49.1395 26.2969C48.8548 26.4102 48.5515 26.469 48.2453 26.4702Z" fill="#DFB677" stroke="white" stroke-width="0.225767" stroke-miterlimit="10"/>
<path d="M47.375 16.2685L47.4375 21.6999C47.697 21.6076 47.9702 21.56 48.2454 21.5591C48.5727 21.5587 48.8967 21.625 49.1977 21.7541L49.2645 15.8222L49.2969 13.0989V12.605L49.3098 11.5867C50.0014 11.4004 50.4668 11.0516 50.4668 10.6508C50.4549 10.5235 50.4119 10.401 50.3417 10.2945C50.2714 10.1879 50.1759 10.1004 50.0639 10.0399C49.4886 9.70876 48.8324 9.54662 48.17 9.5719C47.5386 9.55158 46.9128 9.6964 46.3537 9.9922C46.0521 10.1742 45.8711 10.4017 45.8711 10.6421C45.8711 11.0971 46.4701 11.4849 47.319 11.6431L47.3297 12.6137V13.1184L47.375 16.2685Z" fill="#DFB677" stroke="white" stroke-width="0.225767" stroke-miterlimit="10"/>
<path d="M58.3962 22.0232C57.4288 21.9387 56.3429 21.8066 55.4725 21.6853C54.8455 21.6008 54.3284 21.5228 54.0483 21.4686C53.5657 21.3906 53.0701 21.8542 52.6478 22.2984C52.4798 22.4739 52.3225 22.6472 52.1846 22.7815C51.3012 22.9635 50.8078 23.2148 50.9156 23.5463C51.0233 23.8777 50.9565 24.1659 51.0276 24.3479L51.1698 24.3847V24.7487C52.232 25.1473 54.2465 25.26 55.6944 25.0758C56.0327 25.0518 56.3588 24.939 56.6402 24.7487C57.0345 24.4605 57.0841 24.0987 57.7714 24.0207C57.8775 24.0118 57.9842 24.0118 58.0903 24.0207C59.0012 24.0928 59.8756 24.4126 60.6197 24.9458C61.083 25.3011 61.4212 25.7496 61.4622 26.2847C61.5785 27.8164 58.7237 28.9452 50.1141 30.6957L49.0906 30.9015L48.1943 31.0856C51.6589 31.7768 53.9061 32.2599 55.3906 32.8578C60.5616 31.415 63.578 29.7403 63.6878 26.432C63.715 25.8739 63.6132 25.317 63.3905 24.805C62.4877 22.7685 59.7493 22.1424 58.3962 22.0232Z" fill="#DFB677" stroke="white" stroke-width="0.225767" stroke-miterlimit="10"/>
<path d="M48.2241 39.5457L47.6402 39.4374C41.56 38.2783 41.5363 37.234 41.5363 37.2167C41.3919 36.5993 41.6009 36.0901 43.1501 35.4705C43.5508 35.3362 44.5527 35.1022 45.8153 34.8206C45.847 34.495 45.9429 34.179 46.0975 33.8912C43.4969 33.3777 41.1872 32.9379 41.0493 32.9141C39.5885 33.551 38.9293 34.3244 38.5587 35.6092C38.5587 36.0901 37.7162 39.6822 42.8807 41.3439C43.7098 41.6033 44.5587 41.7938 45.4188 41.9137C46.3668 42.048 47.3068 42.2339 48.2348 42.4704C48.4891 42.5354 48.7282 42.6048 48.9588 42.6741C53.2981 43.9957 53.1494 45.8848 53.1494 45.8848C53.1602 47.7978 51.2426 48.8053 48.8747 50.0012L48.2607 50.311C49.4229 50.8555 50.5466 51.4795 51.624 52.1785C56.3468 49.674 56.2649 47.0504 56.2606 46.2921C56.2606 45.3345 56.0451 43.1009 53.5329 41.4045C52.4212 40.6528 50.8548 40.005 48.655 39.6237C48.5085 39.5977 48.3576 39.5739 48.2241 39.5457Z" fill="#DFB677" stroke="white" stroke-width="0.225767" stroke-miterlimit="10"/>
<path d="M48.2913 59.5772C48.1513 59.4602 48.0091 59.3475 47.8604 59.2392C46.3522 58.0801 44.7923 57.2893 44.6975 56.6156C44.6242 56.1823 44.872 55.7251 46.6021 54.7264C46.7792 54.4992 47.0012 54.3114 47.2541 54.1749C47.5071 54.0385 47.7854 53.9562 48.0716 53.9335L48.2676 53.8338C47.548 53.4763 46.6905 53.0734 45.6821 52.6076C45.415 52.4862 45.1607 52.3627 44.9194 52.2393C44.4798 52.5435 44.0582 52.8734 43.6568 53.2272C40.7439 55.9591 42.9501 58.4744 44.4756 59.276C45.3564 59.7303 46.2097 60.2367 47.0309 60.7926C47.4792 61.0949 47.9034 61.4317 48.2999 61.8C48.4525 61.9459 48.5963 62.1007 48.7309 62.2636C49.082 62.6969 49.3018 63.1302 49.304 63.544C49.3031 63.7228 49.2865 63.9011 49.2544 64.077C49.4745 64.2376 49.6537 64.4484 49.7772 64.692C49.9008 64.9356 49.9653 65.2052 49.9654 65.4787C49.9654 65.5242 49.9654 65.5675 49.9654 65.6108C50.211 65.2122 50.7324 64.7746 50.726 63.7975C50.6964 62.6967 50.2813 61.6418 49.5539 60.8186C49.1737 60.3649 48.7509 59.9492 48.2913 59.5772Z" fill="#DFB677" stroke="white" stroke-width="0.225767" stroke-miterlimit="10"/>
<path d="M48.0708 70.1541C48.0492 70.1238 48.0212 70.0826 47.9889 70.0306C47.9199 69.9245 47.823 69.7685 47.6872 69.541C47.4481 69.1445 47.6248 68.5921 47.9673 68.0245C48.0708 67.8533 48.1828 67.6778 48.3164 67.5067C48.2345 67.3984 48.1462 67.29 48.06 67.186C47.8716 67.1664 47.6879 67.1143 47.517 67.0322C47.3878 67.2164 47.2628 67.407 47.1443 67.6085C46.4462 68.8001 47.1227 69.723 47.5752 70.1953C47.7907 70.4119 47.9156 70.4119 47.9846 70.3296C48.0243 70.2792 48.051 70.2197 48.0621 70.1563L48.0708 70.1541Z" fill="#DFB677" stroke="white" stroke-width="0.225767" stroke-miterlimit="10"/>
<path d="M47.5433 30.958L46.2247 30.698C37.391 28.9475 34.4479 27.8187 34.5556 26.287C34.5922 25.7736 34.9111 25.3381 35.3571 24.9871C36.2405 24.2982 37.628 23.9537 38.3261 24.0274C38.4158 24.0355 38.5045 24.0522 38.5911 24.0772C39.0737 24.2137 39.1513 24.543 39.552 24.7965C39.8303 24.9602 40.142 25.058 40.4634 25.0825C41.9501 25.2666 44.0141 25.154 45.1022 24.7553V24.3935L45.2465 24.3567C45.3198 24.1747 45.2465 23.8822 45.3564 23.5551C45.4663 23.228 44.9578 22.9636 44.0486 22.7903C43.984 22.7297 43.9172 22.6625 43.8482 22.591C43.3591 22.0927 42.73 21.3821 42.1246 21.4774L41.3705 21.5879C40.4203 21.7244 38.9401 21.9129 37.6668 22.0212C36.3934 22.1295 33.836 22.6885 32.763 24.4239C32.3968 25.0263 32.2237 25.7275 32.2674 26.4322C32.4118 29.7838 35.6005 31.4606 41.0365 32.9165C41.1744 32.9403 43.4841 33.3801 46.0847 33.8936C46.3332 33.4303 46.7233 33.0597 47.1973 32.8363C47.6713 32.613 48.2042 32.5487 48.7173 32.6531C49.2303 32.7575 49.6965 33.025 50.0468 33.4161C50.3972 33.8072 50.6133 34.3012 50.6631 34.8252C51.9559 35.1003 52.975 35.3343 53.3865 35.4751C54.9809 36.0947 55.1985 36.6039 55.0541 37.2213C55.0541 37.2451 55.0175 38.2677 48.9826 39.4073C48.7348 39.455 48.4806 39.5026 48.2112 39.5503C48.3513 39.5784 48.4956 39.6023 48.6421 39.6283C50.842 40.0096 52.4083 40.6574 53.5201 41.4091C59.0121 39.7756 58.0985 36.1056 58.0985 35.6203C57.6978 34.2944 56.9846 33.5123 55.3795 32.8645C53.895 32.2665 51.6478 31.7812 48.1832 31.0923L47.5433 30.958Z" fill="#DFB677" stroke="white" stroke-width="0.225767" stroke-miterlimit="10"/>
<path d="M47.7611 50.0664C45.264 48.8488 43.2171 47.8392 43.2171 45.8915C43.2171 45.8915 43.0448 43.9417 47.6771 42.6267C47.8559 42.5768 48.0412 42.5248 48.2351 42.4772C47.3071 42.2406 46.3671 42.0547 45.4191 41.9204C44.559 41.8006 43.7101 41.61 42.881 41.3506C40.2417 43.0513 40.0284 45.3239 40.0284 46.2923C40.0284 47.0571 39.9616 49.7089 44.9192 52.2285C45.1605 52.352 45.4148 52.4755 45.6819 52.5968C46.6967 53.0626 47.5543 53.4634 48.2674 53.8231L48.4829 53.9292C48.9859 53.9887 49.4502 54.2305 49.7886 54.6095C51.7427 55.6927 52.0185 56.1607 51.9431 56.6048C51.8483 57.2656 50.2863 58.0521 48.7608 59.2046C48.5992 59.326 48.4398 59.4473 48.2825 59.5773C48.7404 59.9481 49.1617 60.3624 49.5408 60.8143C50.3936 60.249 51.2793 59.7353 52.193 59.2761C53.7508 58.4745 55.998 55.9592 52.9902 53.2273C52.5529 52.8533 52.0931 52.5067 51.6135 52.1895C50.5361 51.4905 49.4124 50.8666 48.2502 50.322L47.7611 50.0664Z" fill="#DFB677" stroke="white" stroke-width="0.225767" stroke-miterlimit="10"/>
<path d="M47.3192 64.0032C47.2915 63.8466 47.2771 63.6879 47.2761 63.5288C47.2761 63.0955 47.5174 62.6362 47.9009 62.1964C48.0254 62.0512 48.1585 61.9137 48.2995 61.7848C47.903 61.4165 47.4787 61.0797 47.0305 60.7773C46.3216 61.6179 45.826 62.6037 45.826 63.7823C45.826 64.6489 46.257 65.0822 46.522 65.4591C46.5229 65.1687 46.5964 64.8832 46.7357 64.6288C46.875 64.3745 47.0756 64.1593 47.3192 64.0032Z" fill="#DFB677" stroke="white" stroke-width="0.225767" stroke-miterlimit="10"/>
<path d="M48.0604 67.1854C48.1465 67.2916 48.2349 67.4021 48.3168 67.506C48.4439 67.6707 48.5624 67.8397 48.668 68.0087C49.0299 68.5806 49.2217 69.1396 48.9782 69.5404C48.8209 69.796 48.7154 69.9737 48.6464 70.0712C48.6227 70.1037 48.6055 70.1297 48.5904 70.1535C48.5996 70.203 48.6171 70.2506 48.6421 70.2943C48.7067 70.3961 48.8339 70.446 49.0881 70.1925C49.5578 69.7202 50.2451 68.7973 49.519 67.6057C49.3833 67.389 49.2368 67.1724 49.0881 66.9688C48.8293 67.1136 48.5375 67.1883 48.2413 67.1854C48.1811 67.1885 48.1207 67.1885 48.0604 67.1854Z" fill="#DFB677" stroke="white" stroke-width="0.225767" stroke-miterlimit="10"/>
<path d="M45.8046 24.0154C45.8032 24.5386 45.9675 25.0486 46.2737 25.4716C46.58 25.8946 47.0121 26.2085 47.5077 26.368C48.0032 26.5274 48.5364 26.5241 49.0299 26.3585C49.5234 26.1928 49.9517 25.8735 50.2527 25.4467C50.5536 25.0199 50.7116 24.5079 50.7038 23.9848C50.6959 23.4617 50.5227 22.9546 50.2091 22.5372C49.8955 22.1197 49.4578 21.8135 48.9596 21.6629C48.4613 21.5123 47.9283 21.5251 47.4377 21.6995C46.9603 21.8675 46.5466 22.1807 46.254 22.5957C45.9614 23.0106 45.8043 23.5068 45.8046 24.0154ZM48.2457 22.6419C48.516 22.6415 48.7803 22.7217 49.0052 22.8723C49.2301 23.023 49.4055 23.2374 49.5092 23.4883C49.613 23.7392 49.6403 24.0155 49.5879 24.2821C49.5354 24.5487 49.4055 24.7936 49.2145 24.9859C49.0236 25.1782 48.7802 25.3093 48.5151 25.3624C48.2501 25.4156 47.9753 25.3885 47.7256 25.2846C47.4759 25.1807 47.2624 25.0047 47.1122 24.7788C46.962 24.5528 46.8819 24.2872 46.8819 24.0154C46.8816 23.8352 46.9166 23.6566 46.9851 23.49C47.0535 23.3233 47.1539 23.1719 47.2806 23.0443C47.4072 22.9167 47.5577 22.8155 47.7233 22.7465C47.8889 22.6774 48.0664 22.6419 48.2457 22.6419Z" fill="#6DCEEF" stroke="white" stroke-width="0.225767" stroke-miterlimit="10"/>
<path d="M45.8046 35.0649C45.8063 35.7154 46.064 36.3388 46.5214 36.7987C46.9789 37.2587 47.5988 37.5178 48.2457 37.5196C48.5085 37.5192 48.7696 37.4768 49.0192 37.3939C49.505 37.2307 49.9275 36.918 50.2267 36.5C50.526 36.082 50.687 35.58 50.6868 35.0649C50.6868 34.9848 50.6868 34.9068 50.676 34.8288C50.619 34.2203 50.3383 33.6552 49.8888 33.2438C49.4394 32.8325 48.8535 32.6045 48.2457 32.6045C47.6379 32.6045 47.052 32.8325 46.6025 33.2438C46.1531 33.6552 45.8724 34.2203 45.8153 34.8288C45.8089 34.9046 45.8046 34.9848 45.8046 35.0649ZM48.2457 33.6935C48.5154 33.6935 48.7791 33.774 49.0034 33.9247C49.2277 34.0753 49.4025 34.2895 49.5057 34.5401C49.6089 34.7907 49.636 35.0664 49.5833 35.3325C49.5307 35.5985 49.4008 35.8429 49.2101 36.0346C49.0193 36.2264 48.7763 36.357 48.5118 36.41C48.2472 36.4629 47.973 36.4357 47.7238 36.3319C47.4746 36.2281 47.2616 36.0524 47.1117 35.8268C46.9618 35.6013 46.8818 35.3362 46.8818 35.0649C46.8816 34.8847 46.9166 34.7063 46.9851 34.5398C47.0535 34.3733 47.154 34.222 47.2807 34.0946C47.4074 33.9672 47.5578 33.8662 47.7234 33.7973C47.889 33.7285 48.0665 33.6932 48.2457 33.6935Z" fill="#57C5C8" stroke="white" stroke-width="0.225767" stroke-miterlimit="10"/>
<path d="M48.2456 25.3877C48.5159 25.3882 48.7803 25.3079 49.0053 25.1571C49.2302 25.0064 49.4057 24.7919 49.5093 24.5408C49.613 24.2897 49.6402 24.0134 49.5876 23.7467C49.5349 23.4801 49.4048 23.2352 49.2136 23.0429C49.0224 22.8507 48.7788 22.7198 48.5137 22.6669C48.2485 22.614 47.9737 22.6414 47.724 22.7456C47.4743 22.8498 47.261 23.0262 47.111 23.2524C46.9611 23.4786 46.8813 23.7445 46.8817 24.0163C46.8814 24.1965 46.9165 24.375 46.985 24.5415C47.0534 24.708 47.1538 24.8593 47.2805 24.9867C47.4072 25.1141 47.5577 25.2151 47.7233 25.2839C47.8889 25.3527 48.0664 25.388 48.2456 25.3877Z" fill="#A9D7F3" stroke="white" stroke-width="0.225767" stroke-miterlimit="10"/>
<path d="M48.2456 36.4362C48.9988 36.4362 49.6094 35.8222 49.6094 35.0648C49.6094 34.3074 48.9988 33.6934 48.2456 33.6934C47.4923 33.6934 46.8817 34.3074 46.8817 35.0648C46.8817 35.8222 47.4923 36.4362 48.2456 36.4362Z" fill="#B4E2EB" stroke="white" stroke-width="0.225767" stroke-miterlimit="10"/>
<path d="M45.8046 46.1861C45.8044 46.7498 45.9969 47.2964 46.35 47.7342C46.7031 48.1721 47.1951 48.4746 47.7437 48.5909C47.9082 48.6248 48.0756 48.6422 48.2435 48.6429C48.8304 48.6439 49.3981 48.4324 49.8425 48.0469C50.2869 47.6614 50.5783 47.1279 50.6633 46.544C50.7484 45.96 50.6214 45.3649 50.3056 44.8674C49.9898 44.37 49.5063 44.0036 48.9438 43.8354C48.7167 43.7665 48.4807 43.7315 48.2435 43.7314C48.0563 43.7317 47.8697 43.7542 47.6877 43.7986C47.152 43.9247 46.6745 44.2292 46.3326 44.6626C45.9908 45.096 45.8047 45.6329 45.8046 46.1861ZM48.2457 44.8147C48.516 44.8143 48.7804 44.8945 49.0054 45.0453C49.2304 45.196 49.4058 45.4105 49.5094 45.6616C49.6131 45.9127 49.6403 46.189 49.5877 46.4557C49.5351 46.7223 49.4049 46.9673 49.2137 47.1595C49.0226 47.3517 48.779 47.4826 48.5138 47.5355C48.2486 47.5884 47.9738 47.5611 47.7241 47.4568C47.4744 47.3526 47.2611 47.1762 47.1112 46.95C46.9612 46.7238 46.8814 46.4579 46.8818 46.1861C46.8818 45.8224 47.0255 45.4735 47.2813 45.2164C47.5371 44.9592 47.884 44.8147 48.2457 44.8147Z" fill="#7DC242" stroke="white" stroke-width="0.225767" stroke-miterlimit="10"/>
<path d="M48.2456 47.5596C48.5158 47.56 48.7801 47.4798 49.005 47.3292C49.23 47.1785 49.4054 46.9641 49.5091 46.7132C49.6128 46.4622 49.6402 46.186 49.5877 45.9194C49.5352 45.6528 49.4053 45.4079 49.2144 45.2156C49.0234 45.0233 48.78 44.8922 48.515 44.8391C48.25 44.7859 47.9752 44.813 47.7255 44.9168C47.4757 45.0207 47.2623 45.1968 47.1121 45.4227C46.9619 45.6486 46.8817 45.9143 46.8817 46.186C46.8814 46.3663 46.9165 46.5449 46.9849 46.7115C47.0533 46.8781 47.1537 47.0296 47.2804 47.1572C47.4071 47.2847 47.5575 47.3859 47.7231 47.455C47.8887 47.524 48.0663 47.5596 48.2456 47.5596Z" fill="#C4E0B5" stroke="white" stroke-width="0.225767" stroke-miterlimit="10"/>
<path d="M48.0777 53.9227C47.5756 53.9642 47.1056 54.1874 46.7547 54.5509C46.4039 54.9143 46.196 55.3934 46.1697 55.8992C46.1434 56.4051 46.3004 56.9033 46.6117 57.3016C46.9229 57.6999 47.3672 57.9711 47.8622 58.0651C47.9915 58.0894 48.1228 58.1018 48.2544 58.1019C48.7871 58.1044 49.3006 57.9014 49.689 57.5347C50.0774 57.168 50.3111 56.6654 50.3421 56.1306C50.373 55.5957 50.1988 55.0693 49.8553 54.6598C49.5118 54.2503 49.0252 53.9888 48.4957 53.9292C48.4156 53.9198 48.335 53.9147 48.2544 53.9141C48.1897 53.9141 48.1423 53.9184 48.0777 53.9227ZM49.4092 56.0091C49.4088 56.2404 49.3402 56.4663 49.2121 56.6584C49.084 56.8505 48.9021 57.0002 48.6895 57.0884C48.4769 57.1766 48.243 57.1994 48.0175 57.1541C47.7919 57.1087 47.5848 56.9971 47.4223 56.8334C47.2598 56.6697 47.1492 56.4612 47.1045 56.2343C47.0598 56.0075 47.0829 55.7723 47.1711 55.5587C47.2592 55.345 47.4083 55.1625 47.5996 55.034C47.7909 54.9056 48.0157 54.837 48.2457 54.837C48.3987 54.837 48.5502 54.8673 48.6915 54.9263C48.8328 54.9852 48.9611 55.0716 49.0692 55.1804C49.1773 55.2893 49.2629 55.4185 49.3213 55.5607C49.3796 55.7029 49.4095 55.8552 49.4092 56.0091Z" fill="#F7CF3B" stroke="white" stroke-width="0.225767" stroke-miterlimit="10"/>
<path d="M47.0822 56.009C47.0826 56.2403 47.1512 56.4663 47.2793 56.6584C47.4074 56.8505 47.5893 57.0001 47.8019 57.0883C48.0146 57.1765 48.2484 57.1994 48.474 57.154C48.6995 57.1086 48.9066 56.997 49.0691 56.8333C49.2316 56.6696 49.3422 56.4611 49.3869 56.2343C49.4317 56.0074 49.4085 55.7723 49.3204 55.5586C49.2323 55.345 49.0831 55.1624 48.8918 55.0339C48.7006 54.9055 48.4757 54.8369 48.2457 54.8369C48.0927 54.8369 47.9412 54.8672 47.7999 54.9262C47.6586 54.9851 47.5303 55.0715 47.4222 55.1803C47.3142 55.2892 47.2285 55.4184 47.1702 55.5606C47.1118 55.7028 47.0819 55.8552 47.0822 56.009Z" fill="#F4E74D" stroke="white" stroke-width="0.225767" stroke-miterlimit="10"/>
<path d="M49.2578 64.061C49.094 63.9422 48.9111 63.8528 48.717 63.7967C48.5636 63.7522 48.4048 63.7296 48.2451 63.7295C48.1352 63.7293 48.0254 63.7401 47.9176 63.762C47.7045 63.8029 47.5012 63.8846 47.3187 64.0025C47.0751 64.1586 46.8745 64.3737 46.7352 64.6281C46.5959 64.8825 46.5224 65.1679 46.5215 65.4583C46.5219 65.7879 46.6158 66.1105 46.7921 66.3883C46.9684 66.6661 47.2198 66.8876 47.5169 67.0269C47.6878 67.109 47.8714 67.161 48.0598 67.1807C48.1214 67.1876 48.1832 67.1912 48.2451 67.1915C48.6804 67.1928 49.1 67.0285 49.4197 66.7315C49.7395 66.4345 49.9356 66.0269 49.9688 65.5905C49.9688 65.5472 49.9688 65.5038 49.9688 65.4583C49.968 65.1856 49.9032 64.9169 49.7796 64.6741C49.6561 64.4313 49.4773 64.2212 49.2578 64.061ZM48.2451 66.4311C48.0547 66.4311 47.8685 66.3743 47.7101 66.2679C47.5517 66.1615 47.4282 66.0102 47.3554 65.8333C47.2825 65.6563 47.2634 65.4616 47.3005 65.2738C47.3377 65.0859 47.4294 64.9133 47.5641 64.7779C47.6988 64.6425 47.8704 64.5502 48.0572 64.5129C48.2441 64.4755 48.4377 64.4947 48.6137 64.568C48.7897 64.6413 48.9401 64.7654 49.0459 64.9247C49.1517 65.0839 49.2082 65.2711 49.2082 65.4627C49.2082 65.7195 49.1068 65.9658 48.9261 66.1475C48.7455 66.3291 48.5006 66.4311 48.2451 66.4311Z" fill="#F05132" stroke="white" stroke-width="0.225767" stroke-miterlimit="10"/>
<path d="M48.2453 66.432C48.7772 66.432 49.2084 65.9984 49.2084 65.4635C49.2084 64.9287 48.7772 64.4951 48.2453 64.4951C47.7134 64.4951 47.2822 64.9287 47.2822 65.4635C47.2822 65.9984 47.7134 66.432 48.2453 66.432Z" fill="#F7A051" stroke="white" stroke-width="0.225767" stroke-miterlimit="10"/>
<path d="M48.0044 71.2518C47.6056 71.3266 47.2458 71.5405 46.9884 71.8558C46.7309 72.171 46.5923 72.5675 46.597 72.9754C46.6016 73.3833 46.7492 73.7764 47.0137 74.0857C47.2782 74.395 47.6428 74.6005 48.0431 74.6662C48.1329 74.6808 48.2237 74.6887 48.3146 74.69C48.4078 74.6891 48.5008 74.6804 48.5926 74.664C49.0159 74.5896 49.3962 74.3589 49.6592 74.0171C49.9221 73.6753 50.0485 73.2471 50.0137 72.8164C49.9789 72.3857 49.7854 71.9836 49.4711 71.689C49.1568 71.3943 48.7443 71.2284 48.3146 71.2236C48.2106 71.2242 48.1068 71.2336 48.0044 71.2518ZM49.2777 72.9568C49.2777 73.1484 49.2212 73.3356 49.1154 73.4948C49.0096 73.6541 48.8592 73.7782 48.6832 73.8515C48.5072 73.9248 48.3135 73.944 48.1267 73.9066C47.9399 73.8693 47.7683 73.777 47.6336 73.6416C47.4989 73.5062 47.4072 73.3336 47.37 73.1458C47.3329 72.9579 47.3519 72.7632 47.4248 72.5862C47.4977 72.4093 47.6212 72.258 47.7795 72.1516C47.9379 72.0452 48.1241 71.9884 48.3146 71.9884C48.57 71.9884 48.815 72.0904 48.9956 72.272C49.1762 72.4537 49.2777 72.7 49.2777 72.9568Z" fill="#DE2050" stroke="white" stroke-width="0.225767" stroke-miterlimit="10"/>
<path d="M47.3516 72.9567C47.3516 73.1482 47.4081 73.3355 47.5139 73.4947C47.6197 73.654 47.7701 73.7781 47.9461 73.8514C48.1221 73.9247 48.3157 73.9439 48.5025 73.9065C48.6894 73.8691 48.861 73.7769 48.9957 73.6415C49.1303 73.506 49.2221 73.3335 49.2592 73.1456C49.2964 72.9578 49.2773 72.7631 49.2044 72.5861C49.1315 72.4091 49.0081 72.2579 48.8497 72.1515C48.6913 72.0451 48.5051 71.9883 48.3146 71.9883C48.1882 71.9883 48.0629 72.0133 47.9461 72.062C47.8292 72.1107 47.7231 72.182 47.6336 72.2719C47.5442 72.3619 47.4733 72.4686 47.4249 72.5861C47.3765 72.7036 47.3516 72.8295 47.3516 72.9567Z" fill="#E87D80" stroke="white" stroke-width="0.225767" stroke-miterlimit="10"/>
<path d="M50.0684 10.0401C50.642 9.6501 51.0769 9.08615 51.3096 8.43037C51.5423 7.77459 51.5607 7.06123 51.3621 6.3942C51.1635 5.72717 50.7583 5.14131 50.2056 4.72196C49.6528 4.30261 48.9813 4.07166 48.2889 4.06277C47.5966 4.05387 46.9194 4.26749 46.3562 4.67251C45.7929 5.07753 45.373 5.65279 45.1575 6.3145C44.9421 6.97621 44.9424 7.68981 45.1583 8.35135C45.3743 9.0129 45.7947 9.58783 46.3582 9.99241C46.9173 9.69662 47.5431 9.5518 48.1745 9.57212C48.8369 9.54684 49.4931 9.70897 50.0684 10.0401ZM46.2031 7.31464C46.2031 6.90885 46.3227 6.51218 46.5469 6.17479C46.7711 5.83739 47.0898 5.57443 47.4626 5.41914C47.8355 5.26386 48.2457 5.22323 48.6415 5.30239C49.0373 5.38156 49.4009 5.57696 49.6862 5.86389C49.9716 6.15082 50.1659 6.51639 50.2446 6.91438C50.3234 7.31236 50.283 7.72488 50.1285 8.09977C49.9741 8.47467 49.7126 8.79509 49.377 9.02053C49.0415 9.24597 48.647 9.3663 48.2435 9.3663C47.7023 9.3663 47.1833 9.15014 46.8007 8.76538C46.4181 8.38062 46.2031 7.85877 46.2031 7.31464Z" fill="#B14E9D" stroke="white" stroke-width="0.225767" stroke-miterlimit="10"/>
<path d="M50.2966 7.31436C50.2966 6.90858 50.1769 6.51191 49.9527 6.17452C49.7285 5.83712 49.4098 5.57416 49.037 5.41887C48.6642 5.26358 48.2539 5.22295 47.8581 5.30212C47.4623 5.38128 47.0988 5.57668 46.8134 5.86362C46.5281 6.15055 46.3338 6.51612 46.255 6.9141C46.1763 7.31209 46.2167 7.72461 46.3711 8.0995C46.5256 8.47439 46.7871 8.79482 47.1226 9.02026C47.4582 9.2457 47.8526 9.36603 48.2562 9.36603C48.7973 9.36603 49.3163 9.14987 49.699 8.76511C50.0816 8.38035 50.2966 7.8585 50.2966 7.31436Z" fill="#CE90BE" stroke="white" stroke-width="0.225767" stroke-miterlimit="10"/>
<path d="M48.0432 74.6662V74.9999H48.5847V74.6641C48.4928 74.6804 48.3997 74.6891 48.3064 74.6901C48.2182 74.6884 48.1302 74.6804 48.0432 74.6662Z" fill="#DFB677" stroke="white" stroke-width="0.225767" stroke-miterlimit="10"/>
</svg>
