<svg width="22" height="16" viewBox="0 0 22 16" fill="none" xmlns="http://www.w3.org/2000/svg">
<path d="M19.2143 0.9H2.78571C1.74737 0.9 0.9 1.7283 0.9 2.75V13.25C0.9 14.2724 1.7474 15.1 2.78571 15.1H19.2143C20.2526 15.1 21.1 14.2717 21.1 13.25V2.75C21.1 1.7283 20.2526 0.9 19.2143 0.9ZM2.78571 1.8H19.2143C19.271 1.8 19.3266 1.80504 19.3809 1.81452L11.5474 7.03478C11.2238 7.2504 10.7762 7.2504 10.4526 7.03478L2.61897 1.81462C2.67318 1.80507 2.72891 1.8 2.78571 1.8ZM20.1857 13.25C20.1857 13.7718 19.7517 14.2 19.2143 14.2H2.78571C2.24827 14.2 1.81429 13.7724 1.81429 13.25V2.75C1.81429 2.63061 1.83915 2.51696 1.88273 2.41071L9.9402 7.78008C10.2547 7.98996 10.6212 8.1 11 8.1C11.3788 8.1 11.7453 7.98996 12.0598 7.78008L20.1168 2.41053C20.1608 2.51694 20.1857 2.63096 20.1857 2.75V13.25Z" fill="#2FBEAD" stroke="#2FBEAD" stroke-width="0.2"/>
</svg>
