<svg width="29" height="39" viewBox="0 0 29 39" fill="none" xmlns="http://www.w3.org/2000/svg">
<path d="M20.2285 0.292969C20.4427 0.455249 20.6782 0.594347 20.8664 0.782592C23.3405 3.24647 25.8044 5.72055 28.2803 8.18258C28.5993 8.49972 28.7496 8.83819 28.7486 9.29443C28.7394 17.8081 28.7421 26.3209 28.7421 34.8346C28.7421 36.1987 28.1987 37.2641 26.9506 37.8613C26.5101 38.0718 25.9806 38.1878 25.491 38.1887C18.1865 38.2091 10.883 38.2072 3.57848 38.1998C1.67285 38.198 0.314329 36.8339 0.313402 34.9245C0.308765 24.4727 0.313402 14.0228 0.309692 3.57196C0.309692 1.8657 1.48831 0.545199 3.02488 0.338407C3.06011 0.333771 3.09164 0.308733 3.12503 0.292969C8.82617 0.292969 14.5273 0.292969 20.2285 0.292969ZM19.2659 1.86755C19.0879 1.86755 18.9664 1.86755 18.844 1.86755C13.8105 1.86755 8.77609 1.86755 3.74262 1.86755C2.49816 1.86755 1.88613 2.48607 1.88613 3.74073C1.88613 14.0803 1.88613 24.419 1.88613 34.7585C1.88613 36.0123 2.49816 36.6271 3.74725 36.6271C10.9284 36.6271 18.1086 36.6271 25.2897 36.6271C26.563 36.6271 27.1685 36.0178 27.1685 34.7391C27.1685 26.5592 27.1685 18.3793 27.1685 10.1986C27.1685 10.0669 27.1685 9.93428 27.1685 9.76922C26.9904 9.76922 26.8578 9.76922 26.7243 9.76922C25.3176 9.76922 23.9108 9.78034 22.505 9.76643C20.6365 9.74696 19.2974 8.40421 19.2668 6.53752C19.2585 6.00709 19.265 5.47667 19.265 4.94624C19.265 3.9364 19.265 2.92655 19.265 1.86662L19.2659 1.86755ZM25.8814 8.18443C24.2066 6.5097 22.5226 4.82569 20.8609 3.16394C20.8609 4.3166 20.821 5.53416 20.8748 6.74802C20.9119 7.58539 21.4924 8.13807 22.3474 8.17238C23.539 8.21967 24.7343 8.18443 25.8814 8.18443Z" fill="white"/>
<path d="M16.1268 15.8209C16.1222 16.8085 15.7772 17.7144 15.5232 18.6381C15.4805 18.792 15.4527 18.9571 15.3776 19.0943C14.9723 19.8343 15.1671 20.4046 15.7856 20.9415C16.66 21.7001 17.4816 22.5189 18.3441 23.2904C18.4655 23.3989 18.6964 23.4314 18.8726 23.4221C19.8176 23.3711 20.7606 23.2626 21.7056 23.244C22.1117 23.2366 22.542 23.346 22.925 23.4963C23.742 23.8162 24.0554 24.3819 23.9979 25.273C23.9423 26.1298 23.473 26.7243 22.7108 26.9885C21.7074 27.3363 20.8487 27.0062 20.0308 26.4665C19.4652 26.0928 18.919 25.6903 18.3533 25.3175C18.2346 25.2396 18.0501 25.1756 17.9231 25.2081C16.2919 25.63 14.6626 26.0622 13.0407 26.5184C12.858 26.5694 12.6633 26.7521 12.5715 26.9246C11.7536 28.4611 10.7985 29.8892 9.4242 30.9899C8.59888 31.6502 7.69939 32.1101 6.59403 31.7559C5.88185 31.5278 5.28466 31.155 5.1029 30.3658C4.91837 29.5618 5.26333 28.9183 5.86237 28.4472C6.42896 28.0012 7.04934 27.6071 7.69011 27.2732C8.86966 26.6593 10.0844 26.1141 11.2742 25.5197C11.4411 25.4362 11.6127 25.261 11.6748 25.0885C12.208 23.6057 12.7217 22.1164 13.2225 20.6225C13.2624 20.5038 13.1919 20.3202 13.1214 20.195C12.6513 19.3604 12.1106 18.5611 11.7026 17.6978C11.2186 16.674 11.2844 15.5751 11.6052 14.5152C11.9752 13.2911 13.0213 12.7394 14.3436 12.9694C15.2505 13.127 15.7466 13.6862 15.9377 14.544C16.0304 14.9622 16.0675 15.3934 16.1287 15.819L16.1268 15.8209ZM13.9022 18.5277C14.0682 17.9667 14.2704 17.4696 14.3538 16.9531C14.4484 16.3643 14.479 15.7569 14.4595 15.1606C14.4419 14.6126 14.1989 14.4614 13.6509 14.5134C13.2503 14.5514 13.1279 14.8444 13.0491 15.1653C12.7449 16.4042 13.1798 17.4631 13.9022 18.5277ZM13.5647 24.6304C14.5736 24.3642 15.525 24.1129 16.3104 23.9052C15.7253 23.2737 15.1022 22.6014 14.4688 21.917C14.173 22.8054 13.8781 23.6901 13.5647 24.6313V24.6304ZM10.1382 27.9047C10.115 27.8732 10.0919 27.8417 10.0687 27.8111C9.11911 28.3257 8.16583 28.8348 7.22182 29.3597C7.06418 29.4469 6.92786 29.585 6.80545 29.7213C6.57826 29.9754 6.60701 30.0821 6.91302 30.2045C7.28302 30.3528 7.63262 30.3102 7.97109 30.0978C8.86688 29.535 9.53084 28.7486 10.1382 27.9057V27.9047ZM20.5066 24.7593C20.4964 24.8001 20.4862 24.8409 20.476 24.8807C20.7133 25.031 20.9378 25.2137 21.1928 25.3222C21.4543 25.4334 21.7436 25.5002 22.0274 25.5336C22.2425 25.5595 22.4419 25.4251 22.402 25.1895C22.3807 25.0681 22.1998 24.9002 22.0737 24.8835C21.5553 24.8149 21.0296 24.7964 20.5075 24.7593H20.5066Z" fill="white"/>
</svg>
