<svg width="26" height="26" viewBox="0 0 26 26" fill="none" xmlns="http://www.w3.org/2000/svg">
<path fill-rule="evenodd" clip-rule="evenodd" d="M10.0346 1.6589C7.71251 1.6589 5.63926 2.65423 4.14651 4.14724C2.65377 5.64025 1.74154 7.71387 1.74154 9.95338C1.74154 12.2758 2.65377 14.3495 4.14651 15.8425C5.63926 17.3355 7.71251 18.2479 10.0346 18.2479C12.2303 18.2479 14.2665 17.3705 15.7522 15.9286C15.7766 15.8947 15.804 15.8625 15.8342 15.8324C15.8651 15.8017 15.8976 15.774 15.9313 15.7494C17.373 14.2639 18.3276 12.228 18.3276 9.95338C18.3276 7.71387 17.3324 5.64025 15.8397 4.14724C14.3469 2.65423 12.2737 1.6589 10.0346 1.6589ZM10.0346 19.9897C12.4601 19.9897 14.6903 19.0775 16.4363 17.5996L24.5921 25.7668C24.9049 26.0772 25.4522 26.0772 25.765 25.7668C26.0778 25.4563 26.0778 24.913 25.765 24.6026L17.5858 16.4844C19.1042 14.7834 19.9862 12.5041 19.9862 9.95338C19.9862 7.2162 18.9081 4.72785 17.0836 2.90307C15.2592 1.07828 12.7713 0 10.0346 0C7.29786 0 4.72702 1.07828 2.98549 2.90307C1.16102 4.72785 0 7.2162 0 9.95338C0 12.7735 1.16102 15.2618 2.98549 17.0037C4.72702 18.8285 7.29786 19.9897 10.0346 19.9897ZM10.8645 3.56664C10.8645 3.06897 10.5327 2.65424 10.0352 2.65424C8.04484 2.65424 6.22038 3.48369 4.89349 4.81081C3.56661 6.13793 2.7373 7.96271 2.7373 9.95339C2.7373 10.4511 3.06903 10.8658 3.56661 10.8658C4.06419 10.8658 4.47884 10.4511 4.47884 9.95339C4.47884 8.46038 5.05935 7.05032 6.05451 6.05498C7.04968 5.05964 8.45949 4.39608 10.0352 4.39608C10.5327 4.39608 10.8645 3.98136 10.8645 3.56664Z" fill="url(#paint0_linear_1_1488)"/>
<defs>
<linearGradient id="paint0_linear_1_1488" x1="1.68997" y1="24.5696" x2="24.8638" y2="24.2728" gradientUnits="userSpaceOnUse">
<stop stop-color="#30B8B7"/>
<stop offset="1" stop-color="#2FA9CC"/>
</linearGradient>
</defs>
</svg>
