<svg width="133" height="20" viewBox="0 0 133 20" fill="none" xmlns="http://www.w3.org/2000/svg">
<path d="M19.9936 7.23411C19.9305 7.0512 19.8156 6.89054 19.663 6.77161C19.5103 6.65269 19.3264 6.58061 19.1336 6.56411L13.4436 5.73411L10.8936 0.56411C10.8117 0.395039 10.6839 0.252452 10.5247 0.152683C10.3655 0.052915 10.1815 0 9.99363 0C9.80577 0 9.62171 0.052915 9.46254 0.152683C9.30337 0.252452 9.17551 0.395039 9.09363 0.56411L6.54363 5.72411L0.85363 6.56411C0.668552 6.59042 0.494554 6.66807 0.35138 6.78827C0.208206 6.90846 0.10159 7.06638 0.0436298 7.24411C-0.00942525 7.41778 -0.0141863 7.60263 0.0298575 7.7788C0.0739014 7.95498 0.165087 8.11584 0.29363 8.24411L4.42363 12.2441L3.42363 17.9241C3.38793 18.1116 3.40662 18.3054 3.4775 18.4826C3.54838 18.6598 3.66848 18.813 3.82363 18.9241C3.97485 19.0322 4.1532 19.096 4.33868 19.1084C4.52415 19.1208 4.7094 19.0812 4.87363 18.9941L9.99363 16.3241L15.0936 19.0041C15.234 19.0833 15.3925 19.1246 15.5536 19.1241C15.7655 19.1249 15.972 19.0583 16.1436 18.9341C16.2988 18.823 16.4189 18.6698 16.4898 18.4926C16.5606 18.3154 16.5793 18.1216 16.5436 17.9341L15.5436 12.2541L19.6736 8.25411C19.818 8.13179 19.9247 7.97101 19.9814 7.79046C20.038 7.6099 20.0423 7.41698 19.9936 7.23411Z" fill="#FFCE3C"/>
<path d="M48.021 7.23411C47.9578 7.0512 47.843 6.89054 47.6903 6.77161C47.5377 6.65269 47.3538 6.58061 47.161 6.56411L41.471 5.73411L38.921 0.56411C38.8391 0.395039 38.7112 0.252452 38.5521 0.152683C38.3929 0.052915 38.2088 0 38.021 0C37.8331 0 37.6491 0.052915 37.4899 0.152683C37.3307 0.252452 37.2029 0.395039 37.121 0.56411L34.571 5.72411L28.881 6.56411C28.6959 6.59042 28.5219 6.66807 28.3787 6.78827C28.2355 6.90846 28.1289 7.06638 28.071 7.24411C28.0179 7.41778 28.0132 7.60263 28.0572 7.7788C28.1012 7.95498 28.1924 8.11584 28.321 8.24411L32.451 12.2441L31.451 17.9241C31.4153 18.1116 31.434 18.3054 31.5048 18.4826C31.5757 18.6598 31.6958 18.813 31.851 18.9241C32.0022 19.0322 32.1805 19.096 32.366 19.1084C32.5515 19.1208 32.7367 19.0812 32.901 18.9941L38.021 16.3241L43.121 19.0041C43.2613 19.0833 43.4198 19.1246 43.581 19.1241C43.7928 19.1249 43.9994 19.0583 44.171 18.9341C44.3261 18.823 44.4462 18.6698 44.5171 18.4926C44.588 18.3154 44.6067 18.1216 44.571 17.9341L43.571 12.2541L47.701 8.25411C47.8454 8.13179 47.9521 7.97101 48.0087 7.79046C48.0654 7.6099 48.0696 7.41698 48.021 7.23411Z" fill="#FFCE3C"/>
<path d="M76.0483 7.23411C75.9852 7.0512 75.8703 6.89054 75.7176 6.77161C75.565 6.65269 75.3811 6.58061 75.1883 6.56411L69.4983 5.73411L66.9483 0.56411C66.8664 0.395039 66.7386 0.252452 66.5794 0.152683C66.4202 0.052915 66.2362 0 66.0483 0C65.8605 0 65.6764 0.052915 65.5172 0.152683C65.3581 0.252452 65.2302 0.395039 65.1483 0.56411L62.5983 5.72411L56.9083 6.56411C56.7232 6.59042 56.5492 6.66807 56.4061 6.78827C56.2629 6.90846 56.1563 7.06638 56.0983 7.24411C56.0453 7.41778 56.0405 7.60263 56.0845 7.7788C56.1286 7.95498 56.2198 8.11584 56.3483 8.24411L60.4783 12.2441L59.4783 17.9241C59.4426 18.1116 59.4613 18.3054 59.5322 18.4826C59.6031 18.6598 59.7232 18.813 59.8783 18.9241C60.0295 19.0322 60.2079 19.096 60.3934 19.1084C60.5788 19.1208 60.7641 19.0812 60.9283 18.9941L66.0483 16.3241L71.1483 19.0041C71.2887 19.0833 71.4472 19.1246 71.6083 19.1241C71.8201 19.1249 72.0267 19.0583 72.1983 18.9341C72.3535 18.823 72.4736 18.6698 72.5444 18.4926C72.6153 18.3154 72.634 18.1216 72.5983 17.9341L71.5983 12.2541L75.7283 8.25411C75.8727 8.13179 75.9794 7.97101 76.0361 7.79046C76.0927 7.6099 76.097 7.41698 76.0483 7.23411Z" fill="#FFCE3C"/>
<path d="M104.076 7.23411C104.013 7.0512 103.898 6.89054 103.745 6.77161C103.592 6.65269 103.408 6.58061 103.216 6.56411L97.5257 5.73411L94.9757 0.56411C94.8938 0.395039 94.7659 0.252452 94.6067 0.152683C94.4476 0.052915 94.2635 0 94.0757 0C93.8878 0 93.7037 0.052915 93.5446 0.152683C93.3854 0.252452 93.2575 0.395039 93.1757 0.56411L90.6257 5.72411L84.9357 6.56411C84.7506 6.59042 84.5766 6.66807 84.4334 6.78827C84.2902 6.90846 84.1836 7.06638 84.1257 7.24411C84.0726 7.41778 84.0678 7.60263 84.1119 7.7788C84.1559 7.95498 84.2471 8.11584 84.3757 8.24411L88.5057 12.2441L87.5057 17.9241C87.47 18.1116 87.4887 18.3054 87.5595 18.4826C87.6304 18.6598 87.7505 18.813 87.9057 18.9241C88.0569 19.0322 88.2352 19.096 88.4207 19.1084C88.6062 19.1208 88.7914 19.0812 88.9557 18.9941L94.0757 16.3241L99.1757 19.0041C99.316 19.0833 99.4745 19.1246 99.6357 19.1241C99.8475 19.1249 100.054 19.0583 100.226 18.9341C100.381 18.823 100.501 18.6698 100.572 18.4926C100.643 18.3154 100.661 18.1216 100.626 17.9341L99.6257 12.2541L103.756 8.25411C103.9 8.13179 104.007 7.97101 104.063 7.79046C104.12 7.6099 104.124 7.41698 104.076 7.23411Z" fill="#FFCE3C"/>
<path d="M131.46 7.87261L131.447 7.88337L131.435 7.89495L127.305 11.8949L127.115 12.0795L127.161 12.3408L128.161 18.0208L128.161 18.0208L128.162 18.0276C128.18 18.1214 128.17 18.2183 128.135 18.3069C128.099 18.3955 128.039 18.4721 127.962 18.5276L127.96 18.5291C127.874 18.5912 127.771 18.6245 127.665 18.6241L127.661 18.6241C127.587 18.6244 127.514 18.6052 127.449 18.5686L127.442 18.565L127.436 18.5615L122.336 15.8815L122.104 15.7597L121.872 15.8808L116.752 18.5508L116.749 18.5524C116.667 18.5959 116.574 18.6157 116.481 18.6095C116.389 18.6033 116.299 18.5714 116.224 18.5174L115.933 18.924L116.224 18.5176C116.147 18.4621 116.087 18.3855 116.051 18.2969C116.016 18.2083 116.006 18.1114 116.024 18.0176L116.024 18.0177L116.025 18.0108L117.025 12.3308L117.071 12.0695L116.881 11.8849L112.754 7.888C112.691 7.82422 112.646 7.74462 112.624 7.65754C112.603 7.57097 112.605 7.48021 112.63 7.39468C112.659 7.30764 112.712 7.23031 112.782 7.17121C112.854 7.11112 112.941 7.07229 113.033 7.05913L113.033 7.05914L113.036 7.05875L118.726 6.21875L118.985 6.18049L119.101 5.94563L121.651 0.78563L121.651 0.785637L121.653 0.782054C121.694 0.697519 121.758 0.626226 121.837 0.576342C121.917 0.526458 122.009 0.5 122.103 0.5C122.197 0.5 122.289 0.526458 122.369 0.576342C122.448 0.626226 122.512 0.697519 122.553 0.782054L122.553 0.78206L122.555 0.785285L125.105 5.95528L125.221 6.19095L125.481 6.22887L131.171 7.05887L131.186 7.06102L131.2 7.06229C131.297 7.07054 131.389 7.10658 131.465 7.16604C131.537 7.22178 131.592 7.29585 131.624 7.38023C131.644 7.46637 131.64 7.55629 131.614 7.64079C131.585 7.73107 131.532 7.81145 131.46 7.87261Z" stroke="#FFCE3C"/>
<mask id="mask0_1_1289" style="mask-type:alpha" maskUnits="userSpaceOnUse" x="112" y="0" width="21" height="20">
<path d="M132.103 7.23411C132.04 7.0512 131.925 6.89054 131.772 6.77161C131.62 6.65269 131.436 6.58061 131.243 6.56411L125.553 5.73411L123.003 0.56411C122.921 0.395039 122.793 0.252452 122.634 0.152683C122.475 0.052915 122.291 0 122.103 0C121.915 0 121.731 0.052915 121.572 0.152683C121.413 0.252452 121.285 0.395039 121.203 0.56411L118.653 5.72411L112.963 6.56411C112.778 6.59042 112.604 6.66807 112.461 6.78827C112.318 6.90846 112.211 7.06638 112.153 7.24411C112.1 7.41778 112.095 7.60263 112.139 7.7788C112.183 7.95498 112.274 8.11584 112.403 8.24411L116.533 12.2441L115.533 17.9241C115.497 18.1116 115.516 18.3054 115.587 18.4826C115.658 18.6598 115.778 18.813 115.933 18.9241C116.084 19.0322 116.263 19.096 116.448 19.1084C116.634 19.1208 116.819 19.0812 116.983 18.9941L122.103 16.3241L127.203 19.0041C127.343 19.0833 127.502 19.1246 127.663 19.1241C127.875 19.1249 128.081 19.0583 128.253 18.9341C128.408 18.823 128.528 18.6698 128.599 18.4926C128.67 18.3154 128.689 18.1216 128.653 17.9341L127.653 12.2541L131.783 8.25411C131.927 8.13179 132.034 7.97101 132.091 7.79046C132.147 7.6099 132.152 7.41698 132.103 7.23411Z" fill="#FFCE3C"/>
</mask>
<g mask="url(#mask0_1_1289)">
<rect x="112" width="10" height="20" fill="#FFCE3C"/>
</g>
</svg>
