<svg width="18" height="28" viewBox="0 0 18 28" fill="none" xmlns="http://www.w3.org/2000/svg">
<mask id="path-1-outside-1_1_1499" maskUnits="userSpaceOnUse" x="0" y="0" width="18" height="28" fill="black">
<rect fill="white" width="18" height="28"/>
<path fill-rule="evenodd" clip-rule="evenodd" d="M13.3635 1H4.63648C2.632 1 1 2.62063 1 4.61115V23.3889C1 25.3794 2.632 27 4.63648 27H13.3635C15.368 27 17 25.3794 17 23.3889V4.61115C17 2.61936 15.368 1 13.3635 1ZM15.5459 23.3876C15.5459 24.5824 14.5667 25.5548 13.3635 25.5548H4.63648C3.43328 25.5548 2.45408 24.5824 2.45408 23.3876V4.61115C2.45408 3.41633 3.43328 2.44395 4.63648 2.44395H13.3635C14.5667 2.44395 15.5459 3.41633 15.5459 4.61115V23.3876ZM9.00095 24.8313C9.80402 24.8313 10.455 24.1848 10.455 23.3873C10.455 22.5898 9.80402 21.9434 9.00095 21.9434C8.19789 21.9434 7.54688 22.5898 7.54688 23.3873C7.54688 24.1848 8.19789 24.8313 9.00095 24.8313ZM7.5454 3.16602H10.4548C10.8568 3.16602 11.1819 3.48887 11.1819 3.88799C11.1819 4.28711 10.8568 4.60997 10.4548 4.60997H7.5454C7.14348 4.60997 6.81836 4.28711 6.81836 3.88799C6.81836 3.48887 7.14348 3.16602 7.5454 3.16602Z"/>
</mask>
<path fill-rule="evenodd" clip-rule="evenodd" d="M13.3635 1H4.63648C2.632 1 1 2.62063 1 4.61115V23.3889C1 25.3794 2.632 27 4.63648 27H13.3635C15.368 27 17 25.3794 17 23.3889V4.61115C17 2.61936 15.368 1 13.3635 1ZM15.5459 23.3876C15.5459 24.5824 14.5667 25.5548 13.3635 25.5548H4.63648C3.43328 25.5548 2.45408 24.5824 2.45408 23.3876V4.61115C2.45408 3.41633 3.43328 2.44395 4.63648 2.44395H13.3635C14.5667 2.44395 15.5459 3.41633 15.5459 4.61115V23.3876ZM9.00095 24.8313C9.80402 24.8313 10.455 24.1848 10.455 23.3873C10.455 22.5898 9.80402 21.9434 9.00095 21.9434C8.19789 21.9434 7.54688 22.5898 7.54688 23.3873C7.54688 24.1848 8.19789 24.8313 9.00095 24.8313ZM7.5454 3.16602H10.4548C10.8568 3.16602 11.1819 3.48887 11.1819 3.88799C11.1819 4.28711 10.8568 4.60997 10.4548 4.60997H7.5454C7.14348 4.60997 6.81836 4.28711 6.81836 3.88799C6.81836 3.48887 7.14348 3.16602 7.5454 3.16602Z" fill="url(#paint0_linear_1_1499)"/>
<path d="M4.63648 1.1H13.3635V0.9H4.63648V1.1ZM1.1 4.61115C1.1 2.67652 2.68657 1.1 4.63648 1.1V0.9C2.57743 0.9 0.9 2.56474 0.9 4.61115H1.1ZM1.1 23.3889V4.61115H0.9V23.3889H1.1ZM4.63648 26.9C2.68657 26.9 1.1 25.3235 1.1 23.3889H0.9C0.9 25.4353 2.57743 27.1 4.63648 27.1V26.9ZM13.3635 26.9H4.63648V27.1H13.3635V26.9ZM16.9 23.3889C16.9 25.3235 15.3134 26.9 13.3635 26.9V27.1C15.4226 27.1 17.1 25.4353 17.1 23.3889H16.9ZM16.9 4.61115V23.3889H17.1V4.61115H16.9ZM13.3635 1.1C15.3135 1.1 16.9 2.67527 16.9 4.61115H17.1C17.1 2.56345 15.4225 0.9 13.3635 0.9V1.1ZM13.3635 25.6548C14.6213 25.6548 15.6459 24.6383 15.6459 23.3876H15.4459C15.4459 24.5265 14.5122 25.4548 13.3635 25.4548V25.6548ZM4.63648 25.6548H13.3635V25.4548H4.63648V25.6548ZM2.35408 23.3876C2.35408 24.6383 3.37871 25.6548 4.63648 25.6548V25.4548C3.48785 25.4548 2.55408 24.5265 2.55408 23.3876H2.35408ZM2.35408 4.61115V23.3876H2.55408V4.61115H2.35408ZM4.63648 2.34395C3.37871 2.34395 2.35408 3.36044 2.35408 4.61115H2.55408C2.55408 3.47221 3.48785 2.54395 4.63648 2.54395V2.34395ZM13.3635 2.34395H4.63648V2.54395H13.3635V2.34395ZM15.6459 4.61115C15.6459 3.36044 14.6213 2.34395 13.3635 2.34395V2.54395C14.5122 2.54395 15.4459 3.47221 15.4459 4.61115H15.6459ZM15.6459 23.3876V4.61115H15.4459V23.3876H15.6459ZM10.355 23.3873C10.355 24.1289 9.74945 24.7313 9.00095 24.7313V24.9313C9.85859 24.9313 10.555 24.2407 10.555 23.3873H10.355ZM9.00095 22.0434C9.74945 22.0434 10.355 22.6457 10.355 23.3873H10.555C10.555 22.534 9.85859 21.8434 9.00095 21.8434V22.0434ZM7.64687 23.3873C7.64687 22.6457 8.25246 22.0434 9.00095 22.0434V21.8434C8.14332 21.8434 7.44688 22.534 7.44688 23.3873H7.64687ZM9.00095 24.7313C8.25246 24.7313 7.64687 24.1289 7.64687 23.3873H7.44688C7.44688 24.2407 8.14332 24.9313 9.00095 24.9313V24.7313ZM10.4548 3.06602H7.5454V3.26602H10.4548V3.06602ZM11.2819 3.88799C11.2819 3.43298 10.9113 3.06602 10.4548 3.06602V3.26602C10.8022 3.26602 11.0819 3.54476 11.0819 3.88799H11.2819ZM10.4548 4.70997C10.9113 4.70997 11.2819 4.343 11.2819 3.88799H11.0819C11.0819 4.23122 10.8022 4.50997 10.4548 4.50997V4.70997ZM7.5454 4.70997H10.4548V4.50997H7.5454V4.70997ZM6.71836 3.88799C6.71836 4.343 7.08891 4.70997 7.5454 4.70997V4.50997C7.19805 4.50997 6.91836 4.23122 6.91836 3.88799H6.71836ZM7.5454 3.06602C7.08891 3.06602 6.71836 3.43298 6.71836 3.88799H6.91836C6.91836 3.54476 7.19805 3.26602 7.5454 3.26602V3.06602Z" fill="url(#paint1_linear_1_1499)" mask="url(#path-1-outside-1_1_1499)"/>
<defs>
<linearGradient id="paint0_linear_1_1499" x1="2.04" y1="25.57" x2="16.3025" y2="25.4576" gradientUnits="userSpaceOnUse">
<stop stop-color="#30B8B7"/>
<stop offset="1" stop-color="#2FA9CC"/>
</linearGradient>
<linearGradient id="paint1_linear_1_1499" x1="2.04" y1="25.57" x2="16.3025" y2="25.4576" gradientUnits="userSpaceOnUse">
<stop stop-color="#30B8B7"/>
<stop offset="1" stop-color="#2FA9CC"/>
</linearGradient>
</defs>
</svg>
