<svg width="23" height="19" viewBox="0 0 23 19" fill="none" xmlns="http://www.w3.org/2000/svg">
<path fill-rule="evenodd" clip-rule="evenodd" d="M12.2501 14.8897C11.3684 15.7355 10.4942 16.5674 9.62821 17.4058C9.32547 17.6994 8.98507 17.8618 8.55054 17.8392C8.2539 17.8237 8.08802 17.6954 7.99695 17.4183C7.33345 15.3903 6.66028 13.3673 6.00035 11.3372C5.93624 11.1403 5.84159 11.0446 5.63908 10.9829C4.076 10.5129 2.51596 10.0318 0.958474 9.54422C0.718822 9.46905 0.477134 9.37083 0.270045 9.23202C-0.0500008 9.01855 -0.0968127 8.67027 0.19016 8.41971C0.455254 8.18869 0.771739 7.98724 1.10044 7.85895C3.01104 7.11329 4.93183 6.39168 6.84956 5.66355C11.7164 3.81292 16.5832 1.96379 21.4506 0.113156C22.3761 -0.239131 23.0874 0.256977 22.9913 1.24268C22.9297 1.87309 22.7638 2.49347 22.63 3.11586C21.5732 8.03034 20.5154 12.9453 19.453 17.8588C19.2006 19.0254 18.3687 19.3301 17.3938 18.622C15.761 17.4368 14.1297 16.2477 12.4979 15.0605C12.4201 15.0049 12.3392 14.9513 12.2501 14.8897ZM8.58514 16.382C8.60345 16.377 8.62177 16.372 8.64009 16.3675C8.65027 16.3214 8.66502 16.2763 8.66909 16.2307C8.77391 15.1167 8.88483 14.0032 8.97591 12.8872C8.99626 12.6386 9.08276 12.4622 9.27255 12.2949C10.7776 10.9694 12.2736 9.63542 13.7725 8.30445C15.4318 6.83066 17.0915 5.35837 18.7447 3.87856C18.847 3.78736 18.8897 3.63201 18.9599 3.50573C18.8042 3.4892 18.6373 3.42756 18.4959 3.46364C18.303 3.51275 18.1204 3.623 17.9484 3.72973C14.2864 6.00131 10.6275 8.27689 6.96303 10.544C6.75594 10.6722 6.71727 10.781 6.79614 11.005C7.06632 11.7692 7.31208 12.5404 7.56699 13.3101C7.90638 14.3344 8.24576 15.3582 8.58514 16.382Z" fill="#BDBDBD"/>
</svg>
