<svg width="1920" height="360" viewBox="0 0 1920 360" fill="none" xmlns="http://www.w3.org/2000/svg">
<path d="M1042.91 33.2398C334.747 83.2226 0 301.819 0 301.819V0.229004H1920V97.0001C1920 97.0001 1546.91 -2.33333 1042.91 33.2398Z" fill="white"/>
<path d="M1821.56 90.9579C1739.41 80.6538 1657.01 72.8332 1574.45 67.6796C1533.18 65.0517 1491.89 62.9858 1450.57 61.6862C1409.24 60.3764 1367.92 59.4549 1326.59 59.3815C1161.3 58.9752 996.002 68.3061 832.069 88.8322C791.089 93.9279 750.191 99.7795 709.418 106.315C668.635 112.821 627.975 120.102 587.461 128.109C506.442 144.173 425.981 163.108 346.354 185.156C336.388 187.875 326.484 190.799 316.548 193.61C306.603 196.39 296.729 199.426 286.825 202.369L271.978 206.805L257.194 211.425C247.331 214.502 237.437 217.466 227.625 220.706C217.803 223.905 207.95 227.022 198.148 230.292L168.785 240.216C149.274 247.022 129.774 253.88 110.377 261.033C71.5516 275.238 33.0242 290.29 -5.18466 306.129C-14.76 310.022 -24.2122 314.181 -33.6335 318.431C-43.0651 322.661 -52.4043 327.085 -61.7434 331.54C-80.4012 340.469 -98.864 349.807 -117.152 359.523C-108.213 354.313 -99.1819 349.246 -90.0891 344.291C-81.0065 339.326 -71.8727 334.443 -62.6772 329.682C-53.4818 324.911 -44.2351 320.242 -34.9063 315.736C-25.5878 311.21 -16.1975 306.796 -6.72495 302.597L21.6619 289.958L50.2438 277.767C59.7471 273.65 69.384 269.838 78.9592 265.883L93.3426 259.998L107.808 254.306C184.913 223.864 263.528 197.189 343.111 173.822C382.892 162.088 422.961 151.323 463.227 141.376C503.492 131.398 543.973 122.288 584.6 113.944C665.883 97.276 747.848 84.0091 830.156 73.6534C994.804 53.044 1160.91 44.6003 1326.7 47.4372L1357.78 48.0949C1368.14 48.4095 1378.51 48.6424 1388.86 49.0183C1399.22 49.3942 1409.57 49.7191 1419.92 50.187L1435.45 50.8581L1450.97 51.6621C1492.37 53.8096 1533.71 56.6723 1575 60.1789C1657.54 67.4577 1739.87 77.2811 1821.54 90.9579L1821.56 90.9579Z" fill="url(#paint0_linear_219_150)"/>
<path d="M1288.9 46.9677C1288.9 46.9677 810.171 59.3824 448.042 145.149C448.042 145.149 804.927 44.027 1288.9 46.9677Z" fill="url(#paint1_linear_219_150)"/>
<path d="M1288.9 46.9678C1253.6 48.1992 1218.31 50.0028 1183.06 52.072C1147.79 54.0901 1112.55 56.4044 1077.32 59.0253C1042.1 61.6768 1006.9 64.4815 971.715 67.6539C937.207 70.7636 904.355 74.0537 866.285 78.1929C831.166 81.9374 796.099 86.1824 761.074 90.7032C726.048 95.2036 691.106 100.358 656.195 105.675C621.294 111.095 586.497 117.107 551.772 123.568C517.068 130.122 482.478 137.278 448.042 145.159C482.405 136.951 516.934 129.468 551.586 122.588C586.28 115.922 621.066 109.737 655.957 104.133C725.737 92.9769 795.839 83.9045 866.076 76.1805C936.334 68.6199 1006.73 62.3566 1077.22 57.4827C1112.46 55.0457 1147.73 52.9152 1183 51.1014C1218.29 49.3694 1253.59 47.9029 1288.9 46.9882L1288.9 46.9678Z" fill="url(#paint2_linear_219_150)"/>
<path d="M2031.66 126.077C2011.86 120.562 1992.08 114.934 1972.23 109.593L1964.81 107.627C1962.36 107.03 1959.83 106.473 1957.34 105.917C1952.33 104.804 1947.31 103.732 1942.28 102.69C1932.23 100.597 1922.16 98.6163 1912.08 96.7072C1901.99 94.7879 1891.88 92.981 1881.77 91.1844C1871.67 89.3775 1861.55 87.6421 1851.42 85.9681C1831.18 82.6099 1810.88 79.4867 1790.56 76.5782C1789.3 76.397 1788.06 76.2158 1786.8 76.0448C1706.79 64.5918 1626.4 55.9596 1545.86 49.9229C1382.24 37.6303 1217.91 35.863 1054.23 45.2619C890.571 54.7118 727.527 75.3892 566.933 108.71C406.317 141.919 248.295 188.057 94.6627 246.835C169.82 213.404 246.917 184.208 325.198 158.566C403.519 132.995 483.105 111.192 563.517 92.9728C724.36 56.5451 888.401 34.3023 1053.06 24.8707C1217.75 15.4594 1383.1 18.6855 1547.2 34.0627C1629.24 41.8331 1711.01 52.5875 1792.11 66.9501C1793.85 67.263 1795.59 67.5658 1797.31 67.8787C1815.85 71.2203 1834.35 74.7356 1852.81 78.4554C1862.9 80.4769 1872.97 82.5699 1883.04 84.7243C1893.1 86.8888 1903.14 89.1557 1913.17 91.4838C1923.2 93.8222 1933.21 96.2219 1943.19 98.734C1948.18 99.9901 1953.17 101.267 1958.15 102.594C1960.64 103.263 1963.11 103.901 1965.62 104.652L1973 106.955C1992.62 113.176 2012.16 119.55 2031.66 126.077Z" fill="url(#paint3_linear_219_150)"/>
<path d="M206.87 200.5C206.87 200.5 536.188 61.5019 995.844 28.5614C995.844 28.5614 553.877 72.1507 206.87 200.511L206.87 200.5Z" fill="url(#paint4_linear_219_150)"/>
<path d="M207.212 202.512C206.793 202.513 206.404 202.258 206.25 201.85C206.055 201.319 206.319 200.736 206.85 200.541C385.733 134.209 586.531 90.6543 723.769 66.6308C872.456 40.6001 980.246 30.1174 981.318 30.0129C981.88 29.9708 982.382 30.3682 982.434 30.93C982.486 31.4918 982.079 31.9934 981.517 32.0457C980.444 32.1502 872.715 42.6226 724.1 68.6428C586.954 92.656 386.279 136.179 207.559 202.46C207.447 202.501 207.324 202.522 207.202 202.522L207.212 202.512Z" fill="url(#paint5_linear_219_150)"/>
<path d="M1323.93 39.7699C1323.93 39.7699 1638.43 29.031 1930.65 100.324C1930.65 100.324 1650.33 43.7793 1323.93 39.7699Z" fill="url(#paint6_linear_219_150)"/>
<path d="M1323.92 38.7486C1444.87 35.4097 1566.11 41.7664 1686.29 55.5841C1755.72 63.8519 1825.27 74.9395 1893.48 90.4745C1904.12 92.7808 1920.02 96.7412 1930.66 99.2928C1919.87 96.8539 1904.02 93.1285 1893.38 90.9651C1706.43 52.0051 1514.73 37.1273 1323.93 38.7383L1323.92 38.7486Z" fill="url(#paint7_linear_219_150)"/>
<defs>
<linearGradient id="paint0_linear_219_150" x1="1821.8" y1="200.487" x2="-117.469" y2="204.711" gradientUnits="userSpaceOnUse">
<stop stop-color="white"/>
<stop offset="0.12" stop-color="#F8EBC6"/>
<stop offset="0.26" stop-color="#F0DE98"/>
<stop offset="0.38" stop-color="#FCEFCA"/>
<stop offset="0.47" stop-color="#FFFBEE"/>
<stop offset="0.57" stop-color="#EBDCB0"/>
<stop offset="0.65" stop-color="#E9DBAE"/>
<stop offset="0.68" stop-color="#D4BE84"/>
<stop offset="0.74" stop-color="#FAE59B"/>
<stop offset="0.9" stop-color="#E6D494"/>
<stop offset="0.99" stop-color="#C7BA8A"/>
</linearGradient>
<linearGradient id="paint1_linear_219_150" x1="447.937" y1="96.9231" x2="1289" y2="95.091" gradientUnits="userSpaceOnUse">
<stop stop-color="#E8DAAD"/>
<stop offset="0.52" stop-color="#E4D9BE"/>
<stop offset="1" stop-color="#E8D7A5"/>
</linearGradient>
<linearGradient id="paint2_linear_219_150" x1="446.915" y1="96.9764" x2="1290.02" y2="95.1399" gradientUnits="userSpaceOnUse">
<stop stop-color="#E6D8AC"/>
<stop offset="0.09" stop-color="#EBE0BE"/>
<stop offset="0.23" stop-color="#F4EDDA"/>
<stop offset="0.38" stop-color="#FAF7EE"/>
<stop offset="0.53" stop-color="#FDFDFA"/>
<stop offset="0.67" stop-color="white"/>
<stop offset="0.99" stop-color="#F2E4C0"/>
</linearGradient>
<linearGradient id="paint3_linear_219_150" x1="361.04" y1="-216.876" x2="1765.29" y2="589.787" gradientUnits="userSpaceOnUse">
<stop stop-color="white"/>
<stop offset="0.12" stop-color="#F0E3C0"/>
<stop offset="0.26" stop-color="#E8D793"/>
<stop offset="0.38" stop-color="#F4E7C4"/>
<stop offset="0.47" stop-color="#F7F3E7"/>
<stop offset="0.57" stop-color="#E3D5AA"/>
<stop offset="0.65" stop-color="#E1D3A8"/>
<stop offset="0.68" stop-color="#CCB77F"/>
<stop offset="0.69" stop-color="#F2DE96"/>
<stop offset="0.9" stop-color="#DECD8F"/>
<stop offset="0.99" stop-color="#BFB384"/>
</linearGradient>
<linearGradient id="paint4_linear_219_150" x1="206.685" y1="115.391" x2="996.03" y2="113.671" gradientUnits="userSpaceOnUse">
<stop stop-color="#D8CDAC"/>
<stop offset="0.48" stop-color="#D2C48D"/>
<stop offset="0.97" stop-color="#DCCFA3"/>
</linearGradient>
<linearGradient id="paint5_linear_219_150" x1="206.004" y1="117.098" x2="982.628" y2="115.406" gradientUnits="userSpaceOnUse">
<stop stop-color="#F7EED3"/>
<stop offset="0.23" stop-color="#F5F0DB"/>
<stop offset="0.51" stop-color="#F5F1E0"/>
<stop offset="0.98" stop-color="#F7EED3"/>
</linearGradient>
<linearGradient id="paint6_linear_219_150" x1="1323.99" y1="70.4626" x2="1930.59" y2="69.1412" gradientUnits="userSpaceOnUse">
<stop stop-color="#B1A580"/>
<stop offset="0.1" stop-color="#B9AC80"/>
<stop offset="0.31" stop-color="#C5B680"/>
<stop offset="0.51" stop-color="#CABA80"/>
<stop offset="0.98" stop-color="#D9C78B"/>
</linearGradient>
<linearGradient id="paint7_linear_219_150" x1="1323.99" y1="69.3186" x2="1930.59" y2="67.9973" gradientUnits="userSpaceOnUse">
<stop stop-color="#F7EED3"/>
<stop offset="0.23" stop-color="#F5F0DB"/>
<stop offset="0.51" stop-color="#F5F1E0"/>
<stop offset="0.98" stop-color="#F7EED3"/>
</linearGradient>
</defs>
</svg>
