<svg width="360" height="138" viewBox="0 0 360 138" fill="none" xmlns="http://www.w3.org/2000/svg">
<path d="M194.5 23C94 25.9048 0 46 0 46V0H360V27C360 27 295 20.0952 194.5 23Z" fill="white"/>
<path d="M458.636 37.1957C427.33 33.1938 395.922 30.1487 364.459 28.1156C348.728 27.0853 332.987 26.2573 317.238 25.7329C301.488 25.1993 285.738 24.813 269.979 24.7486C206.962 24.4542 143.944 27.8764 81.4422 35.5673C65.812 37.4716 50.2187 39.6704 34.6713 42.1266C19.1147 44.5737 3.61337 47.3152 -11.8328 50.3327C-42.7343 56.3953 -73.4151 63.5434 -103.792 71.8782C-107.592 72.9086 -111.373 74.0125 -115.163 75.0797C-118.953 76.1285 -122.725 77.2784 -126.497 78.3916L-132.155 80.0751L-137.794 81.823C-141.557 82.9914 -145.329 84.1137 -149.073 85.3373C-152.817 86.5516 -156.58 87.7292 -160.315 88.9711L-171.52 92.7338C-178.962 95.3097 -186.405 97.9132 -193.801 100.618C-208.613 106 -223.314 111.703 -237.895 117.711C-241.547 119.192 -245.154 120.765 -248.751 122.375C-252.348 123.976 -255.917 125.659 -259.477 127.352C-266.598 130.737 -273.645 134.288 -280.618 137.968C-277.205 135.99 -273.755 134.068 -270.287 132.182C-266.819 130.296 -263.332 128.447 -259.827 126.634C-256.322 124.822 -252.789 123.056 -249.229 121.335C-245.678 119.615 -242.09 117.941 -238.475 116.349L-227.647 111.556L-216.736 106.929C-213.111 105.365 -209.431 103.921 -205.779 102.421L-200.287 100.185L-194.767 98.0236C-165.347 86.478 -135.356 76.3768 -104.997 67.536C-89.8272 63.0926 -74.5374 59.0264 -59.1832 55.2637C-43.8291 51.4919 -28.3921 48.0512 -12.8907 44.9049C18.112 38.6216 49.3631 33.6262 80.7522 29.7532C143.53 22.0347 206.861 18.9528 270.062 20.1764L281.911 20.4523C285.858 20.5811 289.814 20.6823 293.76 20.8295C297.707 20.9767 301.654 21.1147 305.6 21.2987L311.516 21.5655L317.431 21.8875C333.208 22.743 348.967 23.8654 364.699 25.2361C396.161 28.0788 427.532 31.8875 458.654 37.1773L458.636 37.1957Z" fill="url(#paint0_linear_185_1169)"/>
<path d="M255.619 19.983C255.619 19.983 73.1165 24.316 -65.0066 56.7079C-65.0066 56.7079 71.1295 18.4559 255.619 19.983Z" fill="url(#paint1_linear_185_1169)"/>
<path d="M255.619 19.9829C242.16 20.4245 228.71 21.0777 215.269 21.8412C201.828 22.5864 188.388 23.4328 174.956 24.3987C161.525 25.3831 148.103 26.4226 134.69 27.6002C121.534 28.7593 109.004 29.9829 94.4873 31.5284C81.0926 32.9268 67.7256 34.5183 54.3677 36.211C41.0099 37.8946 27.6888 39.8357 14.377 41.832C1.06511 43.8651 -12.2008 46.1282 -25.4482 48.5661C-38.6865 51.0316 -51.8787 53.7363 -65.0066 56.7078C-51.9063 53.6075 -38.7325 50.7832 -25.5126 48.189C-12.2836 45.6775 0.982307 43.35 14.285 41.2432C40.8995 37.0482 67.6244 33.6444 94.4045 30.7649C121.194 27.9406 148.029 25.6131 174.91 23.81C188.351 22.9084 201.792 22.1264 215.242 21.464C228.691 20.8293 242.15 20.3049 255.609 19.9829H255.619Z" fill="url(#paint2_linear_185_1169)"/>
<path d="M538.7 50.7561C531.156 48.6402 523.622 46.4783 516.06 44.4268L513.236 43.6724C512.297 43.4424 511.34 43.2308 510.393 43.01C508.489 42.5777 506.575 42.1729 504.652 41.7681C500.825 40.9585 496.98 40.195 493.144 39.459C489.298 38.723 485.443 38.0238 481.598 37.3247C477.753 36.6255 473.898 35.9539 470.034 35.31C462.316 34.0128 454.579 32.8077 446.842 31.6761C446.363 31.6025 445.885 31.5381 445.407 31.4737C414.919 27.0395 384.284 23.6816 353.576 21.3173C291.212 16.4967 228.572 15.6872 166.171 19.1278C103.779 22.5961 41.6077 30.3422 -19.6434 42.9088C-80.8945 55.4387 -141.18 72.8904 -199.79 95.1719C-171.115 82.4856 -141.695 71.4277 -111.833 61.7129C-81.9525 52.0257 -51.5937 43.7828 -20.9313 36.9107C40.4025 23.1665 102.96 14.8224 165.738 11.3633C228.526 7.91348 291.552 9.27503 354.1 15.2732C385.37 18.2999 416.529 22.4673 447.431 28.0147C448.093 28.1343 448.755 28.2538 449.409 28.3734C456.474 29.6614 463.521 31.0137 470.558 32.4489C474.404 33.2308 478.24 34.0312 482.076 34.8592C485.913 35.6963 489.73 36.5611 493.557 37.4627C497.375 38.3642 501.193 39.2842 504.993 40.2502C506.897 40.7285 508.792 41.2253 510.687 41.7313C511.635 41.9889 512.573 42.2373 513.53 42.5225L516.345 43.4056C523.815 45.7975 531.267 48.2354 538.691 50.7469L538.7 50.7561Z" fill="url(#paint3_linear_185_1169)"/>
<path d="M-156.984 77.6192C-156.984 77.6192 -31.3269 24.9054 143.926 12.7251C143.926 12.7251 -24.5927 28.9716 -156.984 77.6192Z" fill="url(#paint4_linear_185_1169)"/>
<path d="M-156.856 78.3825C-157.012 78.3825 -157.159 78.2813 -157.224 78.1249C-157.297 77.9225 -157.196 77.7017 -156.994 77.6282C-88.7509 52.4948 -12.1641 36.055 40.1726 27.0118C96.8791 17.2142 137.974 13.3044 138.388 13.2676C138.599 13.2492 138.793 13.4056 138.811 13.6172C138.829 13.8288 138.673 14.022 138.461 14.0404C138.057 14.0772 96.9803 17.987 40.3014 27.7754C-11.9985 36.8186 -88.5301 53.2399 -156.718 78.3549C-156.764 78.3733 -156.81 78.3825 -156.856 78.3825Z" fill="url(#paint5_linear_185_1169)"/>
<path d="M268.976 17.2693C268.976 17.2693 388.875 13.433 500.218 40.8571C500.218 40.8571 393.401 19.0632 268.976 17.2693Z" fill="url(#paint6_linear_185_1169)"/>
<path d="M268.976 16.8835C315.085 15.7151 361.295 18.2358 407.1 23.6084C433.558 26.8191 460.062 31.1061 486.051 37.0858C490.108 37.9782 496.161 39.4961 500.218 40.4805C496.106 39.5421 490.071 38.107 486.014 37.279C414.781 22.2745 341.718 16.4419 268.986 16.9019L268.976 16.8835Z" fill="url(#paint7_linear_185_1169)"/>
<defs>
<linearGradient id="paint0_linear_185_1169" x1="458.636" y1="78.9527" x2="-280.627" y2="78.9527" gradientUnits="userSpaceOnUse">
<stop stop-color="white"/>
<stop offset="0.12" stop-color="#F8EBC6"/>
<stop offset="0.26" stop-color="#F0DE98"/>
<stop offset="0.38" stop-color="#FCEFCA"/>
<stop offset="0.47" stop-color="#FFFBEE"/>
<stop offset="0.57" stop-color="#EBDCB0"/>
<stop offset="0.65" stop-color="#E9DBAE"/>
<stop offset="0.68" stop-color="#D4BE84"/>
<stop offset="0.74" stop-color="#FAE59B"/>
<stop offset="0.9" stop-color="#E6D494"/>
<stop offset="0.99" stop-color="#C7BA8A"/>
</linearGradient>
<linearGradient id="paint1_linear_185_1169" x1="-65.0066" y1="38.3271" x2="255.619" y2="38.3271" gradientUnits="userSpaceOnUse">
<stop stop-color="#E8DAAD"/>
<stop offset="0.52" stop-color="#E4D9BE"/>
<stop offset="1" stop-color="#E8D7A5"/>
</linearGradient>
<linearGradient id="paint2_linear_185_1169" x1="-65.393" y1="38.3546" x2="256.005" y2="38.3546" gradientUnits="userSpaceOnUse">
<stop stop-color="#E6D8AC"/>
<stop offset="0.09" stop-color="#EBE0BE"/>
<stop offset="0.23" stop-color="#F4EDDA"/>
<stop offset="0.38" stop-color="#FAF7EE"/>
<stop offset="0.53" stop-color="#FDFDFA"/>
<stop offset="0.67" stop-color="white"/>
<stop offset="0.99" stop-color="#F2E4C0"/>
</linearGradient>
<linearGradient id="paint3_linear_185_1169" x1="-97.8678" y1="-81.3597" x2="436.768" y2="227.306" gradientUnits="userSpaceOnUse">
<stop stop-color="white"/>
<stop offset="0.12" stop-color="#F0E3C0"/>
<stop offset="0.26" stop-color="#E8D793"/>
<stop offset="0.38" stop-color="#F4E7C4"/>
<stop offset="0.47" stop-color="#F7F3E7"/>
<stop offset="0.57" stop-color="#E3D5AA"/>
<stop offset="0.65" stop-color="#E1D3A8"/>
<stop offset="0.68" stop-color="#CCB77F"/>
<stop offset="0.69" stop-color="#F2DE96"/>
<stop offset="0.9" stop-color="#DECD8F"/>
<stop offset="0.99" stop-color="#BFB384"/>
</linearGradient>
<linearGradient id="paint4_linear_185_1169" x1="-156.984" y1="45.1722" x2="143.926" y2="45.1722" gradientUnits="userSpaceOnUse">
<stop stop-color="#D8CDAC"/>
<stop offset="0.48" stop-color="#D2C48D"/>
<stop offset="0.97" stop-color="#DCCFA3"/>
</linearGradient>
<linearGradient id="paint5_linear_185_1169" x1="-157.242" y1="45.825" x2="138.811" y2="45.825" gradientUnits="userSpaceOnUse">
<stop stop-color="#F7EED3"/>
<stop offset="0.23" stop-color="#F5F0DB"/>
<stop offset="0.51" stop-color="#F5F1E0"/>
<stop offset="0.98" stop-color="#F7EED3"/>
</linearGradient>
<linearGradient id="paint6_linear_185_1169" x1="268.976" y1="28.9712" x2="500.218" y2="28.9712" gradientUnits="userSpaceOnUse">
<stop stop-color="#B1A580"/>
<stop offset="0.1" stop-color="#B9AC80"/>
<stop offset="0.31" stop-color="#C5B680"/>
<stop offset="0.51" stop-color="#CABA80"/>
<stop offset="0.98" stop-color="#D9C78B"/>
</linearGradient>
<linearGradient id="paint7_linear_185_1169" x1="268.976" y1="28.5302" x2="500.218" y2="28.5302" gradientUnits="userSpaceOnUse">
<stop stop-color="#F7EED3"/>
<stop offset="0.23" stop-color="#F5F0DB"/>
<stop offset="0.51" stop-color="#F5F1E0"/>
<stop offset="0.98" stop-color="#F7EED3"/>
</linearGradient>
</defs>
</svg>
