<svg width="17" height="10" viewBox="0 0 17 10" fill="none" xmlns="http://www.w3.org/2000/svg">
<path d="M16.3352 9.95782C16.2446 9.96934 16.1534 9.9836 16.0623 9.98415C15.1687 9.98579 14.2751 9.9836 13.3821 9.98689C13.2578 9.98744 13.1526 9.94081 13.0603 9.86566C12.8737 9.71152 12.6816 9.55957 12.5096 9.38843C12.0626 8.94026 11.6269 8.47948 11.1831 8.02693C11.0448 7.88595 10.8972 7.75595 10.7518 7.62265C10.6764 7.55079 10.582 7.53543 10.4843 7.53708C10.3535 7.54037 10.2456 7.60016 10.194 7.72249C10.1468 7.83329 10.1078 7.95342 10.0953 8.07191C10.0736 8.28639 10.0725 8.50197 10.0682 8.71646C10.0633 8.95672 10.0562 9.19863 9.98949 9.43231C9.95965 9.53544 9.91733 9.64021 9.8647 9.73346C9.77247 9.89364 9.62706 9.98086 9.44205 9.9847C8.66186 10.0028 7.88113 10.0143 7.10202 9.96276C6.9577 9.95178 6.82478 9.90571 6.69619 9.84153C5.96917 9.48058 5.33059 9.00115 4.77555 8.40323C4.10008 7.67641 3.48699 6.89692 2.87391 6.11744C2.04868 5.06642 1.33523 3.9419 0.693929 2.7691C0.459546 2.34178 0.233301 1.90843 0.0651101 1.4482C-0.0179005 1.2211 -0.0179005 0.993452 0.044493 0.764708C0.0623973 0.696688 0.0944079 0.630314 0.131301 0.570522C0.183929 0.482754 0.265855 0.433934 0.370567 0.43174C0.407461 0.431191 0.445982 0.430094 0.482876 0.430094C1.29345 0.430094 2.10294 0.433385 2.91297 0.427351C3.07302 0.426254 3.19564 0.48056 3.30307 0.59027C3.50272 0.792135 3.65789 1.02746 3.79733 1.27211C3.94925 1.53871 4.10116 1.80695 4.23517 2.08342C4.52978 2.69176 4.89112 3.25895 5.27362 3.81189C5.46026 4.08123 5.66209 4.34014 5.85578 4.60399C5.94584 4.72687 6.07063 4.77349 6.2144 4.77733C6.35438 4.78227 6.41135 4.72467 6.41678 4.58315C6.4184 4.54914 6.41786 4.51568 6.41786 4.48167C6.41786 3.55682 6.41786 2.63306 6.41678 1.70876C6.41678 1.6369 6.41678 1.56449 6.40972 1.49318C6.39345 1.32807 6.30718 1.23152 6.1455 1.19971C6.07226 1.18544 5.99738 1.17886 5.92305 1.16899C5.69518 1.13882 5.60078 1.04118 5.5769 0.809689C5.54164 0.460264 5.70712 0.187636 6.03102 0.0653096C6.17046 0.012649 6.31478 0.00112967 6.46235 0.00167822C7.18449 0.00277531 7.90663 0.00167818 8.62876 0.00222673C8.77525 0.00222673 8.92174 -0.00545308 9.06715 0.00771207C9.2196 0.0225229 9.37369 0.0428191 9.52181 0.086703C9.83757 0.178859 10.0204 0.396084 10.0562 0.730698C10.0654 0.810786 10.0676 0.890874 10.0676 0.970962C10.0687 1.53213 10.0687 2.09329 10.0687 2.65445C10.0687 3.24963 10.0682 3.8448 10.0698 4.43998C10.0698 4.49812 10.0747 4.55901 10.0904 4.61442C10.1419 4.79489 10.3362 4.85468 10.4995 4.74113C10.9807 4.40597 11.2965 3.93915 11.5396 3.41968C11.7642 2.9397 11.9579 2.44491 12.1689 1.95835C12.3377 1.57272 12.5107 1.18928 12.6871 0.806946C12.7299 0.712047 12.7934 0.625925 12.8525 0.539255C12.9062 0.461361 12.9768 0.427351 13.0761 0.427351C14.1248 0.430643 15.1714 0.430094 16.2196 0.428997C16.4762 0.428997 16.6797 0.534318 16.8398 0.731247C16.8962 0.801461 16.9195 0.883743 16.9342 0.974253C16.9966 1.3917 16.8549 1.75538 16.6575 2.10591C16.4703 2.43723 16.2478 2.74277 16.0059 3.03295C15.5045 3.63306 15.013 4.24031 14.5833 4.89582C14.4726 5.06422 14.3782 5.2436 14.2773 5.41749C14.203 5.54475 14.2127 5.66708 14.306 5.78063C14.4954 6.01102 14.6788 6.24799 14.8779 6.46796C15.351 6.99237 15.836 7.50416 16.3119 8.02583C16.4643 8.19369 16.6021 8.37361 16.7437 8.55134C16.7904 8.61004 16.8251 8.67861 16.8707 8.7384C17.2261 9.20247 16.7833 9.89803 16.3352 9.95782Z" fill="white"/>
</svg>
