<svg width="35" height="20" viewBox="0 0 35 20" fill="none" xmlns="http://www.w3.org/2000/svg">
<path d="M32.9449 19.9156C32.7622 19.9387 32.5783 19.9672 32.3945 19.9683C30.5923 19.9716 28.7901 19.9672 26.989 19.9738C26.7385 19.9749 26.5262 19.8816 26.3402 19.7313C25.9638 19.423 25.5764 19.1191 25.2295 18.7769C24.3279 17.8805 23.4492 16.959 22.5542 16.0539C22.2751 15.7719 21.9775 15.5119 21.6842 15.2453C21.5322 15.1016 21.3418 15.0709 21.1448 15.0742C20.8811 15.0807 20.6633 15.2003 20.5594 15.445C20.4642 15.6666 20.3854 15.9068 20.3602 16.1438C20.3165 16.5728 20.3143 17.0039 20.3055 17.4329C20.2957 17.9134 20.2815 18.3973 20.1469 18.8646C20.0867 19.0709 20.0013 19.2804 19.8952 19.4669C19.7092 19.7873 19.4159 19.9617 19.0428 19.9694C17.4693 20.0056 15.8947 20.0286 14.3234 19.9255C14.0323 19.9036 13.7643 19.8114 13.5049 19.6831C12.0387 18.9612 10.7508 18.0023 9.63137 16.8065C8.26906 15.3528 7.03259 13.7938 5.79611 12.2349C4.1318 10.1328 2.69289 7.88379 1.39952 5.5382C0.926815 4.68357 0.470524 3.81686 0.131314 2.8964C-0.0361019 2.4422 -0.0361019 1.9869 0.0897339 1.52942C0.125843 1.39338 0.190402 1.26063 0.26481 1.14104C0.37095 0.965509 0.536177 0.867868 0.747363 0.863479C0.82177 0.862382 0.89946 0.860188 0.973867 0.860188C2.60864 0.860188 4.24122 0.866771 5.8749 0.854702C6.19769 0.852508 6.44499 0.961121 6.66164 1.18054C7.06432 1.58427 7.37727 2.05492 7.65848 2.54423C7.96487 3.07742 8.27125 3.6139 8.54152 4.16683C9.13569 5.38351 9.86444 6.51791 10.6359 7.62378C11.0123 8.16245 11.4193 8.68028 11.81 9.20799C11.9916 9.45374 12.2433 9.54699 12.5333 9.55467C12.8156 9.56454 12.9305 9.44935 12.9414 9.1663C12.9447 9.09828 12.9436 9.03135 12.9436 8.96333C12.9436 7.11363 12.9436 5.26612 12.9414 3.41752C12.9414 3.2738 12.9414 3.12898 12.9272 2.98636C12.8943 2.65613 12.7204 2.46304 12.3943 2.39941C12.2466 2.37089 12.0956 2.35772 11.9457 2.33798C11.4861 2.27764 11.2957 2.08235 11.2475 1.61938C11.1764 0.920528 11.5102 0.375271 12.1634 0.130619C12.4446 0.025298 12.7357 0.00225934 13.0333 0.00335643C14.4897 0.00555062 15.9461 0.00335635 17.4025 0.00445345C17.698 0.00445345 17.9934 -0.0109062 18.2867 0.0154241C18.5942 0.0450457 18.9049 0.0856383 19.2036 0.173406C19.8405 0.357718 20.2092 0.792168 20.2815 1.4614C20.3001 1.62157 20.3044 1.78175 20.3044 1.94192C20.3066 3.06425 20.3066 4.18658 20.3066 5.30891C20.3066 6.49926 20.3055 7.68961 20.3088 8.87995C20.3088 8.99625 20.3187 9.11802 20.3504 9.22883C20.4543 9.58978 20.8461 9.70936 21.1754 9.48226C22.146 8.81193 22.7829 7.87831 23.2731 6.83936C23.7261 5.8794 24.1167 4.88982 24.5424 3.9167C24.8827 3.14544 25.2317 2.37857 25.5873 1.61389C25.6738 1.42409 25.8018 1.25185 25.9211 1.07851C26.0294 0.922722 26.1717 0.854702 26.3719 0.854702C28.487 0.861285 30.5978 0.860188 32.7118 0.857994C33.2294 0.857994 33.6397 1.06864 33.9625 1.46249C34.0763 1.60292 34.1234 1.76749 34.1529 1.94851C34.2788 2.7834 33.9932 3.51077 33.5949 4.21181C33.2174 4.87446 32.7687 5.48554 32.2807 6.06591C31.2697 7.26613 30.2783 8.48061 29.4117 9.79164C29.1884 10.1284 28.998 10.4872 28.7945 10.835C28.6446 11.0895 28.6643 11.3342 28.8525 11.5613C29.2344 12.022 29.6042 12.496 30.0058 12.9359C30.96 13.9847 31.9382 15.0083 32.8979 16.0517C33.2053 16.3874 33.4833 16.7472 33.7689 17.1027C33.863 17.2201 33.933 17.3572 34.0249 17.4768C34.7416 18.4049 33.8487 19.7961 32.9449 19.9156Z" fill="#BDBDBD"/>
</svg>
